SplineFontDB: 3.0
FontName: Sansita-Bold
FullName: Sansita-Bold
FamilyName: Sansita
Weight: Bold
Copyright: Copyright (c) 2011-2013, Omnibus-Type (www.omnibus-type.com omnibus.type@gmail.com) with Reserved Font Name 'Sansita'
Version: 001.004
ItalicAngle: 0
UnderlinePosition: -102.4
UnderlineWidth: 102.4
Ascent: 1638
Descent: 410
sfntRevision: 0x00010106
LayerCount: 2
Layer: 0 1 "Back"  1
Layer: 1 1 "Fore"  0
XUID: [1021 809 -2065993493 3074107]
FSType: 8
OS2Version: 3
OS2_WeightWidthSlopeOnly: 0
OS2_UseTypoMetrics: 1
CreationTime: 1387883357
ModificationTime: 1388162280
PfmFamily: 81
TTFWeight: 700
TTFWidth: 5
LineGap: 0
VLineGap: 0
Panose: 0 0 8 0 0 0 0 0 0 0
OS2TypoAscent: 1434
OS2TypoAOffset: 0
OS2TypoDescent: -369
OS2TypoDOffset: 0
OS2TypoLinegap: 655
OS2WinAscent: 2089
OS2WinAOffset: 0
OS2WinDescent: 369
OS2WinDOffset: 0
HheadAscent: 2089
HheadAOffset: 0
HheadDescent: -369
HheadDOffset: 0
OS2SubXSize: 1331
OS2SubYSize: 1229
OS2SubXOff: 0
OS2SubYOff: 154
OS2SupXSize: 1331
OS2SupYSize: 1229
OS2SupXOff: 0
OS2SupYOff: 717
OS2StrikeYSize: 102
OS2StrikeYPos: 627
OS2Vendor: 'UKWN'
OS2CodePages: 20000093.00000000
OS2UnicodeRanges: 00000007.00000000.00000000.00000000
Lookup: 1 0 0 "'aalt' Access All Alternates lookup 0"  {"'aalt' Access All Alternates lookup 0 subtable"  } ['aalt' ('DFLT' <'dflt' > 'grek' <'dflt' > 'latn' <'AZE ' 'CAT ' 'CRT ' 'ESP ' 'KAZ ' 'MOL ' 'NLD ' 'PLK ' 'ROM ' 'TAT ' 'TRK ' 'dflt' > ) ]
Lookup: 3 0 0 "'aalt' Access All Alternates lookup 1"  {"'aalt' Access All Alternates lookup 1 subtable"  } ['aalt' ('DFLT' <'dflt' > 'grek' <'dflt' > 'latn' <'AZE ' 'CAT ' 'CRT ' 'ESP ' 'KAZ ' 'MOL ' 'NLD ' 'PLK ' 'ROM ' 'TAT ' 'TRK ' 'dflt' > ) ]

StartChar: .notdef
Encoding: 65536 -1 0
Width: 1052
Flags: MW
HStem: 0 102<176 872 176 1036> 1331 102<174 870 174 174>
VStem: 12 100<195 195 195 1239> 932 104<195 1239 1239 1239>
LayerCount: 2
UndoRedoHistory
Layer: 1
Undoes
EndUndoes
Redoes
EndRedoes
EndUndoRedoHistory
Fore
SplineSet
12 1434 m 1,0,-1
 1036 1434 l 1,1,-1
 1036 0 l 1,2,-1
 12 0 l 1,3,-1
 12 1434 l 1,0,-1
870 1331 m 1,4,-1
 174 1331 l 1,5,-1
 524 809 l 1,6,-1
 870 1331 l 1,4,-1
113 195 m 1,7,-1
 463 717 l 1,8,-1
 113 1239 l 1,9,-1
 113 195 l 1,7,-1
932 195 m 1,10,-1
 932 1239 l 1,11,-1
 586 717 l 1,12,-1
 932 195 l 1,10,-1
872 102 m 1,13,-1
 522 625 l 1,14,-1
 176 102 l 1,15,-1
 872 102 l 1,13,-1
EndSplineSet
Validated: 1
EndChar

StartChar: A
Encoding: 65 65 1
Width: 1120
Flags: MW
HStem: 334 162<354 657 354 694 315 657> 1151 201<504 504> 1311 41G<365 772 772 772>
VStem: -8 1126<0 0>
LayerCount: 2
UndoRedoHistory
Layer: 1
Undoes
EndUndoes
Redoes
EndRedoes
EndUndoRedoHistory
Fore
SplineSet
1118 0 m 1,0,-1
 772 0 l 1,1,-1
 694 334 l 1,2,-1
 315 334 l 1,3,-1
 240 0 l 1,4,-1
 -8 0 l 1,5,-1
 365 1352 l 1,6,-1
 772 1352 l 1,7,-1
 1118 0 l 1,0,-1
657 496 m 1,8,-1
 504 1151 l 1,9,-1
 354 496 l 1,10,-1
 657 496 l 1,8,-1
EndSplineSet
Validated: 1
Substitution2: "Single Substitution lookup 21 subtable" ordfeminine
Substitution2: "'aalt' Access All Alternates lookup 0 subtable" ordfeminine
Position2: "'cpsp' Capital Spacing lookup 3 subtable" dx=10 dy=0 dh=20 dv=0
EndChar

StartChar: Aacute
Encoding: 193 193 2
Width: 1120
Flags: MW
HStem: 334 162<354 657 354 694 315 657> 1151 201<504 504> 1311 41G<365 772 772 772>
VStem: -8 1126<0 0>
LayerCount: 2
UndoRedoHistory
Layer: 1
Undoes
EndUndoes
Redoes
EndRedoes
EndUndoRedoHistory
Fore
SplineSet
846 1761 m 1,0,1
 876 1737 876 1737 894.5 1703 c 128,-1,2
 913 1669 913 1669 913 1634 c 0,3,4
 913 1605 913 1605 903.5 1583 c 128,-1,5
 894 1561 894 1561 874 1546.5 c 128,-1,6
 854 1532 854 1532 834 1523 c 128,-1,7
 814 1514 814 1514 781.5 1508 c 128,-1,8
 749 1502 749 1502 727.5 1500 c 128,-1,9
 706 1498 706 1498 670 1495 c 2,10,-1
 399 1475 l 1,11,-1
 375 1571 l 1,12,-1
 846 1761 l 1,0,1
772 0 m 1,13,-1
 694 334 l 1,14,-1
 315 334 l 1,15,-1
 240 0 l 1,16,-1
 -8 0 l 1,17,-1
 365 1352 l 1,18,-1
 772 1352 l 1,19,-1
 1118 0 l 1,20,-1
 772 0 l 1,13,-1
504 1151 m 1,21,-1
 354 496 l 1,22,-1
 657 496 l 1,23,-1
 504 1151 l 1,21,-1
EndSplineSet
Validated: 1
Position2: "'cpsp' Capital Spacing lookup 3 subtable" dx=10 dy=0 dh=20 dv=0
EndChar

StartChar: Abreve
Encoding: 258 258 3
Width: 1120
Flags: MW
HStem: 334 162<354 657 354 694 315 657> 1151 201<504 504> 1311 41G<365 772 772 772> 1440 106<511 618 511 688>
VStem: 211 246<1676 1720 1676 1720> 672 246<1676 1720>
LayerCount: 2
UndoRedoHistory
Layer: 1
Undoes
EndUndoes
Redoes
EndRedoes
EndUndoRedoHistory
Fore
SplineSet
918 1720 m 1,0,1
 918 1588 918 1588 831 1514 c 128,-1,2
 744 1440 744 1440 565 1440 c 0,3,4
 385 1440 385 1440 298 1513.5 c 128,-1,5
 211 1587 211 1587 211 1720 c 1,6,-1
 457 1720 l 1,7,8
 457 1690 457 1690 457.5 1676 c 128,-1,9
 458 1662 458 1662 460.5 1637 c 128,-1,10
 463 1612 463 1612 470 1599.5 c 128,-1,11
 477 1587 477 1587 488.5 1572.5 c 128,-1,12
 500 1558 500 1558 519.5 1552 c 128,-1,13
 539 1546 539 1546 565 1546 c 0,14,15
 596 1546 596 1546 617 1556.5 c 128,-1,16
 638 1567 638 1567 648.5 1581 c 128,-1,17
 659 1595 659 1595 664.5 1622 c 128,-1,18
 670 1649 670 1649 671 1667.5 c 128,-1,19
 672 1686 672 1686 672 1720 c 1,20,-1
 918 1720 l 1,0,1
772 0 m 1,21,-1
 694 334 l 1,22,-1
 315 334 l 1,23,-1
 240 0 l 1,24,-1
 -8 0 l 1,25,-1
 365 1352 l 1,26,-1
 772 1352 l 1,27,-1
 1118 0 l 1,28,-1
 772 0 l 1,21,-1
504 1151 m 1,29,-1
 354 496 l 1,30,-1
 657 496 l 1,31,-1
 504 1151 l 1,29,-1
EndSplineSet
Validated: 1
Position2: "'cpsp' Capital Spacing lookup 3 subtable" dx=10 dy=0 dh=20 dv=0
EndChar

StartChar: Acircumflex
Encoding: 194 194 4
Width: 1120
Flags: MW
HStem: 334 162<354 657 354 694 315 657> 1151 201<504 504> 1311 41G<365 772 772 772>
VStem: -8 1126<0 0>
LayerCount: 2
UndoRedoHistory
Layer: 1
Undoes
EndUndoes
Redoes
EndRedoes
EndUndoRedoHistory
Fore
SplineSet
233 1491 m 1,0,-1
 537 1745 l 1,1,-1
 586 1745 l 1,2,-1
 895 1491 l 1,3,-1
 825 1407 l 1,4,-1
 563 1534 l 1,5,-1
 303 1407 l 1,6,-1
 233 1491 l 1,0,-1
772 0 m 1,7,-1
 694 334 l 1,8,-1
 315 334 l 1,9,-1
 240 0 l 1,10,-1
 -8 0 l 1,11,-1
 365 1352 l 1,12,-1
 772 1352 l 1,13,-1
 1118 0 l 1,14,-1
 772 0 l 1,7,-1
504 1151 m 1,15,-1
 354 496 l 1,16,-1
 657 496 l 1,17,-1
 504 1151 l 1,15,-1
EndSplineSet
Validated: 1
Position2: "'cpsp' Capital Spacing lookup 3 subtable" dx=10 dy=0 dh=20 dv=0
EndChar

StartChar: Adieresis
Encoding: 196 196 5
Width: 1120
Flags: MW
HStem: 334 162<354 657 354 694 315 657> 1151 201<504 504> 1311 41G<365 772 772 772> 1456 295<291 391 731 831>
VStem: 152 377<1554 1649> 592 377<1554 1649>
LayerCount: 2
UndoRedoHistory
Layer: 1
Undoes
EndUndoes
Redoes
EndRedoes
EndUndoRedoHistory
Fore
SplineSet
344 1751 m 128,-1,1
 427 1751 427 1751 477.5 1712 c 128,-1,2
 528 1673 528 1673 528 1604 c 0,3,4
 528 1533 528 1533 474.5 1494.5 c 128,-1,5
 421 1456 421 1456 338 1456 c 128,-1,6
 255 1456 255 1456 203.5 1493.5 c 128,-1,7
 152 1531 152 1531 152 1599 c 0,8,9
 152 1670 152 1670 206.5 1710.5 c 128,-1,0
 261 1751 261 1751 344 1751 c 128,-1,1
784 1751 m 128,-1,11
 867 1751 867 1751 918 1712 c 128,-1,12
 969 1673 969 1673 969 1604 c 0,13,14
 969 1533 969 1533 915 1494.5 c 128,-1,15
 861 1456 861 1456 778 1456 c 128,-1,16
 695 1456 695 1456 643.5 1493.5 c 128,-1,17
 592 1531 592 1531 592 1599 c 0,18,19
 592 1670 592 1670 646.5 1710.5 c 128,-1,10
 701 1751 701 1751 784 1751 c 128,-1,11
772 0 m 1,20,-1
 694 334 l 1,21,-1
 315 334 l 1,22,-1
 240 0 l 1,23,-1
 -8 0 l 1,24,-1
 365 1352 l 1,25,-1
 772 1352 l 1,26,-1
 1118 0 l 1,27,-1
 772 0 l 1,20,-1
504 1151 m 1,28,-1
 354 496 l 1,29,-1
 657 496 l 1,30,-1
 504 1151 l 1,28,-1
EndSplineSet
Validated: 1
Position2: "'cpsp' Capital Spacing lookup 3 subtable" dx=10 dy=0 dh=20 dv=0
EndChar

StartChar: Agrave
Encoding: 192 192 6
Width: 1120
Flags: MW
HStem: 334 162<354 657 354 694 315 657> 1151 201<504 504> 1311 41G<365 772 772 772>
VStem: -8 1126<0 0>
LayerCount: 2
UndoRedoHistory
Layer: 1
Undoes
EndUndoes
Redoes
EndRedoes
EndUndoRedoHistory
Fore
SplineSet
457 1495 m 2,0,1
 421 1498 421 1498 399.5 1500 c 128,-1,2
 378 1502 378 1502 345.5 1508 c 128,-1,3
 313 1514 313 1514 293 1523 c 128,-1,4
 273 1532 273 1532 252.5 1546.5 c 128,-1,5
 232 1561 232 1561 222.5 1583 c 128,-1,6
 213 1605 213 1605 213 1634 c 0,7,8
 213 1668 213 1668 232 1702.5 c 128,-1,9
 251 1737 251 1737 281 1761 c 1,10,-1
 752 1571 l 1,11,-1
 727 1475 l 1,12,-1
 457 1495 l 2,0,1
772 0 m 1,13,-1
 694 334 l 1,14,-1
 315 334 l 1,15,-1
 240 0 l 1,16,-1
 -8 0 l 1,17,-1
 365 1352 l 1,18,-1
 772 1352 l 1,19,-1
 1118 0 l 1,20,-1
 772 0 l 1,13,-1
504 1151 m 1,21,-1
 354 496 l 1,22,-1
 657 496 l 1,23,-1
 504 1151 l 1,21,-1
EndSplineSet
Validated: 1
Position2: "'cpsp' Capital Spacing lookup 3 subtable" dx=10 dy=0 dh=20 dv=0
EndChar

StartChar: Amacron
Encoding: 256 256 7
Width: 1120
Flags: MW
HStem: 334 162<354 657 354 694 315 657> 1151 201<504 504> 1311 41G<365 772 772 772> 1550 178<373 741 279 842>
VStem: -8 1126<0 0>
LayerCount: 2
UndoRedoHistory
Layer: 1
Undoes
EndUndoes
Redoes
EndRedoes
EndUndoRedoHistory
Fore
SplineSet
842 1729 m 1,0,1
 860 1693 860 1693 860 1649 c 0,2,3
 860 1604 860 1604 828.5 1577 c 128,-1,4
 797 1550 797 1550 741 1550 c 2,5,-1
 279 1550 l 1,6,7
 262 1581 262 1581 262 1626 c 0,8,9
 262 1673 262 1673 292 1701 c 128,-1,10
 322 1729 322 1729 373 1729 c 2,11,-1
 842 1729 l 1,0,1
772 0 m 1,12,-1
 694 334 l 1,13,-1
 315 334 l 1,14,-1
 240 0 l 1,15,-1
 -8 0 l 1,16,-1
 365 1352 l 1,17,-1
 772 1352 l 1,18,-1
 1118 0 l 1,19,-1
 772 0 l 1,12,-1
504 1151 m 1,20,-1
 354 496 l 1,21,-1
 657 496 l 1,22,-1
 504 1151 l 1,20,-1
EndSplineSet
Validated: 1
Position2: "'cpsp' Capital Spacing lookup 3 subtable" dx=10 dy=0 dh=20 dv=0
EndChar

StartChar: Aogonek
Encoding: 260 260 8
Width: 1120
Flags: MW
HStem: -524 147<1030 1059> 0 20<1104 1130> 334 162<354 657 354 694 315 657> 1151 201<504 504> 1311 41G<365 772 772 772>
VStem: 758 199<-303 -246>
LayerCount: 2
UndoRedoHistory
Layer: 1
Undoes
EndUndoes
Redoes
EndRedoes
EndUndoRedoHistory
Fore
SplineSet
1104 0 m 1,0,1
 956 -123 956 -123 956 -262 c 0,2,3
 956 -324 956 -324 983 -350.5 c 128,-1,4
 1010 -377 1010 -377 1071 -377 c 0,5,6
 1102 -377 1102 -377 1132 -365 c 128,-1,7
 1162 -353 1162 -353 1176 -330 c 1,8,9
 1214 -356 1214 -356 1214 -397 c 0,10,11
 1214 -441 1214 -441 1181 -471 c 128,-1,12
 1148 -501 1148 -501 1106 -512.5 c 128,-1,13
 1064 -524 1064 -524 1018 -524 c 0,14,15
 903 -524 903 -524 830.5 -470.5 c 128,-1,16
 758 -417 758 -417 758 -313 c 0,17,18
 758 -217 758 -217 815 -137.5 c 128,-1,19
 872 -58 872 -58 967 0 c 1,20,-1
 772 0 l 1,21,-1
 694 334 l 1,22,-1
 315 334 l 1,23,-1
 240 0 l 1,24,-1
 -8 0 l 1,25,-1
 365 1352 l 1,26,-1
 772 1352 l 1,27,-1
 1112 27 l 1,28,-1
 1130 20 l 1,29,-1
 1116 10 l 1,30,-1
 1118 0 l 1,31,-1
 1104 0 l 1,0,1
657 496 m 1,32,-1
 504 1151 l 1,33,-1
 354 496 l 1,34,-1
 657 496 l 1,32,-1
EndSplineSet
Validated: 1
Position2: "'cpsp' Capital Spacing lookup 3 subtable" dx=10 dy=0 dh=20 dv=0
EndChar

StartChar: Aring
Encoding: 197 197 9
Width: 1120
Flags: MW
HStem: 334 162<354 657 354 694 315 657> 1151 201<504 504> 1311 41G<365 772 772 772> 1454 78<531 594 531 626> 1745 76<532 594>
VStem: 342 131<1610 1669 1610 1699> 653 131<1610 1669>
LayerCount: 2
UndoRedoHistory
Layer: 1
Undoes
EndUndoes
Redoes
EndRedoes
EndUndoRedoHistory
Fore
SplineSet
563 1454 m 128,-1,1
 467 1454 467 1454 404.5 1504.5 c 128,-1,2
 342 1555 342 1555 342 1640 c 128,-1,3
 342 1725 342 1725 403.5 1773 c 128,-1,4
 465 1821 465 1821 563 1821 c 128,-1,5
 661 1821 661 1821 722.5 1773 c 128,-1,6
 784 1725 784 1725 784 1640 c 128,-1,7
 784 1555 784 1555 721.5 1504.5 c 128,-1,0
 659 1454 659 1454 563 1454 c 128,-1,1
563 1532 m 0,8,9
 607 1532 607 1532 630 1562 c 128,-1,10
 653 1592 653 1592 653 1640 c 0,11,12
 653 1685 653 1685 630 1715 c 128,-1,13
 607 1745 607 1745 563 1745 c 128,-1,14
 519 1745 519 1745 496 1715 c 128,-1,15
 473 1685 473 1685 473 1640 c 0,16,17
 473 1591 473 1591 495.5 1561.5 c 128,-1,18
 518 1532 518 1532 563 1532 c 0,8,9
772 0 m 1,19,-1
 694 334 l 1,20,-1
 315 334 l 1,21,-1
 240 0 l 1,22,-1
 -8 0 l 1,23,-1
 365 1352 l 1,24,-1
 772 1352 l 1,25,-1
 1118 0 l 1,26,-1
 772 0 l 1,19,-1
504 1151 m 1,27,-1
 354 496 l 1,28,-1
 657 496 l 1,29,-1
 504 1151 l 1,27,-1
EndSplineSet
Validated: 1
Position2: "'cpsp' Capital Spacing lookup 3 subtable" dx=10 dy=0 dh=20 dv=0
EndChar

StartChar: Aringacute
Encoding: 506 506 10
Width: 1120
Flags: MW
HStem: 334 162<354 657 354 694 315 657> 1311 41G<365 383 383 383 537 599 752 772 772 772> 1546 70<538 598>
VStem: 346 133<1433 1478 1423 1504> 657 131<1433 1478>
LayerCount: 2
UndoRedoHistory
Layer: 1
Undoes
EndUndoes
Redoes
EndRedoes
EndUndoRedoHistory
Fore
SplineSet
401 1624 m 1,0,-1
 377 1720 l 1,1,-1
 848 1911 l 1,2,3
 878 1887 878 1887 896.5 1853 c 128,-1,4
 915 1819 915 1819 915 1784 c 0,5,6
 915 1755 915 1755 905.5 1733 c 128,-1,7
 896 1711 896 1711 876 1696.5 c 128,-1,8
 856 1682 856 1682 836 1673 c 128,-1,9
 816 1664 816 1664 783.5 1658 c 128,-1,10
 751 1652 751 1652 729.5 1650 c 128,-1,11
 708 1648 708 1648 672 1645 c 2,12,-1
 401 1624 l 1,0,-1
1118 0 m 1,13,-1
 772 0 l 1,14,-1
 694 334 l 1,15,-1
 315 334 l 1,16,-1
 240 0 l 1,17,-1
 -8 0 l 1,18,-1
 365 1352 l 1,19,-1
 383 1352 l 1,20,21
 346 1395 346 1395 346 1452 c 0,22,23
 346 1528 346 1528 407.5 1572 c 128,-1,24
 469 1616 469 1616 567 1616 c 128,-1,25
 665 1616 665 1616 726.5 1572 c 128,-1,26
 788 1528 788 1528 788 1452 c 0,27,28
 788 1394 788 1394 752 1352 c 1,29,-1
 772 1352 l 1,30,-1
 1118 0 l 1,13,-1
479 1452 m 0,31,32
 479 1407 479 1407 501 1379.5 c 128,-1,33
 523 1352 523 1352 567 1352 c 0,34,35
 612 1352 612 1352 634.5 1379.5 c 128,-1,36
 657 1407 657 1407 657 1452 c 0,37,38
 657 1493 657 1493 634 1519.5 c 128,-1,39
 611 1546 611 1546 567 1546 c 0,40,41
 525 1546 525 1546 502 1519.5 c 128,-1,42
 479 1493 479 1493 479 1452 c 0,31,32
657 496 m 1,43,-1
 504 1151 l 1,44,-1
 354 496 l 1,45,-1
 657 496 l 1,43,-1
EndSplineSet
Validated: 1
Position2: "'cpsp' Capital Spacing lookup 3 subtable" dx=10 dy=0 dh=20 dv=0
EndChar

StartChar: Atilde
Encoding: 195 195 11
Width: 1120
Flags: MW
HStem: 334 162<354 657 354 694 315 657> 1151 201<504 504> 1311 41G<365 772 772 772> 1485 195<707 772 702 803> 1530 195<356 421 326 426>
VStem: -8 1126<0 0>
LayerCount: 2
UndoRedoHistory
Layer: 1
Undoes
EndUndoes
Redoes
EndRedoes
EndUndoRedoHistory
Fore
SplineSet
872 1716 m 1,0,1
 924 1667 924 1667 924 1602 c 0,2,3
 924 1485 924 1485 758 1485 c 0,4,5
 706 1485 706 1485 566 1507.5 c 128,-1,6
 426 1530 426 1530 377 1530 c 0,7,8
 293 1530 293 1530 256 1495 c 1,9,10
 233 1515 233 1515 219 1546 c 128,-1,11
 205 1577 205 1577 205 1608 c 0,12,13
 205 1724 205 1724 371 1724 c 0,14,15
 421 1724 421 1724 562 1701.5 c 128,-1,16
 703 1679 703 1679 752 1679 c 0,17,18
 835 1679 835 1679 872 1716 c 1,0,1
772 0 m 1,19,-1
 694 334 l 1,20,-1
 315 334 l 1,21,-1
 240 0 l 1,22,-1
 -8 0 l 1,23,-1
 365 1352 l 1,24,-1
 772 1352 l 1,25,-1
 1118 0 l 1,26,-1
 772 0 l 1,19,-1
504 1151 m 1,27,-1
 354 496 l 1,28,-1
 657 496 l 1,29,-1
 504 1151 l 1,27,-1
EndSplineSet
Validated: 1
Position2: "'cpsp' Capital Spacing lookup 3 subtable" dx=10 dy=0 dh=20 dv=0
EndChar

StartChar: AE
Encoding: 198 198 12
Width: 1443
Flags: MW
HStem: 0 162<1014 1399> 334 162<401 676 401 676 334 676> 612 164<1014 1323 1014 1323> 1190 162<1014 1384 1014 1014>
VStem: 676 338<162 334 334 334 496 612 776 1171 1171 1171>
LayerCount: 2
UndoRedoHistory
Layer: 1
Undoes
EndUndoes
Redoes
EndRedoes
EndUndoRedoHistory
Fore
SplineSet
1384 1190 m 1,0,-1
 1014 1190 l 1,1,-1
 1014 776 l 1,2,-1
 1323 776 l 1,3,-1
 1323 612 l 1,4,-1
 1014 612 l 1,5,-1
 1014 162 l 1,6,-1
 1413 162 l 1,7,-1
 1399 0 l 1,8,-1
 676 0 l 1,9,-1
 676 334 l 1,10,-1
 334 334 l 1,11,-1
 197 0 l 1,12,-1
 -59 0 l 1,13,-1
 545 1352 l 1,14,-1
 1384 1352 l 1,15,-1
 1384 1190 l 1,0,-1
401 496 m 1,16,-1
 676 496 l 1,17,-1
 676 1171 l 1,18,-1
 401 496 l 1,16,-1
EndSplineSet
Validated: 1
Position2: "'cpsp' Capital Spacing lookup 3 subtable" dx=10 dy=0 dh=20 dv=0
EndChar

StartChar: AEacute
Encoding: 508 508 13
Width: 1443
Flags: MW
HStem: 0 162<1014 1399> 334 162<401 676 401 676 334 676> 612 164<1014 1323 1014 1323> 1190 162<1014 1014 1014 1384>
VStem: 676 338<162 334 334 334 496 612 776 1171 1171 1171>
LayerCount: 2
UndoRedoHistory
Layer: 1
Undoes
EndUndoes
Redoes
EndRedoes
EndUndoRedoHistory
Fore
SplineSet
1044 1741 m 1,0,1
 1074 1717 1074 1717 1093 1682.5 c 128,-1,2
 1112 1648 1112 1648 1112 1614 c 0,3,4
 1112 1585 1112 1585 1102.5 1563 c 128,-1,5
 1093 1541 1093 1541 1072.5 1526.5 c 128,-1,6
 1052 1512 1052 1512 1032 1503 c 128,-1,7
 1012 1494 1012 1494 979.5 1488 c 128,-1,8
 947 1482 947 1482 925.5 1480 c 128,-1,9
 904 1478 904 1478 868 1475 c 2,10,-1
 598 1454 l 1,11,-1
 573 1550 l 1,12,-1
 1044 1741 l 1,0,1
1014 1190 m 1,13,-1
 1014 776 l 1,14,-1
 1323 776 l 1,15,-1
 1323 612 l 1,16,-1
 1014 612 l 1,17,-1
 1014 162 l 1,18,-1
 1413 162 l 1,19,-1
 1399 0 l 1,20,-1
 676 0 l 1,21,-1
 676 334 l 1,22,-1
 334 334 l 1,23,-1
 197 0 l 1,24,-1
 -59 0 l 1,25,-1
 545 1352 l 1,26,-1
 1384 1352 l 1,27,-1
 1384 1190 l 1,28,-1
 1014 1190 l 1,13,-1
676 496 m 1,29,-1
 676 1171 l 1,30,-1
 401 496 l 1,31,-1
 676 496 l 1,29,-1
EndSplineSet
Validated: 1
Position2: "'cpsp' Capital Spacing lookup 3 subtable" dx=10 dy=0 dh=20 dv=0
EndChar

StartChar: B
Encoding: 66 66 14
Width: 1191
Flags: MW
HStem: -20 147<544 645 544 708> 651 137<520 605 520 622> 1212 150<542 623>
VStem: 113 340<139 139 139 647 795 1202> 745 301<977 1083> 809 342<306 484>
LayerCount: 2
UndoRedoHistory
Layer: 1
Undoes
EndUndoes
Redoes
EndRedoes
EndUndoRedoHistory
Fore
SplineSet
113 1339 m 1,0,1
 387 1362 387 1362 567 1362 c 0,2,3
 650 1362 650 1362 717 1354 c 128,-1,4
 784 1346 784 1346 847.5 1324 c 128,-1,5
 911 1302 911 1302 953.5 1266.5 c 128,-1,6
 996 1231 996 1231 1021.5 1173.5 c 128,-1,7
 1047 1116 1047 1116 1047 1040 c 0,8,9
 1047 947 1047 947 989.5 871.5 c 128,-1,10
 932 796 932 796 842 760 c 1,11,12
 990 732 990 732 1070.5 638 c 128,-1,13
 1151 544 1151 544 1151 395 c 0,14,15
 1151 309 1151 309 1118 238.5 c 128,-1,16
 1085 168 1085 168 1028.5 120.5 c 128,-1,17
 972 73 972 73 895.5 41 c 128,-1,18
 819 9 819 9 735 -5.5 c 128,-1,19
 651 -20 651 -20 559 -20 c 0,20,21
 349 -20 349 -20 113 8 c 1,22,-1
 113 1339 l 1,0,1
453 795 m 1,23,24
 493 788 493 788 532 788 c 0,25,26
 639 788 639 788 692 848 c 128,-1,27
 745 908 745 908 745 1020 c 0,28,29
 745 1212 745 1212 559 1212 c 0,30,31
 508 1212 508 1212 453 1202 c 1,32,-1
 453 795 l 1,23,24
453 139 m 1,33,34
 508 127 508 127 563 127 c 0,35,36
 685 127 685 127 747 195 c 128,-1,37
 809 263 809 263 809 389 c 0,38,39
 809 529 809 529 740 590 c 128,-1,40
 671 651 671 651 526 651 c 0,41,42
 493 651 493 651 453 647 c 1,43,-1
 453 139 l 1,33,34
EndSplineSet
Validated: 1
Position2: "'cpsp' Capital Spacing lookup 3 subtable" dx=10 dy=0 dh=20 dv=0
EndChar

StartChar: C
Encoding: 67 67 15
Width: 1126
Flags: MW
HStem: -45 244<590 746> 1245 147<534 693>
VStem: 55 365<581 815 581 882> 786 299<1044 1095>
LayerCount: 2
UndoRedoHistory
Layer: 1
Undoes
EndUndoes
Redoes
EndRedoes
EndUndoRedoHistory
Fore
SplineSet
635 1245 m 0,0,1
 593 1245 593 1245 559.5 1225.5 c 128,-1,2
 526 1206 526 1206 503.5 1176 c 128,-1,3
 481 1146 481 1146 465 1099 c 128,-1,4
 449 1052 449 1052 440.5 1008.5 c 128,-1,5
 432 965 432 965 427 907.5 c 128,-1,6
 422 850 422 850 421 808.5 c 128,-1,7
 420 767 420 767 420 715 c 0,8,9
 420 628 420 628 426.5 558 c 128,-1,10
 433 488 433 488 452.5 418.5 c 128,-1,11
 472 349 472 349 503.5 302.5 c 128,-1,12
 535 256 535 256 588.5 227.5 c 128,-1,13
 642 199 642 199 713 199 c 0,14,15
 913 199 913 199 997 397 c 1,16,17
 1077 358 1077 358 1077 262 c 0,18,19
 1077 187 1077 187 1038.5 127 c 128,-1,20
 1000 67 1000 67 937 30.5 c 128,-1,21
 874 -6 874 -6 798.5 -25.5 c 128,-1,22
 723 -45 723 -45 643 -45 c 0,23,24
 517 -45 517 -45 416.5 -8.5 c 128,-1,25
 316 28 316 28 249 91.5 c 128,-1,26
 182 155 182 155 138 246 c 128,-1,27
 94 337 94 337 74.5 441 c 128,-1,28
 55 545 55 545 55 668 c 0,29,30
 55 832 55 832 89.5 962.5 c 128,-1,31
 124 1093 124 1093 195.5 1190.5 c 128,-1,32
 267 1288 267 1288 384 1340.5 c 128,-1,33
 501 1393 501 1393 657 1393 c 0,34,35
 745 1393 745 1393 818 1378.5 c 128,-1,36
 891 1364 891 1364 953 1332 c 128,-1,37
 1015 1300 1015 1300 1050 1242.5 c 128,-1,38
 1085 1185 1085 1185 1085 1106 c 0,39,40
 1085 1015 1085 1015 1027.5 960 c 128,-1,41
 970 905 970 905 879 905 c 0,42,43
 814 905 814 905 772 928 c 1,44,45
 786 993 786 993 786 1036 c 0,46,47
 786 1245 786 1245 635 1245 c 0,0,1
EndSplineSet
Validated: 1
Position2: "'cpsp' Capital Spacing lookup 3 subtable" dx=10 dy=0 dh=20 dv=0
EndChar

StartChar: Cacute
Encoding: 262 262 16
Width: 1126
Flags: MW
HStem: -45 244<590 746> 1245 147<534 693>
VStem: 55 365<581 815 581 882> 786 299<1044 1095>
LayerCount: 2
UndoRedoHistory
Layer: 1
Undoes
EndUndoes
Redoes
EndRedoes
EndUndoRedoHistory
Fore
SplineSet
920 1739 m 1,0,1
 950 1715 950 1715 968.5 1681 c 128,-1,2
 987 1647 987 1647 987 1612 c 0,3,4
 987 1583 987 1583 977.5 1561 c 128,-1,5
 968 1539 968 1539 947.5 1524.5 c 128,-1,6
 927 1510 927 1510 907 1501 c 128,-1,7
 887 1492 887 1492 854.5 1486 c 128,-1,8
 822 1480 822 1480 800.5 1478 c 128,-1,9
 779 1476 779 1476 743 1473 c 2,10,-1
 473 1452 l 1,11,-1
 449 1548 l 1,12,-1
 920 1739 l 1,0,1
635 1245 m 0,13,14
 593 1245 593 1245 559.5 1225.5 c 128,-1,15
 526 1206 526 1206 503.5 1176 c 128,-1,16
 481 1146 481 1146 465 1099 c 128,-1,17
 449 1052 449 1052 440.5 1008.5 c 128,-1,18
 432 965 432 965 427 907.5 c 128,-1,19
 422 850 422 850 421 808.5 c 128,-1,20
 420 767 420 767 420 715 c 0,21,22
 420 628 420 628 426.5 558 c 128,-1,23
 433 488 433 488 452.5 418.5 c 128,-1,24
 472 349 472 349 503.5 302.5 c 128,-1,25
 535 256 535 256 588.5 227.5 c 128,-1,26
 642 199 642 199 713 199 c 0,27,28
 913 199 913 199 997 397 c 1,29,30
 1077 358 1077 358 1077 262 c 0,31,32
 1077 187 1077 187 1038.5 127 c 128,-1,33
 1000 67 1000 67 937 30.5 c 128,-1,34
 874 -6 874 -6 798.5 -25.5 c 128,-1,35
 723 -45 723 -45 643 -45 c 0,36,37
 517 -45 517 -45 416.5 -8.5 c 128,-1,38
 316 28 316 28 249 91.5 c 128,-1,39
 182 155 182 155 138 246 c 128,-1,40
 94 337 94 337 74.5 441 c 128,-1,41
 55 545 55 545 55 668 c 0,42,43
 55 832 55 832 89.5 962.5 c 128,-1,44
 124 1093 124 1093 195.5 1190.5 c 128,-1,45
 267 1288 267 1288 384 1340.5 c 128,-1,46
 501 1393 501 1393 657 1393 c 0,47,48
 745 1393 745 1393 818 1378.5 c 128,-1,49
 891 1364 891 1364 953 1332 c 128,-1,50
 1015 1300 1015 1300 1050 1242.5 c 128,-1,51
 1085 1185 1085 1185 1085 1106 c 0,52,53
 1085 1015 1085 1015 1027.5 960 c 128,-1,54
 970 905 970 905 879 905 c 0,55,56
 814 905 814 905 772 928 c 1,57,58
 786 993 786 993 786 1036 c 0,59,60
 786 1245 786 1245 635 1245 c 0,13,14
EndSplineSet
Validated: 1
Substitution2: "'locl' Localized Forms in Latin lookup 13 subtable" Cacute.loclPLK
Substitution2: "'aalt' Access All Alternates lookup 0 subtable" Cacute.loclPLK
Position2: "'cpsp' Capital Spacing lookup 3 subtable" dx=10 dy=0 dh=20 dv=0
EndChar

StartChar: Ccaron
Encoding: 268 268 17
Width: 1126
Flags: MW
HStem: -45 244<590 746> 1245 147<534 693>
VStem: 55 365<581 815 581 882> 786 299<1044 1095>
LayerCount: 2
UndoRedoHistory
Layer: 1
Undoes
EndUndoes
Redoes
EndRedoes
EndUndoRedoHistory
Fore
SplineSet
963 1649 m 1,0,-1
 670 1415 l 1,1,-1
 600 1415 l 1,2,-1
 301 1649 l 1,3,-1
 371 1733 l 1,4,-1
 633 1616 l 1,5,-1
 893 1733 l 1,6,-1
 963 1649 l 1,0,-1
635 1245 m 0,7,8
 593 1245 593 1245 559.5 1225.5 c 128,-1,9
 526 1206 526 1206 503.5 1176 c 128,-1,10
 481 1146 481 1146 465 1099 c 128,-1,11
 449 1052 449 1052 440.5 1008.5 c 128,-1,12
 432 965 432 965 427 907.5 c 128,-1,13
 422 850 422 850 421 808.5 c 128,-1,14
 420 767 420 767 420 715 c 0,15,16
 420 628 420 628 426.5 558 c 128,-1,17
 433 488 433 488 452.5 418.5 c 128,-1,18
 472 349 472 349 503.5 302.5 c 128,-1,19
 535 256 535 256 588.5 227.5 c 128,-1,20
 642 199 642 199 713 199 c 0,21,22
 913 199 913 199 997 397 c 1,23,24
 1077 358 1077 358 1077 262 c 0,25,26
 1077 187 1077 187 1038.5 127 c 128,-1,27
 1000 67 1000 67 937 30.5 c 128,-1,28
 874 -6 874 -6 798.5 -25.5 c 128,-1,29
 723 -45 723 -45 643 -45 c 0,30,31
 517 -45 517 -45 416.5 -8.5 c 128,-1,32
 316 28 316 28 249 91.5 c 128,-1,33
 182 155 182 155 138 246 c 128,-1,34
 94 337 94 337 74.5 441 c 128,-1,35
 55 545 55 545 55 668 c 0,36,37
 55 832 55 832 89.5 962.5 c 128,-1,38
 124 1093 124 1093 195.5 1190.5 c 128,-1,39
 267 1288 267 1288 384 1340.5 c 128,-1,40
 501 1393 501 1393 657 1393 c 0,41,42
 745 1393 745 1393 818 1378.5 c 128,-1,43
 891 1364 891 1364 953 1332 c 128,-1,44
 1015 1300 1015 1300 1050 1242.5 c 128,-1,45
 1085 1185 1085 1185 1085 1106 c 0,46,47
 1085 1015 1085 1015 1027.5 960 c 128,-1,48
 970 905 970 905 879 905 c 0,49,50
 814 905 814 905 772 928 c 1,51,52
 786 993 786 993 786 1036 c 0,53,54
 786 1245 786 1245 635 1245 c 0,7,8
EndSplineSet
Validated: 1
Position2: "'cpsp' Capital Spacing lookup 3 subtable" dx=10 dy=0 dh=20 dv=0
EndChar

StartChar: Ccedilla
Encoding: 199 199 18
Width: 1126
Flags: MW
HStem: -524 125<581 620 557 694> -225 102<534 735> -45 244<641 643 641 641> 1245 147<534 693>
VStem: 55 365<581 815 581 882> 698 207<-343 -279> 786 299<1044 1095>
LayerCount: 2
UndoRedoHistory
Layer: 1
Undoes
EndUndoes
Redoes
EndRedoes
EndUndoRedoHistory
Fore
SplineSet
535 -37 m 1,0,1
 407 -19 407 -19 313 42 c 128,-1,2
 219 103 219 103 163.5 199 c 128,-1,3
 108 295 108 295 81.5 411.5 c 128,-1,4
 55 528 55 528 55 668 c 0,5,6
 55 832 55 832 89.5 962.5 c 128,-1,7
 124 1093 124 1093 195.5 1190.5 c 128,-1,8
 267 1288 267 1288 384 1340.5 c 128,-1,9
 501 1393 501 1393 657 1393 c 0,10,11
 745 1393 745 1393 818 1378.5 c 128,-1,12
 891 1364 891 1364 953 1332 c 128,-1,13
 1015 1300 1015 1300 1050 1242.5 c 128,-1,14
 1085 1185 1085 1185 1085 1106 c 0,15,16
 1085 1015 1085 1015 1027.5 960 c 128,-1,17
 970 905 970 905 879 905 c 0,18,19
 814 905 814 905 772 928 c 1,20,21
 786 993 786 993 786 1036 c 0,22,23
 786 1245 786 1245 635 1245 c 0,24,25
 593 1245 593 1245 559.5 1225.5 c 128,-1,26
 526 1206 526 1206 503.5 1176 c 128,-1,27
 481 1146 481 1146 465 1099 c 128,-1,28
 449 1052 449 1052 440.5 1008.5 c 128,-1,29
 432 965 432 965 427 907.5 c 128,-1,30
 422 850 422 850 421 808.5 c 128,-1,31
 420 767 420 767 420 715 c 0,32,33
 420 628 420 628 426.5 558 c 128,-1,34
 433 488 433 488 452.5 418.5 c 128,-1,35
 472 349 472 349 503.5 302.5 c 128,-1,36
 535 256 535 256 588.5 227.5 c 128,-1,37
 642 199 642 199 713 199 c 0,38,39
 913 199 913 199 997 397 c 1,40,41
 1077 358 1077 358 1077 262 c 0,42,43
 1077 187 1077 187 1038.5 127 c 128,-1,44
 1000 67 1000 67 937 30.5 c 128,-1,45
 874 -6 874 -6 798.5 -25.5 c 128,-1,46
 723 -45 723 -45 643 -45 c 2,47,-1
 641 -45 l 1,48,-1
 608 -125 l 1,49,50
 628 -123 628 -123 666 -123 c 0,51,52
 776 -123 776 -123 840.5 -170 c 128,-1,53
 905 -217 905 -217 905 -315 c 0,54,55
 905 -411 905 -411 821 -467.5 c 128,-1,56
 737 -524 737 -524 623 -524 c 0,57,58
 588 -524 588 -524 554.5 -518.5 c 128,-1,59
 521 -513 521 -513 488.5 -500 c 128,-1,60
 456 -487 456 -487 436 -462 c 128,-1,61
 416 -437 416 -437 416 -403 c 0,62,63
 416 -360 416 -360 438 -338 c 1,64,65
 490 -399 490 -399 592 -399 c 0,66,67
 636 -399 636 -399 667 -376.5 c 128,-1,68
 698 -354 698 -354 698 -315 c 0,69,70
 698 -225 698 -225 547 -225 c 0,71,72
 504 -225 504 -225 463 -231 c 1,73,-1
 535 -37 l 1,0,1
EndSplineSet
Validated: 1
Position2: "'cpsp' Capital Spacing lookup 3 subtable" dx=10 dy=0 dh=20 dv=0
EndChar

StartChar: Ccircumflex
Encoding: 264 264 19
Width: 1126
Flags: MW
HStem: -45 244<590 746> 1245 147<534 693> 1430 41G<303 303 965 965>
VStem: 55 365<581 815 581 882> 786 299<1044 1095>
LayerCount: 2
UndoRedoHistory
Layer: 1
Undoes
EndUndoes
Redoes
EndRedoes
EndUndoRedoHistory
Fore
SplineSet
303 1470 m 1,0,-1
 606 1724 l 1,1,-1
 655 1724 l 1,2,-1
 965 1470 l 1,3,-1
 895 1386 l 1,4,-1
 633 1513 l 1,5,-1
 373 1386 l 1,6,-1
 303 1470 l 1,0,-1
635 1245 m 0,7,8
 593 1245 593 1245 559.5 1225.5 c 128,-1,9
 526 1206 526 1206 503.5 1176 c 128,-1,10
 481 1146 481 1146 465 1099 c 128,-1,11
 449 1052 449 1052 440.5 1008.5 c 128,-1,12
 432 965 432 965 427 907.5 c 128,-1,13
 422 850 422 850 421 808.5 c 128,-1,14
 420 767 420 767 420 715 c 0,15,16
 420 628 420 628 426.5 558 c 128,-1,17
 433 488 433 488 452.5 418.5 c 128,-1,18
 472 349 472 349 503.5 302.5 c 128,-1,19
 535 256 535 256 588.5 227.5 c 128,-1,20
 642 199 642 199 713 199 c 0,21,22
 913 199 913 199 997 397 c 1,23,24
 1077 358 1077 358 1077 262 c 0,25,26
 1077 187 1077 187 1038.5 127 c 128,-1,27
 1000 67 1000 67 937 30.5 c 128,-1,28
 874 -6 874 -6 798.5 -25.5 c 128,-1,29
 723 -45 723 -45 643 -45 c 0,30,31
 517 -45 517 -45 416.5 -8.5 c 128,-1,32
 316 28 316 28 249 91.5 c 128,-1,33
 182 155 182 155 138 246 c 128,-1,34
 94 337 94 337 74.5 441 c 128,-1,35
 55 545 55 545 55 668 c 0,36,37
 55 832 55 832 89.5 962.5 c 128,-1,38
 124 1093 124 1093 195.5 1190.5 c 128,-1,39
 267 1288 267 1288 384 1340.5 c 128,-1,40
 501 1393 501 1393 657 1393 c 0,41,42
 745 1393 745 1393 818 1378.5 c 128,-1,43
 891 1364 891 1364 953 1332 c 128,-1,44
 1015 1300 1015 1300 1050 1242.5 c 128,-1,45
 1085 1185 1085 1185 1085 1106 c 0,46,47
 1085 1015 1085 1015 1027.5 960 c 128,-1,48
 970 905 970 905 879 905 c 0,49,50
 814 905 814 905 772 928 c 1,51,52
 786 993 786 993 786 1036 c 0,53,54
 786 1245 786 1245 635 1245 c 0,7,8
EndSplineSet
Validated: 1
Position2: "'cpsp' Capital Spacing lookup 3 subtable" dx=10 dy=0 dh=20 dv=0
EndChar

StartChar: Cdotaccent
Encoding: 266 266 20
Width: 1126
Flags: MW
HStem: -45 244<590 746> 1245 147<534 693> 1499 295<590 690>
VStem: 55 365<581 815 581 882> 451 377<1597 1692> 786 299<1044 1095>
LayerCount: 2
UndoRedoHistory
Layer: 1
Undoes
EndUndoes
Redoes
EndRedoes
EndUndoRedoHistory
Fore
SplineSet
643 1794 m 128,-1,1
 726 1794 726 1794 776.5 1755 c 128,-1,2
 827 1716 827 1716 827 1647 c 0,3,4
 827 1576 827 1576 773.5 1537.5 c 128,-1,5
 720 1499 720 1499 637 1499 c 128,-1,6
 554 1499 554 1499 502.5 1536.5 c 128,-1,7
 451 1574 451 1574 451 1642 c 0,8,9
 451 1713 451 1713 505.5 1753.5 c 128,-1,0
 560 1794 560 1794 643 1794 c 128,-1,1
635 1245 m 0,10,11
 593 1245 593 1245 559.5 1225.5 c 128,-1,12
 526 1206 526 1206 503.5 1176 c 128,-1,13
 481 1146 481 1146 465 1099 c 128,-1,14
 449 1052 449 1052 440.5 1008.5 c 128,-1,15
 432 965 432 965 427 907.5 c 128,-1,16
 422 850 422 850 421 808.5 c 128,-1,17
 420 767 420 767 420 715 c 0,18,19
 420 628 420 628 426.5 558 c 128,-1,20
 433 488 433 488 452.5 418.5 c 128,-1,21
 472 349 472 349 503.5 302.5 c 128,-1,22
 535 256 535 256 588.5 227.5 c 128,-1,23
 642 199 642 199 713 199 c 0,24,25
 913 199 913 199 997 397 c 1,26,27
 1077 358 1077 358 1077 262 c 0,28,29
 1077 187 1077 187 1038.5 127 c 128,-1,30
 1000 67 1000 67 937 30.5 c 128,-1,31
 874 -6 874 -6 798.5 -25.5 c 128,-1,32
 723 -45 723 -45 643 -45 c 0,33,34
 517 -45 517 -45 416.5 -8.5 c 128,-1,35
 316 28 316 28 249 91.5 c 128,-1,36
 182 155 182 155 138 246 c 128,-1,37
 94 337 94 337 74.5 441 c 128,-1,38
 55 545 55 545 55 668 c 0,39,40
 55 832 55 832 89.5 962.5 c 128,-1,41
 124 1093 124 1093 195.5 1190.5 c 128,-1,42
 267 1288 267 1288 384 1340.5 c 128,-1,43
 501 1393 501 1393 657 1393 c 0,44,45
 745 1393 745 1393 818 1378.5 c 128,-1,46
 891 1364 891 1364 953 1332 c 128,-1,47
 1015 1300 1015 1300 1050 1242.5 c 128,-1,48
 1085 1185 1085 1185 1085 1106 c 0,49,50
 1085 1015 1085 1015 1027.5 960 c 128,-1,51
 970 905 970 905 879 905 c 0,52,53
 814 905 814 905 772 928 c 1,54,55
 786 993 786 993 786 1036 c 0,56,57
 786 1245 786 1245 635 1245 c 0,10,11
EndSplineSet
Validated: 1
Position2: "'cpsp' Capital Spacing lookup 3 subtable" dx=10 dy=0 dh=20 dv=0
EndChar

StartChar: D
Encoding: 68 68 21
Width: 1257
Flags: MW
HStem: -20 147<552 693 552 782> 1212 150<565 698>
VStem: 113 340<141 141 141 1200> 842 360<544 808>
LayerCount: 2
UndoRedoHistory
Layer: 1
Undoes
EndUndoes
Redoes
EndRedoes
EndUndoRedoHistory
Fore
SplineSet
113 1339 m 1,0,1
 387 1362 387 1362 596 1362 c 0,2,3
 907 1362 907 1362 1054.5 1194 c 128,-1,4
 1202 1026 1202 1026 1202 700 c 0,5,6
 1202 355 1202 355 1043.5 167.5 c 128,-1,7
 885 -20 885 -20 559 -20 c 0,8,9
 349 -20 349 -20 113 8 c 1,10,-1
 113 1339 l 1,0,1
453 141 m 1,11,12
 510 127 510 127 573 127 c 0,13,14
 623 127 623 127 663.5 144 c 128,-1,15
 704 161 704 161 731.5 188.5 c 128,-1,16
 759 216 759 216 779.5 259 c 128,-1,17
 800 302 800 302 812 347 c 128,-1,18
 824 392 824 392 831 451.5 c 128,-1,19
 838 511 838 511 840 563.5 c 128,-1,20
 842 616 842 616 842 682 c 0,21,22
 842 751 842 751 838 809.5 c 128,-1,23
 834 868 834 868 825 931 c 128,-1,24
 816 994 816 994 797.5 1042 c 128,-1,25
 779 1090 779 1090 752 1130 c 128,-1,26
 725 1170 725 1170 684 1191 c 128,-1,27
 643 1212 643 1212 590 1212 c 0,28,29
 526 1212 526 1212 453 1200 c 1,30,-1
 453 141 l 1,11,12
EndSplineSet
Validated: 1
Position2: "'cpsp' Capital Spacing lookup 3 subtable" dx=10 dy=0 dh=20 dv=0
EndChar

StartChar: DZ
Encoding: 497 497 22
Width: 2179
Flags: MW
HStem: -20 147<552 693 552 782> 0 168<1632 2161> 1184 168<1315 1792 1309 2142> 1212 150<565 698>
VStem: 113 340<141 141 141 1200> 842 360<544 808>
LayerCount: 2
UndoRedoHistory
Layer: 1
Undoes
EndUndoes
Redoes
EndRedoes
EndUndoRedoHistory
Fore
SplineSet
113 1339 m 1,0,1
 387 1362 387 1362 596 1362 c 0,2,3
 907 1362 907 1362 1054.5 1194 c 128,-1,4
 1202 1026 1202 1026 1202 700 c 0,5,6
 1202 355 1202 355 1043.5 167.5 c 128,-1,7
 885 -20 885 -20 559 -20 c 0,8,9
 349 -20 349 -20 113 8 c 1,10,-1
 113 1339 l 1,0,1
2157 1198 m 1,11,-1
 1632 168 l 1,12,-1
 2177 168 l 1,13,-1
 2161 0 l 1,14,-1
 1284 0 l 1,15,-1
 1270 154 l 1,16,-1
 1792 1184 l 1,17,-1
 1309 1184 l 1,18,-1
 1315 1352 l 1,19,-1
 2142 1352 l 1,20,-1
 2157 1198 l 1,11,-1
453 141 m 1,21,22
 510 127 510 127 573 127 c 0,23,24
 623 127 623 127 663.5 144 c 128,-1,25
 704 161 704 161 731.5 188.5 c 128,-1,26
 759 216 759 216 779.5 259 c 128,-1,27
 800 302 800 302 812 347 c 128,-1,28
 824 392 824 392 831 451.5 c 128,-1,29
 838 511 838 511 840 563.5 c 128,-1,30
 842 616 842 616 842 682 c 0,31,32
 842 751 842 751 838 809.5 c 128,-1,33
 834 868 834 868 825 931 c 128,-1,34
 816 994 816 994 797.5 1042 c 128,-1,35
 779 1090 779 1090 752 1130 c 128,-1,36
 725 1170 725 1170 684 1191 c 128,-1,37
 643 1212 643 1212 590 1212 c 0,38,39
 526 1212 526 1212 453 1200 c 1,40,-1
 453 141 l 1,21,22
EndSplineSet
Validated: 1
Position2: "'cpsp' Capital Spacing lookup 3 subtable" dx=10 dy=0 dh=20 dv=0
EndChar

StartChar: DZcaron
Encoding: 452 452 23
Width: 2179
Flags: MW
HStem: -20 147<552 693 552 782> 0 168<1632 2161> 1184 168<1315 1792 1309 2142> 1212 150<565 698>
VStem: 113 340<141 141 141 1200> 842 360<544 808>
LayerCount: 2
UndoRedoHistory
Layer: 1
Undoes
EndUndoes
Redoes
EndRedoes
EndUndoRedoHistory
Fore
SplineSet
2048 1649 m 1,0,-1
 1755 1415 l 1,1,-1
 1686 1415 l 1,2,-1
 1386 1649 l 1,3,-1
 1456 1733 l 1,4,-1
 1718 1616 l 1,5,-1
 1978 1733 l 1,6,-1
 2048 1649 l 1,0,-1
113 1339 m 1,7,8
 387 1362 387 1362 596 1362 c 0,9,10
 907 1362 907 1362 1054.5 1194 c 128,-1,11
 1202 1026 1202 1026 1202 700 c 0,12,13
 1202 355 1202 355 1043.5 167.5 c 128,-1,14
 885 -20 885 -20 559 -20 c 0,15,16
 349 -20 349 -20 113 8 c 1,17,-1
 113 1339 l 1,7,8
2157 1198 m 1,18,-1
 1632 168 l 1,19,-1
 2177 168 l 1,20,-1
 2161 0 l 1,21,-1
 1284 0 l 1,22,-1
 1270 154 l 1,23,-1
 1792 1184 l 1,24,-1
 1309 1184 l 1,25,-1
 1315 1352 l 1,26,-1
 2142 1352 l 1,27,-1
 2157 1198 l 1,18,-1
453 141 m 1,28,29
 510 127 510 127 573 127 c 0,30,31
 623 127 623 127 663.5 144 c 128,-1,32
 704 161 704 161 731.5 188.5 c 128,-1,33
 759 216 759 216 779.5 259 c 128,-1,34
 800 302 800 302 812 347 c 128,-1,35
 824 392 824 392 831 451.5 c 128,-1,36
 838 511 838 511 840 563.5 c 128,-1,37
 842 616 842 616 842 682 c 0,38,39
 842 751 842 751 838 809.5 c 128,-1,40
 834 868 834 868 825 931 c 128,-1,41
 816 994 816 994 797.5 1042 c 128,-1,42
 779 1090 779 1090 752 1130 c 128,-1,43
 725 1170 725 1170 684 1191 c 128,-1,44
 643 1212 643 1212 590 1212 c 0,45,46
 526 1212 526 1212 453 1200 c 1,47,-1
 453 141 l 1,28,29
EndSplineSet
Validated: 1
Position2: "'cpsp' Capital Spacing lookup 3 subtable" dx=10 dy=0 dh=20 dv=0
EndChar

StartChar: Eth
Encoding: 208 208 24
Width: 1267
Flags: MW
HStem: -20 147<562 703 562 793> 600 178<102 123 102 123 -8 123 463 580> 1212 150<575 709>
VStem: 123 340<141 141 141 600 778 1200> 852 360<544 808>
LayerCount: 2
UndoRedoHistory
Layer: 1
Undoes
EndUndoes
Redoes
EndRedoes
EndUndoRedoHistory
Fore
SplineSet
123 1339 m 1,0,1
 397 1362 397 1362 606 1362 c 0,2,3
 917 1362 917 1362 1064.5 1194 c 128,-1,4
 1212 1026 1212 1026 1212 700 c 0,5,6
 1212 355 1212 355 1053.5 167.5 c 128,-1,7
 895 -20 895 -20 569 -20 c 0,8,9
 359 -20 359 -20 123 8 c 1,10,-1
 123 600 l 1,11,-1
 -8 600 l 1,12,13
 -20 624 -20 624 -20 670 c 0,14,15
 -20 778 -20 778 102 778 c 2,16,-1
 123 778 l 1,17,-1
 123 1339 l 1,0,1
463 141 m 1,18,19
 520 127 520 127 584 127 c 0,20,21
 642 127 642 127 687 148 c 128,-1,22
 732 169 732 169 760.5 210.5 c 128,-1,23
 789 252 789 252 808 300.5 c 128,-1,24
 827 349 827 349 836 416.5 c 128,-1,25
 845 484 845 484 848.5 544 c 128,-1,26
 852 604 852 604 852 682 c 0,27,28
 852 751 852 751 848 809.5 c 128,-1,29
 844 868 844 868 835 931 c 128,-1,30
 826 994 826 994 807.5 1042 c 128,-1,31
 789 1090 789 1090 762 1130 c 128,-1,32
 735 1170 735 1170 694 1191 c 128,-1,33
 653 1212 653 1212 600 1212 c 0,34,35
 536 1212 536 1212 463 1200 c 1,36,-1
 463 778 l 1,37,-1
 692 778 l 1,38,39
 705 746 705 746 705 709 c 0,40,41
 705 600 705 600 580 600 c 2,42,-1
 463 600 l 1,43,-1
 463 141 l 1,18,19
EndSplineSet
Validated: 1
Position2: "'cpsp' Capital Spacing lookup 3 subtable" dx=10 dy=0 dh=20 dv=0
EndChar

StartChar: Dcaron
Encoding: 270 270 25
Width: 1257
Flags: MW
HStem: -20 147<552 693 552 782> 1212 150<565 698>
VStem: 113 340<141 141 141 1200> 842 360<544 808>
LayerCount: 2
UndoRedoHistory
Layer: 1
Undoes
EndUndoes
Redoes
EndRedoes
EndUndoRedoHistory
Fore
SplineSet
924 1649 m 1,0,-1
 631 1415 l 1,1,-1
 561 1415 l 1,2,-1
 262 1649 l 1,3,-1
 332 1733 l 1,4,-1
 594 1616 l 1,5,-1
 854 1733 l 1,6,-1
 924 1649 l 1,0,-1
113 1339 m 1,7,8
 387 1362 387 1362 596 1362 c 0,9,10
 907 1362 907 1362 1054.5 1194 c 128,-1,11
 1202 1026 1202 1026 1202 700 c 0,12,13
 1202 355 1202 355 1043.5 167.5 c 128,-1,14
 885 -20 885 -20 559 -20 c 0,15,16
 349 -20 349 -20 113 8 c 1,17,-1
 113 1339 l 1,7,8
453 141 m 1,18,19
 510 127 510 127 573 127 c 0,20,21
 623 127 623 127 663.5 144 c 128,-1,22
 704 161 704 161 731.5 188.5 c 128,-1,23
 759 216 759 216 779.5 259 c 128,-1,24
 800 302 800 302 812 347 c 128,-1,25
 824 392 824 392 831 451.5 c 128,-1,26
 838 511 838 511 840 563.5 c 128,-1,27
 842 616 842 616 842 682 c 0,28,29
 842 751 842 751 838 809.5 c 128,-1,30
 834 868 834 868 825 931 c 128,-1,31
 816 994 816 994 797.5 1042 c 128,-1,32
 779 1090 779 1090 752 1130 c 128,-1,33
 725 1170 725 1170 684 1191 c 128,-1,34
 643 1212 643 1212 590 1212 c 0,35,36
 526 1212 526 1212 453 1200 c 1,37,-1
 453 141 l 1,18,19
EndSplineSet
Validated: 1
Position2: "'cpsp' Capital Spacing lookup 3 subtable" dx=10 dy=0 dh=20 dv=0
EndChar

StartChar: Dcroat
Encoding: 272 272 26
Width: 1267
Flags: MW
HStem: -20 147<562 703 562 793> 600 178<102 123 102 123 -8 123 463 580> 1212 150<575 709>
VStem: 123 340<141 141 141 600 778 1200> 852 360<544 808>
LayerCount: 2
UndoRedoHistory
Layer: 1
Undoes
EndUndoes
Redoes
EndRedoes
EndUndoRedoHistory
Fore
SplineSet
123 1339 m 1,0,1
 397 1362 397 1362 606 1362 c 0,2,3
 917 1362 917 1362 1064.5 1194 c 128,-1,4
 1212 1026 1212 1026 1212 700 c 0,5,6
 1212 355 1212 355 1053.5 167.5 c 128,-1,7
 895 -20 895 -20 569 -20 c 0,8,9
 359 -20 359 -20 123 8 c 1,10,-1
 123 600 l 1,11,-1
 -8 600 l 1,12,13
 -20 624 -20 624 -20 670 c 0,14,15
 -20 778 -20 778 102 778 c 2,16,-1
 123 778 l 1,17,-1
 123 1339 l 1,0,1
463 141 m 1,18,19
 520 127 520 127 584 127 c 0,20,21
 642 127 642 127 687 148 c 128,-1,22
 732 169 732 169 760.5 210.5 c 128,-1,23
 789 252 789 252 808 300.5 c 128,-1,24
 827 349 827 349 836 416.5 c 128,-1,25
 845 484 845 484 848.5 544 c 128,-1,26
 852 604 852 604 852 682 c 0,27,28
 852 751 852 751 848 809.5 c 128,-1,29
 844 868 844 868 835 931 c 128,-1,30
 826 994 826 994 807.5 1042 c 128,-1,31
 789 1090 789 1090 762 1130 c 128,-1,32
 735 1170 735 1170 694 1191 c 128,-1,33
 653 1212 653 1212 600 1212 c 0,34,35
 536 1212 536 1212 463 1200 c 1,36,-1
 463 778 l 1,37,-1
 690 778 l 1,38,39
 705 748 705 748 705 709 c 0,40,41
 705 600 705 600 580 600 c 2,42,-1
 463 600 l 1,43,-1
 463 141 l 1,18,19
EndSplineSet
Validated: 1
Position2: "'cpsp' Capital Spacing lookup 3 subtable" dx=10 dy=0 dh=20 dv=0
EndChar

StartChar: Ddotbelow
Encoding: 7692 7692 27
Width: 1257
Flags: MW
HStem: -391 295<539 639> -20 147<552 693 552 782> 1212 150<565 698>
VStem: 113 340<141 141 141 1200> 399 377<-293 -199> 842 360<544 808>
LayerCount: 2
UndoRedoHistory
Layer: 1
Undoes
EndUndoes
Redoes
EndRedoes
EndUndoRedoHistory
Fore
SplineSet
113 1339 m 1,0,1
 387 1362 387 1362 596 1362 c 0,2,3
 907 1362 907 1362 1054.5 1194 c 128,-1,4
 1202 1026 1202 1026 1202 700 c 0,5,6
 1202 355 1202 355 1043.5 167.5 c 128,-1,7
 885 -20 885 -20 559 -20 c 0,8,9
 349 -20 349 -20 113 8 c 1,10,-1
 113 1339 l 1,0,1
453 141 m 1,11,12
 510 127 510 127 573 127 c 0,13,14
 623 127 623 127 663.5 144 c 128,-1,15
 704 161 704 161 731.5 188.5 c 128,-1,16
 759 216 759 216 779.5 259 c 128,-1,17
 800 302 800 302 812 347 c 128,-1,18
 824 392 824 392 831 451.5 c 128,-1,19
 838 511 838 511 840 563.5 c 128,-1,20
 842 616 842 616 842 682 c 0,21,22
 842 751 842 751 838 809.5 c 128,-1,23
 834 868 834 868 825 931 c 128,-1,24
 816 994 816 994 797.5 1042 c 128,-1,25
 779 1090 779 1090 752 1130 c 128,-1,26
 725 1170 725 1170 684 1191 c 128,-1,27
 643 1212 643 1212 590 1212 c 0,28,29
 526 1212 526 1212 453 1200 c 1,30,-1
 453 141 l 1,11,12
592 -96 m 128,-1,32
 675 -96 675 -96 725.5 -135.5 c 128,-1,33
 776 -175 776 -175 776 -244 c 0,34,35
 776 -315 776 -315 722.5 -353 c 128,-1,36
 669 -391 669 -391 586 -391 c 128,-1,37
 503 -391 503 -391 451 -353.5 c 128,-1,38
 399 -316 399 -316 399 -248 c 0,39,40
 399 -177 399 -177 454 -136.5 c 128,-1,31
 509 -96 509 -96 592 -96 c 128,-1,32
EndSplineSet
Validated: 1
Position2: "'cpsp' Capital Spacing lookup 3 subtable" dx=10 dy=0 dh=20 dv=0
EndChar

StartChar: Dz
Encoding: 498 498 28
Width: 2088
Flags: MW
HStem: -20 147<552 693 552 782> 0 167 873 171 1212 150<565 698>
VStem: 113 340<141 141 141 1200> 842 360<544 808>
LayerCount: 2
UndoRedoHistory
Layer: 1
Undoes
EndUndoes
Redoes
EndRedoes
EndUndoRedoHistory
Fore
SplineSet
113 1339 m 1,0,1
 387 1362 387 1362 596 1362 c 0,2,3
 907 1362 907 1362 1054.5 1194 c 128,-1,4
 1202 1026 1202 1026 1202 700 c 0,5,6
 1202 355 1202 355 1043.5 167.5 c 128,-1,7
 885 -20 885 -20 559 -20 c 0,8,9
 349 -20 349 -20 113 8 c 1,10,-1
 113 1339 l 1,0,1
453 141 m 1,11,12
 510 127 510 127 573 127 c 0,13,14
 623 127 623 127 663.5 144 c 128,-1,15
 704 161 704 161 731.5 188.5 c 128,-1,16
 759 216 759 216 779.5 259 c 128,-1,17
 800 302 800 302 812 347 c 128,-1,18
 824 392 824 392 831 451.5 c 128,-1,19
 838 511 838 511 840 563.5 c 128,-1,20
 842 616 842 616 842 682 c 0,21,22
 842 751 842 751 838 809.5 c 128,-1,23
 834 868 834 868 825 931 c 128,-1,24
 816 994 816 994 797.5 1042 c 128,-1,25
 779 1090 779 1090 752 1130 c 128,-1,26
 725 1170 725 1170 684 1191 c 128,-1,27
 643 1212 643 1212 590 1212 c 0,28,29
 526 1212 526 1212 453 1200 c 1,30,-1
 453 141 l 1,11,12
2056 924 m 1,31,-1
 1620 156 l 1,32,-1
 2064 178 l 1,33,-1
 2048 0 l 1,34,-1
 1282 0 l 1,35,-1
 1268 123 l 1,36,-1
 1702 887 l 1,37,-1
 1298 860 l 1,38,-1
 1317 1044 l 1,39,-1
 2042 1044 l 1,40,-1
 2056 924 l 1,31,-1
EndSplineSet
Validated: 1
Position2: "'cpsp' Capital Spacing lookup 3 subtable" dx=10 dy=0 dh=20 dv=0
EndChar

StartChar: Dzcaron
Encoding: 453 453 29
Width: 2088
Flags: MW
HStem: -20 147<552 693 552 782> 0 167 873 171 1212 150<565 698> 1405 41G<1407 1407 1929 1929>
VStem: 113 340<141 141 141 1200> 842 360<544 808>
LayerCount: 2
UndoRedoHistory
Layer: 1
Undoes
EndUndoes
Redoes
EndRedoes
EndUndoRedoHistory
Fore
SplineSet
1999 1362 m 1,0,-1
 1706 1128 l 1,1,-1
 1636 1128 l 1,2,-1
 1337 1362 l 1,3,-1
 1407 1446 l 1,4,-1
 1669 1329 l 1,5,-1
 1929 1446 l 1,6,-1
 1999 1362 l 1,0,-1
113 1339 m 1,7,8
 387 1362 387 1362 596 1362 c 0,9,10
 907 1362 907 1362 1054.5 1194 c 128,-1,11
 1202 1026 1202 1026 1202 700 c 0,12,13
 1202 355 1202 355 1043.5 167.5 c 128,-1,14
 885 -20 885 -20 559 -20 c 0,15,16
 349 -20 349 -20 113 8 c 1,17,-1
 113 1339 l 1,7,8
453 141 m 1,18,19
 510 127 510 127 573 127 c 0,20,21
 623 127 623 127 663.5 144 c 128,-1,22
 704 161 704 161 731.5 188.5 c 128,-1,23
 759 216 759 216 779.5 259 c 128,-1,24
 800 302 800 302 812 347 c 128,-1,25
 824 392 824 392 831 451.5 c 128,-1,26
 838 511 838 511 840 563.5 c 128,-1,27
 842 616 842 616 842 682 c 0,28,29
 842 751 842 751 838 809.5 c 128,-1,30
 834 868 834 868 825 931 c 128,-1,31
 816 994 816 994 797.5 1042 c 128,-1,32
 779 1090 779 1090 752 1130 c 128,-1,33
 725 1170 725 1170 684 1191 c 128,-1,34
 643 1212 643 1212 590 1212 c 0,35,36
 526 1212 526 1212 453 1200 c 1,37,-1
 453 141 l 1,18,19
2056 924 m 1,38,-1
 1620 156 l 1,39,-1
 2064 178 l 1,40,-1
 2048 0 l 1,41,-1
 1282 0 l 1,42,-1
 1268 123 l 1,43,-1
 1702 887 l 1,44,-1
 1298 860 l 1,45,-1
 1317 1044 l 1,46,-1
 2042 1044 l 1,47,-1
 2056 924 l 1,38,-1
EndSplineSet
Validated: 1
Position2: "'cpsp' Capital Spacing lookup 3 subtable" dx=10 dy=0 dh=20 dv=0
EndChar

StartChar: E
Encoding: 69 69 30
Width: 915
Flags: MW
HStem: 0 162<453 870> 612 164<453 795 453 795> 1190 162<453 856 453 453>
VStem: 113 340<162 612 776 1190>
LayerCount: 2
UndoRedoHistory
Layer: 1
Undoes
EndUndoes
Redoes
EndRedoes
EndUndoRedoHistory
Fore
SplineSet
856 1190 m 1,0,-1
 453 1190 l 1,1,-1
 453 776 l 1,2,-1
 795 776 l 1,3,-1
 795 612 l 1,4,-1
 453 612 l 1,5,-1
 453 162 l 1,6,-1
 885 162 l 1,7,-1
 870 0 l 1,8,-1
 113 0 l 1,9,-1
 113 1352 l 1,10,-1
 856 1352 l 1,11,-1
 856 1190 l 1,0,-1
EndSplineSet
Validated: 1
Position2: "'cpsp' Capital Spacing lookup 3 subtable" dx=10 dy=0 dh=20 dv=0
EndChar

StartChar: Eacute
Encoding: 201 201 31
Width: 915
Flags: MW
HStem: 0 162<453 870> 612 164<453 795 453 795> 1190 162<453 453 453 856>
VStem: 113 340<162 612 776 1190>
LayerCount: 2
UndoRedoHistory
Layer: 1
Undoes
EndUndoes
Redoes
EndRedoes
EndUndoRedoHistory
Fore
SplineSet
768 1739 m 1,0,1
 798 1715 798 1715 817 1680.5 c 128,-1,2
 836 1646 836 1646 836 1612 c 0,3,4
 836 1583 836 1583 826.5 1561 c 128,-1,5
 817 1539 817 1539 796.5 1524.5 c 128,-1,6
 776 1510 776 1510 756 1501 c 128,-1,7
 736 1492 736 1492 703.5 1486 c 128,-1,8
 671 1480 671 1480 649.5 1478 c 128,-1,9
 628 1476 628 1476 592 1473 c 2,10,-1
 322 1452 l 1,11,-1
 297 1548 l 1,12,-1
 768 1739 l 1,0,1
453 1190 m 1,13,-1
 453 776 l 1,14,-1
 795 776 l 1,15,-1
 795 612 l 1,16,-1
 453 612 l 1,17,-1
 453 162 l 1,18,-1
 885 162 l 1,19,-1
 870 0 l 1,20,-1
 113 0 l 1,21,-1
 113 1352 l 1,22,-1
 856 1352 l 1,23,-1
 856 1190 l 1,24,-1
 453 1190 l 1,13,-1
EndSplineSet
Validated: 1
Position2: "'cpsp' Capital Spacing lookup 3 subtable" dx=10 dy=0 dh=20 dv=0
EndChar

StartChar: Ebreve
Encoding: 276 276 32
Width: 915
Flags: MW
HStem: 0 162<453 870> 612 164<453 795 453 795> 1190 162<453 453 453 856> 1419 106<431 539 431 608>
VStem: 113 340<162 612 776 1190> 131 246<1656 1700 1656 1700> 592 246<1656 1700>
LayerCount: 2
UndoRedoHistory
Layer: 1
Undoes
EndUndoes
Redoes
EndRedoes
EndUndoRedoHistory
Fore
SplineSet
838 1700 m 1,0,1
 838 1568 838 1568 751 1493.5 c 128,-1,2
 664 1419 664 1419 485 1419 c 0,3,4
 305 1419 305 1419 218 1493 c 128,-1,5
 131 1567 131 1567 131 1700 c 1,6,-1
 377 1700 l 1,7,8
 377 1670 377 1670 377.5 1656 c 128,-1,9
 378 1642 378 1642 380.5 1617 c 128,-1,10
 383 1592 383 1592 390 1579.5 c 128,-1,11
 397 1567 397 1567 408.5 1552.5 c 128,-1,12
 420 1538 420 1538 439.5 1532 c 128,-1,13
 459 1526 459 1526 485 1526 c 0,14,15
 516 1526 516 1526 537 1536.5 c 128,-1,16
 558 1547 558 1547 568.5 1561 c 128,-1,17
 579 1575 579 1575 584.5 1602 c 128,-1,18
 590 1629 590 1629 591 1647.5 c 128,-1,19
 592 1666 592 1666 592 1700 c 1,20,-1
 838 1700 l 1,0,1
453 1190 m 1,21,-1
 453 776 l 1,22,-1
 795 776 l 1,23,-1
 795 612 l 1,24,-1
 453 612 l 1,25,-1
 453 162 l 1,26,-1
 885 162 l 1,27,-1
 870 0 l 1,28,-1
 113 0 l 1,29,-1
 113 1352 l 1,30,-1
 856 1352 l 1,31,-1
 856 1190 l 1,32,-1
 453 1190 l 1,21,-1
EndSplineSet
Validated: 1
Position2: "'cpsp' Capital Spacing lookup 3 subtable" dx=10 dy=0 dh=20 dv=0
EndChar

StartChar: Ecaron
Encoding: 282 282 33
Width: 915
Flags: MW
HStem: 0 162<453 870> 612 164<453 795 453 795> 1190 162<453 453 453 856>
VStem: 113 340<162 612 776 1190>
LayerCount: 2
UndoRedoHistory
Layer: 1
Undoes
EndUndoes
Redoes
EndRedoes
EndUndoRedoHistory
Fore
SplineSet
811 1649 m 1,0,-1
 518 1415 l 1,1,-1
 449 1415 l 1,2,-1
 150 1649 l 1,3,-1
 219 1733 l 1,4,-1
 481 1616 l 1,5,-1
 741 1733 l 1,6,-1
 811 1649 l 1,0,-1
453 1190 m 1,7,-1
 453 776 l 1,8,-1
 795 776 l 1,9,-1
 795 612 l 1,10,-1
 453 612 l 1,11,-1
 453 162 l 1,12,-1
 885 162 l 1,13,-1
 870 0 l 1,14,-1
 113 0 l 1,15,-1
 113 1352 l 1,16,-1
 856 1352 l 1,17,-1
 856 1190 l 1,18,-1
 453 1190 l 1,7,-1
EndSplineSet
Validated: 1
Position2: "'cpsp' Capital Spacing lookup 3 subtable" dx=10 dy=0 dh=20 dv=0
EndChar

StartChar: Ecircumflex
Encoding: 202 202 34
Width: 915
Flags: MW
HStem: 0 162<453 870> 612 164<453 795 453 795> 1190 162<453 453 453 856> 1430 41G<154 154 815 815>
VStem: 113 340<162 612 776 1190>
LayerCount: 2
UndoRedoHistory
Layer: 1
Undoes
EndUndoes
Redoes
EndRedoes
EndUndoRedoHistory
Fore
SplineSet
154 1470 m 1,0,-1
 457 1724 l 1,1,-1
 506 1724 l 1,2,-1
 815 1470 l 1,3,-1
 745 1386 l 1,4,-1
 483 1513 l 1,5,-1
 223 1386 l 1,6,-1
 154 1470 l 1,0,-1
453 1190 m 1,7,-1
 453 776 l 1,8,-1
 795 776 l 1,9,-1
 795 612 l 1,10,-1
 453 612 l 1,11,-1
 453 162 l 1,12,-1
 885 162 l 1,13,-1
 870 0 l 1,14,-1
 113 0 l 1,15,-1
 113 1352 l 1,16,-1
 856 1352 l 1,17,-1
 856 1190 l 1,18,-1
 453 1190 l 1,7,-1
EndSplineSet
Validated: 1
Position2: "'cpsp' Capital Spacing lookup 3 subtable" dx=10 dy=0 dh=20 dv=0
EndChar

StartChar: Edieresis
Encoding: 203 203 35
Width: 915
Flags: MW
HStem: 0 162<453 870> 612 164<453 795 453 795> 1190 162<453 453 453 856> 1456 295<215 315 653 754>
VStem: 113 340<162 612 776 1190> 514 377<1554 1649>
LayerCount: 2
UndoRedoHistory
Layer: 1
Undoes
EndUndoes
Redoes
EndRedoes
EndUndoRedoHistory
Fore
SplineSet
268 1751 m 128,-1,1
 351 1751 351 1751 402 1712 c 128,-1,2
 453 1673 453 1673 453 1604 c 0,3,4
 453 1533 453 1533 399 1494.5 c 128,-1,5
 345 1456 345 1456 262 1456 c 128,-1,6
 179 1456 179 1456 127.5 1493.5 c 128,-1,7
 76 1531 76 1531 76 1599 c 0,8,9
 76 1670 76 1670 130.5 1710.5 c 128,-1,0
 185 1751 185 1751 268 1751 c 128,-1,1
707 1751 m 128,-1,11
 790 1751 790 1751 840.5 1712 c 128,-1,12
 891 1673 891 1673 891 1604 c 0,13,14
 891 1533 891 1533 837 1494.5 c 128,-1,15
 783 1456 783 1456 700 1456 c 128,-1,16
 617 1456 617 1456 565.5 1493.5 c 128,-1,17
 514 1531 514 1531 514 1599 c 0,18,19
 514 1670 514 1670 569 1710.5 c 128,-1,10
 624 1751 624 1751 707 1751 c 128,-1,11
453 1190 m 1,20,-1
 453 776 l 1,21,-1
 795 776 l 1,22,-1
 795 612 l 1,23,-1
 453 612 l 1,24,-1
 453 162 l 1,25,-1
 885 162 l 1,26,-1
 870 0 l 1,27,-1
 113 0 l 1,28,-1
 113 1352 l 1,29,-1
 856 1352 l 1,30,-1
 856 1190 l 1,31,-1
 453 1190 l 1,20,-1
EndSplineSet
Validated: 1
Position2: "'cpsp' Capital Spacing lookup 3 subtable" dx=10 dy=0 dh=20 dv=0
EndChar

StartChar: Edotaccent
Encoding: 278 278 36
Width: 915
Flags: MW
HStem: 0 162<453 870> 612 164<453 795 453 795> 1190 162<453 453 453 856> 1454 295<444 545>
VStem: 113 340<162 612 776 1190> 305 377<1552 1647>
LayerCount: 2
UndoRedoHistory
Layer: 1
Undoes
EndUndoes
Redoes
EndRedoes
EndUndoRedoHistory
Fore
SplineSet
498 1749 m 128,-1,1
 581 1749 581 1749 631.5 1710 c 128,-1,2
 682 1671 682 1671 682 1602 c 0,3,4
 682 1531 682 1531 628.5 1492.5 c 128,-1,5
 575 1454 575 1454 492 1454 c 128,-1,6
 409 1454 409 1454 357 1491.5 c 128,-1,7
 305 1529 305 1529 305 1597 c 0,8,9
 305 1668 305 1668 360 1708.5 c 128,-1,0
 415 1749 415 1749 498 1749 c 128,-1,1
453 1190 m 1,10,-1
 453 776 l 1,11,-1
 795 776 l 1,12,-1
 795 612 l 1,13,-1
 453 612 l 1,14,-1
 453 162 l 1,15,-1
 885 162 l 1,16,-1
 870 0 l 1,17,-1
 113 0 l 1,18,-1
 113 1352 l 1,19,-1
 856 1352 l 1,20,-1
 856 1190 l 1,21,-1
 453 1190 l 1,10,-1
EndSplineSet
Validated: 1
Position2: "'cpsp' Capital Spacing lookup 3 subtable" dx=10 dy=0 dh=20 dv=0
EndChar

StartChar: Edotbelow
Encoding: 7864 7864 37
Width: 915
Flags: MW
HStem: -391 295<397 498> 0 162<453 870> 612 164<453 795 453 795> 1190 162<453 453 453 856>
VStem: 113 340<162 612 776 1190> 258 377<-293 -199>
LayerCount: 2
UndoRedoHistory
Layer: 1
Undoes
EndUndoes
Redoes
EndRedoes
EndUndoRedoHistory
Fore
SplineSet
453 1190 m 1,0,-1
 453 776 l 1,1,-1
 795 776 l 1,2,-1
 795 612 l 1,3,-1
 453 612 l 1,4,-1
 453 162 l 1,5,-1
 885 162 l 1,6,-1
 870 0 l 1,7,-1
 113 0 l 1,8,-1
 113 1352 l 1,9,-1
 856 1352 l 1,10,-1
 856 1190 l 1,11,-1
 453 1190 l 1,0,-1
451 -96 m 128,-1,13
 534 -96 534 -96 584.5 -135.5 c 128,-1,14
 635 -175 635 -175 635 -244 c 0,15,16
 635 -315 635 -315 581.5 -353 c 128,-1,17
 528 -391 528 -391 444 -391 c 0,18,19
 361 -391 361 -391 309.5 -353.5 c 128,-1,20
 258 -316 258 -316 258 -248 c 0,21,22
 258 -177 258 -177 313 -136.5 c 128,-1,12
 368 -96 368 -96 451 -96 c 128,-1,13
EndSplineSet
Validated: 1
Position2: "'cpsp' Capital Spacing lookup 3 subtable" dx=10 dy=0 dh=20 dv=0
EndChar

StartChar: Egrave
Encoding: 200 200 38
Width: 915
Flags: MW
HStem: 0 162<453 870> 612 164<453 795 453 795> 1190 162<453 453 453 856>
VStem: 113 340<162 612 776 1190>
LayerCount: 2
UndoRedoHistory
Layer: 1
Undoes
EndUndoes
Redoes
EndRedoes
EndUndoRedoHistory
Fore
SplineSet
377 1475 m 2,0,1
 341 1478 341 1478 319.5 1480 c 128,-1,2
 298 1482 298 1482 265.5 1488 c 128,-1,3
 233 1494 233 1494 213 1503 c 128,-1,4
 193 1512 193 1512 172.5 1526.5 c 128,-1,5
 152 1541 152 1541 142.5 1563 c 128,-1,6
 133 1585 133 1585 133 1614 c 0,7,8
 133 1648 133 1648 152 1682.5 c 128,-1,9
 171 1717 171 1717 201 1741 c 1,10,-1
 672 1550 l 1,11,-1
 647 1454 l 1,12,-1
 377 1475 l 2,0,1
453 1190 m 1,13,-1
 453 776 l 1,14,-1
 795 776 l 1,15,-1
 795 612 l 1,16,-1
 453 612 l 1,17,-1
 453 162 l 1,18,-1
 885 162 l 1,19,-1
 870 0 l 1,20,-1
 113 0 l 1,21,-1
 113 1352 l 1,22,-1
 856 1352 l 1,23,-1
 856 1190 l 1,24,-1
 453 1190 l 1,13,-1
EndSplineSet
Validated: 1
Position2: "'cpsp' Capital Spacing lookup 3 subtable" dx=10 dy=0 dh=20 dv=0
EndChar

StartChar: Emacron
Encoding: 274 274 39
Width: 915
Flags: MW
HStem: 0 162<453 870> 612 164<453 795 453 795> 1190 162<453 453 453 856> 1464 178<324 692 229 793>
VStem: 113 340<162 612 776 1190>
LayerCount: 2
UndoRedoHistory
Layer: 1
Undoes
EndUndoes
Redoes
EndRedoes
EndUndoRedoHistory
Fore
SplineSet
793 1642 m 1,0,1
 811 1606 811 1606 811 1563 c 0,2,3
 811 1518 811 1518 779.5 1491 c 128,-1,4
 748 1464 748 1464 692 1464 c 2,5,-1
 229 1464 l 1,6,7
 213 1493 213 1493 213 1540 c 128,-1,8
 213 1587 213 1587 243 1614.5 c 128,-1,9
 273 1642 273 1642 324 1642 c 2,10,-1
 793 1642 l 1,0,1
453 1190 m 1,11,-1
 453 776 l 1,12,-1
 795 776 l 1,13,-1
 795 612 l 1,14,-1
 453 612 l 1,15,-1
 453 162 l 1,16,-1
 885 162 l 1,17,-1
 870 0 l 1,18,-1
 113 0 l 1,19,-1
 113 1352 l 1,20,-1
 856 1352 l 1,21,-1
 856 1190 l 1,22,-1
 453 1190 l 1,11,-1
EndSplineSet
Validated: 1
Position2: "'cpsp' Capital Spacing lookup 3 subtable" dx=10 dy=0 dh=20 dv=0
EndChar

StartChar: Eogonek
Encoding: 280 280 40
Width: 915
Flags: MW
HStem: -524 147<778 807> 0 162<453 715 852 870 852 852> 612 164<453 795 453 795> 1190 162<453 856 453 453>
VStem: 113 340<162 612 776 1190> 506 199<-303 -246>
LayerCount: 2
UndoRedoHistory
Layer: 1
Undoes
EndUndoes
Redoes
EndRedoes
EndUndoRedoHistory
Fore
SplineSet
852 0 m 1,0,1
 705 -122 705 -122 705 -262 c 0,2,3
 705 -324 705 -324 731.5 -350.5 c 128,-1,4
 758 -377 758 -377 819 -377 c 0,5,6
 850 -377 850 -377 880 -365 c 128,-1,7
 910 -353 910 -353 924 -330 c 1,8,9
 963 -357 963 -357 963 -397 c 0,10,11
 963 -441 963 -441 929.5 -471 c 128,-1,12
 896 -501 896 -501 854 -512.5 c 128,-1,13
 812 -524 812 -524 766 -524 c 0,14,15
 651 -524 651 -524 578.5 -470.5 c 128,-1,16
 506 -417 506 -417 506 -313 c 0,17,18
 506 -217 506 -217 563 -137.5 c 128,-1,19
 620 -58 620 -58 715 0 c 1,20,-1
 113 0 l 1,21,-1
 113 1352 l 1,22,-1
 856 1352 l 1,23,-1
 856 1190 l 1,24,-1
 453 1190 l 1,25,-1
 453 776 l 1,26,-1
 795 776 l 1,27,-1
 795 612 l 1,28,-1
 453 612 l 1,29,-1
 453 162 l 1,30,-1
 885 162 l 1,31,-1
 872 23 l 1,32,-1
 879 20 l 1,33,-1
 872 16 l 1,34,-1
 870 0 l 1,35,-1
 852 0 l 1,0,1
EndSplineSet
Validated: 1
Position2: "'cpsp' Capital Spacing lookup 3 subtable" dx=10 dy=0 dh=20 dv=0
EndChar

StartChar: Etilde
Encoding: 7868 7868 41
Width: 915
Flags: MW
HStem: 0 162<453 870> 612 164<453 795 453 795> 1190 162<453 453 453 856> 1464 195<629 694 625 725> 1509 195<279 343 248 348>
VStem: 113 340<162 612 776 1190>
LayerCount: 2
UndoRedoHistory
Layer: 1
Undoes
EndUndoes
Redoes
EndRedoes
EndUndoRedoHistory
Fore
SplineSet
795 1696 m 1,0,1
 846 1648 846 1648 846 1581 c 0,2,3
 846 1464 846 1464 680 1464 c 0,4,5
 628 1464 628 1464 488 1486.5 c 128,-1,6
 348 1509 348 1509 299 1509 c 0,7,8
 214 1509 214 1509 178 1475 c 1,9,10
 127 1519 127 1519 127 1587 c 0,11,12
 127 1704 127 1704 293 1704 c 0,13,14
 343 1704 343 1704 484 1681.5 c 128,-1,15
 625 1659 625 1659 674 1659 c 0,16,17
 758 1659 758 1659 795 1696 c 1,0,1
453 1190 m 1,18,-1
 453 776 l 1,19,-1
 795 776 l 1,20,-1
 795 612 l 1,21,-1
 453 612 l 1,22,-1
 453 162 l 1,23,-1
 885 162 l 1,24,-1
 870 0 l 1,25,-1
 113 0 l 1,26,-1
 113 1352 l 1,27,-1
 856 1352 l 1,28,-1
 856 1190 l 1,29,-1
 453 1190 l 1,18,-1
EndSplineSet
Validated: 1
Position2: "'cpsp' Capital Spacing lookup 3 subtable" dx=10 dy=0 dh=20 dv=0
EndChar

StartChar: F
Encoding: 70 70 42
Width: 878
Flags: MW
HStem: 584 164<453 795 453 795> 1190 162<453 856 453 453>
VStem: 113 340<0 584 748 1190>
LayerCount: 2
UndoRedoHistory
Layer: 1
Undoes
EndUndoes
Redoes
EndRedoes
EndUndoRedoHistory
Fore
SplineSet
856 1190 m 1,0,-1
 453 1190 l 1,1,-1
 453 748 l 1,2,-1
 795 748 l 1,3,-1
 795 584 l 1,4,-1
 453 584 l 1,5,-1
 453 0 l 1,6,-1
 113 0 l 1,7,-1
 113 1352 l 1,8,-1
 856 1352 l 1,9,-1
 856 1190 l 1,0,-1
EndSplineSet
Validated: 1
Position2: "'cpsp' Capital Spacing lookup 3 subtable" dx=10 dy=0 dh=20 dv=0
EndChar

StartChar: G
Encoding: 71 71 43
Width: 1183
Flags: MW
HStem: -45 209<572 720 572 726> 1245 147<550 715>
VStem: 55 365<585 820 585 887> 823 301<1044 1096> 831 266
LayerCount: 2
UndoRedoHistory
Layer: 1
Undoes
EndUndoes
Redoes
EndRedoes
EndUndoRedoHistory
Fore
SplineSet
1098 39 m 1,0,1
 911 -45 911 -45 655 -45 c 0,2,3
 527 -45 527 -45 425 -9 c 128,-1,4
 323 27 323 27 254.5 90 c 128,-1,5
 186 153 186 153 140.5 243.5 c 128,-1,6
 95 334 95 334 75 439 c 128,-1,7
 55 544 55 544 55 668 c 0,8,9
 55 801 55 801 77.5 911.5 c 128,-1,10
 100 1022 100 1022 149 1112 c 128,-1,11
 198 1202 198 1202 270.5 1264 c 128,-1,12
 343 1326 343 1326 447 1359.5 c 128,-1,13
 551 1393 551 1393 680 1393 c 0,14,15
 770 1393 770 1393 845 1379 c 128,-1,16
 920 1365 920 1365 985.5 1334 c 128,-1,17
 1051 1303 1051 1303 1087.5 1245 c 128,-1,18
 1124 1187 1124 1187 1124 1106 c 0,19,20
 1124 1015 1124 1015 1065 960 c 128,-1,21
 1006 905 1006 905 915 905 c 0,22,23
 854 905 854 905 809 928 c 1,24,25
 823 980 823 980 823 1036 c 0,26,27
 823 1131 823 1131 781.5 1188 c 128,-1,28
 740 1245 740 1245 655 1245 c 0,29,30
 420 1245 420 1245 420 715 c 0,31,32
 420 653 420 653 422 602.5 c 128,-1,33
 424 552 424 552 431.5 493 c 128,-1,34
 439 434 439 434 450.5 388.5 c 128,-1,35
 462 343 462 343 483 299.5 c 128,-1,36
 504 256 504 256 532.5 227.5 c 128,-1,37
 561 199 561 199 602.5 181.5 c 128,-1,38
 644 164 644 164 696 164 c 0,39,40
 776 164 776 164 838 186 c 1,41,-1
 825 621 l 1,42,-1
 1098 649 l 1,43,-1
 1098 39 l 1,0,1
EndSplineSet
Validated: 1
Position2: "'cpsp' Capital Spacing lookup 3 subtable" dx=10 dy=0 dh=20 dv=0
EndChar

StartChar: Gbreve
Encoding: 286 286 44
Width: 1183
Flags: MW
HStem: -45 209<572 720 572 726> 1245 147<550 715> 1419 106<603 711 603 780>
VStem: 55 365<585 820 585 887> 303 246<1656 1700 1656 1700> 764 246<1656 1700> 823 301<1044 1096> 831 266
LayerCount: 2
UndoRedoHistory
Layer: 1
Undoes
EndUndoes
Redoes
EndRedoes
EndUndoRedoHistory
Fore
SplineSet
1010 1700 m 1,0,1
 1010 1568 1010 1568 923 1493.5 c 128,-1,2
 836 1419 836 1419 657 1419 c 0,3,4
 477 1419 477 1419 390 1493 c 128,-1,5
 303 1567 303 1567 303 1700 c 1,6,-1
 549 1700 l 1,7,8
 549 1670 549 1670 549.5 1656 c 128,-1,9
 550 1642 550 1642 552.5 1617 c 128,-1,10
 555 1592 555 1592 562 1579.5 c 128,-1,11
 569 1567 569 1567 580.5 1552.5 c 128,-1,12
 592 1538 592 1538 611.5 1532 c 128,-1,13
 631 1526 631 1526 657 1526 c 0,14,15
 688 1526 688 1526 709 1536.5 c 128,-1,16
 730 1547 730 1547 740.5 1561 c 128,-1,17
 751 1575 751 1575 756.5 1602 c 128,-1,18
 762 1629 762 1629 763 1647.5 c 128,-1,19
 764 1666 764 1666 764 1700 c 1,20,-1
 1010 1700 l 1,0,1
1098 39 m 1,21,22
 911 -45 911 -45 655 -45 c 0,23,24
 527 -45 527 -45 425 -9 c 128,-1,25
 323 27 323 27 254.5 90 c 128,-1,26
 186 153 186 153 140.5 243.5 c 128,-1,27
 95 334 95 334 75 439 c 128,-1,28
 55 544 55 544 55 668 c 0,29,30
 55 801 55 801 77.5 911.5 c 128,-1,31
 100 1022 100 1022 149 1112 c 128,-1,32
 198 1202 198 1202 270.5 1264 c 128,-1,33
 343 1326 343 1326 447 1359.5 c 128,-1,34
 551 1393 551 1393 680 1393 c 0,35,36
 770 1393 770 1393 845 1379 c 128,-1,37
 920 1365 920 1365 985.5 1334 c 128,-1,38
 1051 1303 1051 1303 1087.5 1245 c 128,-1,39
 1124 1187 1124 1187 1124 1106 c 0,40,41
 1124 1015 1124 1015 1065 960 c 128,-1,42
 1006 905 1006 905 915 905 c 0,43,44
 854 905 854 905 809 928 c 1,45,46
 823 980 823 980 823 1036 c 0,47,48
 823 1131 823 1131 781.5 1188 c 128,-1,49
 740 1245 740 1245 655 1245 c 0,50,51
 420 1245 420 1245 420 715 c 0,52,53
 420 653 420 653 422 602.5 c 128,-1,54
 424 552 424 552 431.5 493 c 128,-1,55
 439 434 439 434 450.5 388.5 c 128,-1,56
 462 343 462 343 483 299.5 c 128,-1,57
 504 256 504 256 532.5 227.5 c 128,-1,58
 561 199 561 199 602.5 181.5 c 128,-1,59
 644 164 644 164 696 164 c 0,60,61
 776 164 776 164 838 186 c 1,62,-1
 825 621 l 1,63,-1
 1098 649 l 1,64,-1
 1098 39 l 1,21,22
EndSplineSet
Validated: 1
Position2: "'cpsp' Capital Spacing lookup 3 subtable" dx=10 dy=0 dh=20 dv=0
EndChar

StartChar: Gcircumflex
Encoding: 284 284 45
Width: 1183
Flags: MW
HStem: -45 209<572 720 572 726> 1245 147<550 715> 1430 41G<326 326 987 987>
VStem: 55 365<585 820 585 887> 823 301<1044 1096> 831 266
LayerCount: 2
UndoRedoHistory
Layer: 1
Undoes
EndUndoes
Redoes
EndRedoes
EndUndoRedoHistory
Fore
SplineSet
326 1470 m 1,0,-1
 629 1724 l 1,1,-1
 678 1724 l 1,2,-1
 987 1470 l 1,3,-1
 918 1386 l 1,4,-1
 655 1513 l 1,5,-1
 395 1386 l 1,6,-1
 326 1470 l 1,0,-1
1098 39 m 1,7,8
 911 -45 911 -45 655 -45 c 0,9,10
 527 -45 527 -45 425 -9 c 128,-1,11
 323 27 323 27 254.5 90 c 128,-1,12
 186 153 186 153 140.5 243.5 c 128,-1,13
 95 334 95 334 75 439 c 128,-1,14
 55 544 55 544 55 668 c 0,15,16
 55 801 55 801 77.5 911.5 c 128,-1,17
 100 1022 100 1022 149 1112 c 128,-1,18
 198 1202 198 1202 270.5 1264 c 128,-1,19
 343 1326 343 1326 447 1359.5 c 128,-1,20
 551 1393 551 1393 680 1393 c 0,21,22
 770 1393 770 1393 845 1379 c 128,-1,23
 920 1365 920 1365 985.5 1334 c 128,-1,24
 1051 1303 1051 1303 1087.5 1245 c 128,-1,25
 1124 1187 1124 1187 1124 1106 c 0,26,27
 1124 1015 1124 1015 1065 960 c 128,-1,28
 1006 905 1006 905 915 905 c 0,29,30
 854 905 854 905 809 928 c 1,31,32
 823 980 823 980 823 1036 c 0,33,34
 823 1131 823 1131 781.5 1188 c 128,-1,35
 740 1245 740 1245 655 1245 c 0,36,37
 420 1245 420 1245 420 715 c 0,38,39
 420 653 420 653 422 602.5 c 128,-1,40
 424 552 424 552 431.5 493 c 128,-1,41
 439 434 439 434 450.5 388.5 c 128,-1,42
 462 343 462 343 483 299.5 c 128,-1,43
 504 256 504 256 532.5 227.5 c 128,-1,44
 561 199 561 199 602.5 181.5 c 128,-1,45
 644 164 644 164 696 164 c 0,46,47
 776 164 776 164 838 186 c 1,48,-1
 825 621 l 1,49,-1
 1098 649 l 1,50,-1
 1098 39 l 1,7,8
EndSplineSet
Validated: 1
Position2: "'cpsp' Capital Spacing lookup 3 subtable" dx=10 dy=0 dh=20 dv=0
EndChar

StartChar: Gcommaaccent
Encoding: 290 290 46
Width: 1183
Flags: MW
HStem: -45 209<572 720 572 726> 1245 147<550 715>
VStem: 55 365<585 820 585 887> 616 246<-322 -254> 823 301<1044 1096> 831 266
LayerCount: 2
UndoRedoHistory
Layer: 1
Undoes
EndUndoes
Redoes
EndRedoes
EndUndoRedoHistory
Fore
SplineSet
1098 39 m 1,0,1
 911 -45 911 -45 655 -45 c 0,2,3
 527 -45 527 -45 425 -9 c 128,-1,4
 323 27 323 27 254.5 90 c 128,-1,5
 186 153 186 153 140.5 243.5 c 128,-1,6
 95 334 95 334 75 439 c 128,-1,7
 55 544 55 544 55 668 c 0,8,9
 55 801 55 801 77.5 911.5 c 128,-1,10
 100 1022 100 1022 149 1112 c 128,-1,11
 198 1202 198 1202 270.5 1264 c 128,-1,12
 343 1326 343 1326 447 1359.5 c 128,-1,13
 551 1393 551 1393 680 1393 c 0,14,15
 770 1393 770 1393 845 1379 c 128,-1,16
 920 1365 920 1365 985.5 1334 c 128,-1,17
 1051 1303 1051 1303 1087.5 1245 c 128,-1,18
 1124 1187 1124 1187 1124 1106 c 0,19,20
 1124 1015 1124 1015 1065 960 c 128,-1,21
 1006 905 1006 905 915 905 c 0,22,23
 854 905 854 905 809 928 c 1,24,25
 823 980 823 980 823 1036 c 0,26,27
 823 1131 823 1131 781.5 1188 c 128,-1,28
 740 1245 740 1245 655 1245 c 0,29,30
 420 1245 420 1245 420 715 c 0,31,32
 420 653 420 653 422 602.5 c 128,-1,33
 424 552 424 552 431.5 493 c 128,-1,34
 439 434 439 434 450.5 388.5 c 128,-1,35
 462 343 462 343 483 299.5 c 128,-1,36
 504 256 504 256 532.5 227.5 c 128,-1,37
 561 199 561 199 602.5 181.5 c 128,-1,38
 644 164 644 164 696 164 c 0,39,40
 776 164 776 164 838 186 c 1,41,-1
 825 621 l 1,42,-1
 1098 649 l 1,43,-1
 1098 39 l 1,0,1
694 -104 m 0,44,45
 862 -104 862 -104 862 -262 c 0,46,47
 862 -357 862 -357 789 -432.5 c 128,-1,48
 716 -508 716 -508 616 -508 c 0,49,50
 583 -508 583 -508 541 -498 c 1,51,52
 616 -394 616 -394 616 -283 c 0,53,54
 616 -199 616 -199 573 -131 c 1,55,56
 622 -104 622 -104 694 -104 c 0,44,45
EndSplineSet
Validated: 1
Position2: "'cpsp' Capital Spacing lookup 3 subtable" dx=10 dy=0 dh=20 dv=0
EndChar

StartChar: Gdotaccent
Encoding: 288 288 47
Width: 1183
Flags: MW
HStem: -45 209<572 720 572 726> 1245 147<550 715> 1499 295<604 705>
VStem: 55 365<585 820 585 887> 465 377<1597 1692> 823 301<1044 1096> 831 266
LayerCount: 2
UndoRedoHistory
Layer: 1
Undoes
EndUndoes
Redoes
EndRedoes
EndUndoRedoHistory
Fore
SplineSet
657 1794 m 128,-1,1
 740 1794 740 1794 791 1755 c 128,-1,2
 842 1716 842 1716 842 1647 c 0,3,4
 842 1576 842 1576 788 1537.5 c 128,-1,5
 734 1499 734 1499 651 1499 c 128,-1,6
 568 1499 568 1499 516.5 1536.5 c 128,-1,7
 465 1574 465 1574 465 1642 c 0,8,9
 465 1713 465 1713 519.5 1753.5 c 128,-1,0
 574 1794 574 1794 657 1794 c 128,-1,1
1098 39 m 1,10,11
 911 -45 911 -45 655 -45 c 0,12,13
 527 -45 527 -45 425 -9 c 128,-1,14
 323 27 323 27 254.5 90 c 128,-1,15
 186 153 186 153 140.5 243.5 c 128,-1,16
 95 334 95 334 75 439 c 128,-1,17
 55 544 55 544 55 668 c 0,18,19
 55 801 55 801 77.5 911.5 c 128,-1,20
 100 1022 100 1022 149 1112 c 128,-1,21
 198 1202 198 1202 270.5 1264 c 128,-1,22
 343 1326 343 1326 447 1359.5 c 128,-1,23
 551 1393 551 1393 680 1393 c 0,24,25
 770 1393 770 1393 845 1379 c 128,-1,26
 920 1365 920 1365 985.5 1334 c 128,-1,27
 1051 1303 1051 1303 1087.5 1245 c 128,-1,28
 1124 1187 1124 1187 1124 1106 c 0,29,30
 1124 1015 1124 1015 1065 960 c 128,-1,31
 1006 905 1006 905 915 905 c 0,32,33
 854 905 854 905 809 928 c 1,34,35
 823 980 823 980 823 1036 c 0,36,37
 823 1131 823 1131 781.5 1188 c 128,-1,38
 740 1245 740 1245 655 1245 c 0,39,40
 420 1245 420 1245 420 715 c 0,41,42
 420 653 420 653 422 602.5 c 128,-1,43
 424 552 424 552 431.5 493 c 128,-1,44
 439 434 439 434 450.5 388.5 c 128,-1,45
 462 343 462 343 483 299.5 c 128,-1,46
 504 256 504 256 532.5 227.5 c 128,-1,47
 561 199 561 199 602.5 181.5 c 128,-1,48
 644 164 644 164 696 164 c 0,49,50
 776 164 776 164 838 186 c 1,51,-1
 825 621 l 1,52,-1
 1098 649 l 1,53,-1
 1098 39 l 1,10,11
EndSplineSet
Validated: 1
Position2: "'cpsp' Capital Spacing lookup 3 subtable" dx=10 dy=0 dh=20 dv=0
EndChar

StartChar: H
Encoding: 72 72 48
Width: 1282
Flags: MW
HStem: 602 164<453 831 453 831> 1311 41G<113 453 453 453 831 1169 1169 1169>
VStem: 113 340<0 602 0 766 766 1352> 831 338<0 602 602 602 766 1352>
LayerCount: 2
UndoRedoHistory
Layer: 1
Undoes
EndUndoes
Redoes
EndRedoes
EndUndoRedoHistory
Fore
SplineSet
1169 0 m 1,0,-1
 831 0 l 1,1,-1
 831 602 l 1,2,-1
 453 602 l 1,3,-1
 453 0 l 1,4,-1
 113 0 l 1,5,-1
 113 1352 l 1,6,-1
 453 1352 l 1,7,-1
 453 766 l 1,8,-1
 831 766 l 1,9,-1
 831 1352 l 1,10,-1
 1169 1352 l 1,11,-1
 1169 0 l 1,0,-1
EndSplineSet
Validated: 1
Position2: "'cpsp' Capital Spacing lookup 3 subtable" dx=10 dy=0 dh=20 dv=0
EndChar

StartChar: Hbar
Encoding: 294 294 49
Width: 1331
Flags: MW
HStem: 602 164<475 854 475 854> 954 168<115 137 115 137 10 137 475 854 1194 1210> 954 397<10 475 10 475 137 475 137 854>
VStem: 137 338<0 602 0 766 766 954 1122 1352> 854 340<0 602 602 602 766 954 0 954 1122 1352>
LayerCount: 2
UndoRedoHistory
Layer: 1
Undoes
EndUndoes
Redoes
EndRedoes
EndUndoRedoHistory
Fore
SplineSet
1323 1122 m 1,0,1
 1337 1080 1337 1080 1337 1057 c 0,2,3
 1337 954 1337 954 1210 954 c 2,4,-1
 1194 954 l 1,5,-1
 1194 0 l 1,6,-1
 854 0 l 1,7,-1
 854 602 l 1,8,-1
 475 602 l 1,9,-1
 475 0 l 1,10,-1
 137 0 l 1,11,-1
 137 954 l 1,12,-1
 10 954 l 1,13,14
 -2 981 -2 981 -2 1020 c 0,15,16
 -2 1070 -2 1070 28.5 1096 c 128,-1,17
 59 1122 59 1122 115 1122 c 2,18,-1
 137 1122 l 1,19,-1
 137 1352 l 1,20,-1
 475 1352 l 1,21,-1
 475 1122 l 1,22,-1
 854 1122 l 1,23,-1
 854 1352 l 1,24,-1
 1194 1352 l 1,25,-1
 1194 1122 l 1,26,-1
 1323 1122 l 1,0,1
854 954 m 1,27,-1
 475 954 l 1,28,-1
 475 766 l 1,29,-1
 854 766 l 1,30,-1
 854 954 l 1,27,-1
EndSplineSet
Validated: 1
Position2: "'cpsp' Capital Spacing lookup 3 subtable" dx=10 dy=0 dh=20 dv=0
EndChar

StartChar: Hcircumflex
Encoding: 292 292 50
Width: 1282
Flags: MW
HStem: 602 164<453 831 453 831> 1311 41G<113 453 453 453 831 1169 1169 1169> 1430 41G<311 311 973 973>
VStem: 113 340<0 602 0 766 766 1352> 831 338<0 602 602 602 766 1352 0 1352>
LayerCount: 2
UndoRedoHistory
Layer: 1
Undoes
EndUndoes
Redoes
EndRedoes
EndUndoRedoHistory
Fore
SplineSet
311 1470 m 1,0,-1
 614 1724 l 1,1,-1
 664 1724 l 1,2,-1
 973 1470 l 1,3,-1
 903 1386 l 1,4,-1
 641 1513 l 1,5,-1
 381 1386 l 1,6,-1
 311 1470 l 1,0,-1
831 0 m 1,7,-1
 831 602 l 1,8,-1
 453 602 l 1,9,-1
 453 0 l 1,10,-1
 113 0 l 1,11,-1
 113 1352 l 1,12,-1
 453 1352 l 1,13,-1
 453 766 l 1,14,-1
 831 766 l 1,15,-1
 831 1352 l 1,16,-1
 1169 1352 l 1,17,-1
 1169 0 l 1,18,-1
 831 0 l 1,7,-1
EndSplineSet
Validated: 1
Position2: "'cpsp' Capital Spacing lookup 3 subtable" dx=10 dy=0 dh=20 dv=0
EndChar

StartChar: Hdotbelow
Encoding: 7716 7716 51
Width: 1282
Flags: MW
HStem: -391 295<596 696> 602 164<453 831 453 831> 1311 41G<113 453 453 453 831 1169 1169 1169>
VStem: 113 340<0 602 0 766 766 1352> 457 377<-293 -199> 831 338<0 602 602 602 766 1352 0 1352>
LayerCount: 2
UndoRedoHistory
Layer: 1
Undoes
EndUndoes
Redoes
EndRedoes
EndUndoRedoHistory
Fore
SplineSet
831 0 m 1,0,-1
 831 602 l 1,1,-1
 453 602 l 1,2,-1
 453 0 l 1,3,-1
 113 0 l 1,4,-1
 113 1352 l 1,5,-1
 453 1352 l 1,6,-1
 453 766 l 1,7,-1
 831 766 l 1,8,-1
 831 1352 l 1,9,-1
 1169 1352 l 1,10,-1
 1169 0 l 1,11,-1
 831 0 l 1,0,-1
649 -96 m 128,-1,13
 732 -96 732 -96 783 -135.5 c 128,-1,14
 834 -175 834 -175 834 -244 c 0,15,16
 834 -315 834 -315 780 -353 c 128,-1,17
 726 -391 726 -391 643 -391 c 128,-1,18
 560 -391 560 -391 508.5 -353.5 c 128,-1,19
 457 -316 457 -316 457 -248 c 0,20,21
 457 -177 457 -177 511.5 -136.5 c 128,-1,12
 566 -96 566 -96 649 -96 c 128,-1,13
EndSplineSet
Validated: 1
Position2: "'cpsp' Capital Spacing lookup 3 subtable" dx=10 dy=0 dh=20 dv=0
EndChar

StartChar: I
Encoding: 73 73 52
Width: 563
Flags: MW
HStem: 1311 41G<113 453 453 453>
VStem: 113 340<0 1352>
LayerCount: 2
UndoRedoHistory
Layer: 1
Undoes
EndUndoes
Redoes
EndRedoes
EndUndoRedoHistory
Fore
SplineSet
453 0 m 1,0,-1
 113 0 l 1,1,-1
 113 1352 l 1,2,-1
 453 1352 l 1,3,-1
 453 0 l 1,0,-1
EndSplineSet
Validated: 1
Position2: "'cpsp' Capital Spacing lookup 3 subtable" dx=10 dy=0 dh=20 dv=0
EndChar

StartChar: IJ
Encoding: 306 306 53
Width: 1128
Flags: MW
HStem: -360 106 1311 41G<113 453 453 453 676 1016 1016 1016>
VStem: 113 340<0 1352 0 1352> 676 340<113 178 178 1352>
LayerCount: 2
UndoRedoHistory
Layer: 1
Undoes
EndUndoes
Redoes
EndRedoes
EndUndoRedoHistory
Fore
SplineSet
113 0 m 1,0,-1
 113 1352 l 1,1,-1
 453 1352 l 1,2,-1
 453 0 l 1,3,-1
 113 0 l 1,0,-1
1016 178 m 2,4,5
 1016 90 1016 90 1008 17 c 128,-1,6
 1000 -56 1000 -56 978 -128.5 c 128,-1,7
 956 -201 956 -201 920.5 -250 c 128,-1,8
 885 -299 885 -299 825 -329.5 c 128,-1,9
 765 -360 765 -360 686 -360 c 0,10,11
 614 -360 614 -360 555.5 -334.5 c 128,-1,12
 497 -309 497 -309 483 -254 c 1,13,14
 526 -252 526 -252 559 -236.5 c 128,-1,15
 592 -221 592 -221 612.5 -193 c 128,-1,16
 633 -165 633 -165 646 -133.5 c 128,-1,17
 659 -102 659 -102 665.5 -57.5 c 128,-1,18
 672 -13 672 -13 674 24.5 c 128,-1,19
 676 62 676 62 676 113 c 2,20,-1
 676 1352 l 1,21,-1
 1016 1352 l 1,22,-1
 1016 178 l 2,4,5
EndSplineSet
Validated: 1
Position2: "'cpsp' Capital Spacing lookup 3 subtable" dx=10 dy=0 dh=20 dv=0
EndChar

StartChar: Iacute
Encoding: 205 205 54
Width: 563
Flags: MW
HStem: 1311 41G<113 453 453 453>
VStem: 113 340<0 1352 0 1352>
LayerCount: 2
UndoRedoHistory
Layer: 1
Undoes
EndUndoes
Redoes
EndRedoes
EndUndoRedoHistory
Fore
SplineSet
567 1739 m 1,0,1
 597 1715 597 1715 616 1680.5 c 128,-1,2
 635 1646 635 1646 635 1612 c 0,3,4
 635 1583 635 1583 625.5 1561 c 128,-1,5
 616 1539 616 1539 595.5 1524.5 c 128,-1,6
 575 1510 575 1510 555 1501 c 128,-1,7
 535 1492 535 1492 502.5 1486 c 128,-1,8
 470 1480 470 1480 448.5 1478 c 128,-1,9
 427 1476 427 1476 391 1473 c 2,10,-1
 121 1452 l 1,11,-1
 96 1548 l 1,12,-1
 567 1739 l 1,0,1
113 0 m 1,13,-1
 113 1352 l 1,14,-1
 453 1352 l 1,15,-1
 453 0 l 1,16,-1
 113 0 l 1,13,-1
EndSplineSet
Validated: 1
Position2: "'cpsp' Capital Spacing lookup 3 subtable" dx=10 dy=0 dh=20 dv=0
EndChar

StartChar: Ibreve
Encoding: 300 300 55
Width: 563
Flags: MW
HStem: 1311 41G<113 453 453 453> 1419 106<228 336 228 406>
VStem: -72 246<1656 1700 1656 1700> 113 340<0 1352 0 1352> 389 246<1656 1700>
LayerCount: 2
UndoRedoHistory
Layer: 1
Undoes
EndUndoes
Redoes
EndRedoes
EndUndoRedoHistory
Fore
SplineSet
635 1700 m 1,0,1
 635 1567 635 1567 548.5 1493 c 128,-1,2
 462 1419 462 1419 283 1419 c 0,3,4
 103 1419 103 1419 15.5 1493 c 128,-1,5
 -72 1567 -72 1567 -72 1700 c 1,6,-1
 174 1700 l 1,7,8
 174 1665 174 1665 175 1647 c 128,-1,9
 176 1629 176 1629 181.5 1601.5 c 128,-1,10
 187 1574 187 1574 197.5 1560.5 c 128,-1,11
 208 1547 208 1547 229.5 1536.5 c 128,-1,12
 251 1526 251 1526 283 1526 c 0,13,14
 309 1526 309 1526 327.5 1532 c 128,-1,15
 346 1538 346 1538 357.5 1552 c 128,-1,16
 369 1566 369 1566 375.5 1579 c 128,-1,17
 382 1592 382 1592 385 1616.5 c 128,-1,18
 388 1641 388 1641 388.5 1656 c 128,-1,19
 389 1671 389 1671 389 1700 c 1,20,-1
 635 1700 l 1,0,1
113 0 m 1,21,-1
 113 1352 l 1,22,-1
 453 1352 l 1,23,-1
 453 0 l 1,24,-1
 113 0 l 1,21,-1
EndSplineSet
Validated: 1
Position2: "'cpsp' Capital Spacing lookup 3 subtable" dx=10 dy=0 dh=20 dv=0
EndChar

StartChar: Icircumflex
Encoding: 206 206 56
Width: 563
Flags: MW
HStem: 1311 41G<113 453 453 453> 1430 41G<-49 -49 612 612>
VStem: 113 340<0 1352 0 1352>
LayerCount: 2
UndoRedoHistory
Layer: 1
Undoes
EndUndoes
Redoes
EndRedoes
EndUndoRedoHistory
Fore
SplineSet
-49 1470 m 1,0,-1
 254 1724 l 1,1,-1
 303 1724 l 1,2,-1
 612 1470 l 1,3,-1
 543 1386 l 1,4,-1
 281 1513 l 1,5,-1
 20 1386 l 1,6,-1
 -49 1470 l 1,0,-1
113 0 m 1,7,-1
 113 1352 l 1,8,-1
 453 1352 l 1,9,-1
 453 0 l 1,10,-1
 113 0 l 1,7,-1
EndSplineSet
Validated: 1
Position2: "'cpsp' Capital Spacing lookup 3 subtable" dx=10 dy=0 dh=20 dv=0
EndChar

StartChar: Idieresis
Encoding: 207 207 57
Width: 563
Flags: MW
HStem: 1311 41G<113 453 453 453> 1456 295<12 113 453 553>
VStem: -127 377<1554 1649> 113 340<0 1352 0 1352> 313 377<1554 1649>
LayerCount: 2
UndoRedoHistory
Layer: 1
Undoes
EndUndoes
Redoes
EndRedoes
EndUndoRedoHistory
Fore
SplineSet
66 1751 m 128,-1,1
 149 1751 149 1751 199.5 1712 c 128,-1,2
 250 1673 250 1673 250 1604 c 0,3,4
 250 1533 250 1533 196 1494.5 c 128,-1,5
 142 1456 142 1456 59 1456 c 128,-1,6
 -24 1456 -24 1456 -75.5 1493.5 c 128,-1,7
 -127 1531 -127 1531 -127 1599 c 0,8,9
 -127 1670 -127 1670 -72 1710.5 c 128,-1,0
 -17 1751 -17 1751 66 1751 c 128,-1,1
506 1751 m 128,-1,11
 589 1751 589 1751 639.5 1712 c 128,-1,12
 690 1673 690 1673 690 1604 c 0,13,14
 690 1533 690 1533 636.5 1494.5 c 128,-1,15
 583 1456 583 1456 500 1456 c 128,-1,16
 417 1456 417 1456 365 1493.5 c 128,-1,17
 313 1531 313 1531 313 1599 c 0,18,19
 313 1670 313 1670 368 1710.5 c 128,-1,10
 423 1751 423 1751 506 1751 c 128,-1,11
113 0 m 1,20,-1
 113 1352 l 1,21,-1
 453 1352 l 1,22,-1
 453 0 l 1,23,-1
 113 0 l 1,20,-1
EndSplineSet
Validated: 1
Position2: "'cpsp' Capital Spacing lookup 3 subtable" dx=10 dy=0 dh=20 dv=0
EndChar

StartChar: Idotaccent
Encoding: 304 304 58
Width: 563
Flags: MW
HStem: 1311 41G<113 453 453 453> 1499 295<236 336>
VStem: 113 340<0 1352 0 1352>
LayerCount: 2
UndoRedoHistory
Layer: 1
Undoes
EndUndoes
Redoes
EndRedoes
EndUndoRedoHistory
Fore
SplineSet
289 1794 m 128,-1,1
 372 1794 372 1794 422.5 1755 c 128,-1,2
 473 1716 473 1716 473 1647 c 0,3,4
 473 1576 473 1576 419.5 1537.5 c 128,-1,5
 366 1499 366 1499 283 1499 c 128,-1,6
 200 1499 200 1499 148 1536.5 c 128,-1,7
 96 1574 96 1574 96 1642 c 0,8,9
 96 1713 96 1713 151 1753.5 c 128,-1,0
 206 1794 206 1794 289 1794 c 128,-1,1
113 0 m 1,10,-1
 113 1352 l 1,11,-1
 453 1352 l 1,12,-1
 453 0 l 1,13,-1
 113 0 l 1,10,-1
EndSplineSet
Validated: 1
Position2: "'cpsp' Capital Spacing lookup 3 subtable" dx=10 dy=0 dh=20 dv=0
EndChar

StartChar: Idotbelow
Encoding: 7882 7882 59
Width: 563
Flags: MW
HStem: -391 295<229 330> 1311 41G<113 453 453 453>
VStem: 113 340<0 1352 0 1352>
LayerCount: 2
UndoRedoHistory
Layer: 1
Undoes
EndUndoes
Redoes
EndRedoes
EndUndoRedoHistory
Fore
SplineSet
113 0 m 1,0,-1
 113 1352 l 1,1,-1
 453 1352 l 1,2,-1
 453 0 l 1,3,-1
 113 0 l 1,0,-1
283 -96 m 128,-1,5
 366 -96 366 -96 416.5 -135.5 c 128,-1,6
 467 -175 467 -175 467 -244 c 0,7,8
 467 -315 467 -315 413.5 -353 c 128,-1,9
 360 -391 360 -391 276 -391 c 0,10,11
 193 -391 193 -391 141.5 -353.5 c 128,-1,12
 90 -316 90 -316 90 -248 c 0,13,14
 90 -177 90 -177 145 -136.5 c 128,-1,4
 200 -96 200 -96 283 -96 c 128,-1,5
EndSplineSet
Validated: 1
Position2: "'cpsp' Capital Spacing lookup 3 subtable" dx=10 dy=0 dh=20 dv=0
EndChar

StartChar: Igrave
Encoding: 204 204 60
Width: 563
Flags: MW
HStem: 1311 41G<113 453 453 453>
VStem: 113 340<0 1352 0 1352>
LayerCount: 2
UndoRedoHistory
Layer: 1
Undoes
EndUndoes
Redoes
EndRedoes
EndUndoRedoHistory
Fore
SplineSet
174 1475 m 2,0,1
 138 1478 138 1478 116.5 1480 c 128,-1,2
 95 1482 95 1482 62.5 1488 c 128,-1,3
 30 1494 30 1494 10 1503 c 128,-1,4
 -10 1512 -10 1512 -30.5 1526.5 c 128,-1,5
 -51 1541 -51 1541 -60.5 1563 c 128,-1,6
 -70 1585 -70 1585 -70 1614 c 0,7,8
 -70 1648 -70 1648 -51 1682.5 c 128,-1,9
 -32 1717 -32 1717 -2 1741 c 1,10,-1
 469 1550 l 1,11,-1
 444 1454 l 1,12,-1
 174 1475 l 2,0,1
113 0 m 1,13,-1
 113 1352 l 1,14,-1
 453 1352 l 1,15,-1
 453 0 l 1,16,-1
 113 0 l 1,13,-1
EndSplineSet
Validated: 1
Position2: "'cpsp' Capital Spacing lookup 3 subtable" dx=10 dy=0 dh=20 dv=0
EndChar

StartChar: Imacron
Encoding: 298 298 61
Width: 563
Flags: MW
HStem: 1311 41G<113 453 453 453> 1550 178<94 463 0 563>
VStem: 113 340<0 1352 0 1352>
LayerCount: 2
UndoRedoHistory
Layer: 1
Undoes
EndUndoes
Redoes
EndRedoes
EndUndoRedoHistory
Fore
SplineSet
563 1729 m 1,0,1
 582 1691 582 1691 582 1649 c 0,2,3
 582 1604 582 1604 550.5 1577 c 128,-1,4
 519 1550 519 1550 463 1550 c 2,5,-1
 0 1550 l 1,6,7
 -16 1579 -16 1579 -16 1626 c 128,-1,8
 -16 1673 -16 1673 13.5 1701 c 128,-1,9
 43 1729 43 1729 94 1729 c 2,10,-1
 563 1729 l 1,0,1
113 0 m 1,11,-1
 113 1352 l 1,12,-1
 453 1352 l 1,13,-1
 453 0 l 1,14,-1
 113 0 l 1,11,-1
EndSplineSet
Validated: 1
Position2: "'cpsp' Capital Spacing lookup 3 subtable" dx=10 dy=0 dh=20 dv=0
EndChar

StartChar: Iogonek
Encoding: 302 302 62
Width: 563
Flags: MW
HStem: -524 147<365 393> 0 20<438 465> 1311 41G<113 453 453 453>
VStem: 92 199<-303 -246> 113 340<0 12 25 1352>
LayerCount: 2
UndoRedoHistory
Layer: 1
Undoes
EndUndoes
Redoes
EndRedoes
EndUndoRedoHistory
Fore
SplineSet
438 0 m 1,0,1
 291 -122 291 -122 291 -262 c 0,2,3
 291 -324 291 -324 317.5 -350.5 c 128,-1,4
 344 -377 344 -377 406 -377 c 0,5,6
 437 -377 437 -377 466.5 -365 c 128,-1,7
 496 -353 496 -353 510 -330 c 1,8,9
 549 -357 549 -357 549 -397 c 0,10,11
 549 -441 549 -441 515.5 -471 c 128,-1,12
 482 -501 482 -501 440 -512.5 c 128,-1,13
 398 -524 398 -524 352 -524 c 0,14,15
 237 -524 237 -524 164.5 -470.5 c 128,-1,16
 92 -417 92 -417 92 -313 c 0,17,18
 92 -217 92 -217 149 -137.5 c 128,-1,19
 206 -58 206 -58 301 0 c 1,20,-1
 113 0 l 1,21,-1
 113 1352 l 1,22,-1
 453 1352 l 1,23,-1
 453 25 l 1,24,-1
 465 20 l 1,25,-1
 453 12 l 1,26,-1
 453 0 l 1,27,-1
 438 0 l 1,0,1
EndSplineSet
Validated: 1
Position2: "'cpsp' Capital Spacing lookup 3 subtable" dx=10 dy=0 dh=20 dv=0
EndChar

StartChar: Itilde
Encoding: 296 296 63
Width: 563
Flags: MW
HStem: 1311 41G<113 453 453 453> 1464 195<426 492 422 522> 1509 195<76 140 45 145>
VStem: 113 340<0 1352 0 1352>
LayerCount: 2
UndoRedoHistory
Layer: 1
Undoes
EndUndoes
Redoes
EndRedoes
EndUndoRedoHistory
Fore
SplineSet
592 1696 m 1,0,1
 643 1648 643 1648 643 1581 c 0,2,3
 643 1464 643 1464 477 1464 c 0,4,5
 425 1464 425 1464 285 1486.5 c 128,-1,6
 145 1509 145 1509 96 1509 c 0,7,8
 11 1509 11 1509 -25 1475 c 1,9,10
 -76 1519 -76 1519 -76 1587 c 0,11,12
 -76 1704 -76 1704 90 1704 c 0,13,14
 140 1704 140 1704 281 1681.5 c 128,-1,15
 422 1659 422 1659 471 1659 c 0,16,17
 555 1659 555 1659 592 1696 c 1,0,1
113 0 m 1,18,-1
 113 1352 l 1,19,-1
 453 1352 l 1,20,-1
 453 0 l 1,21,-1
 113 0 l 1,18,-1
EndSplineSet
Validated: 1
Position2: "'cpsp' Capital Spacing lookup 3 subtable" dx=10 dy=0 dh=20 dv=0
EndChar

StartChar: J
Encoding: 74 74 64
Width: 563
Flags: MW
HStem: -360 106 1311 41G<113 453 453 453>
VStem: 113 340<113 178 178 1352>
LayerCount: 2
UndoRedoHistory
Layer: 1
Undoes
EndUndoes
Redoes
EndRedoes
EndUndoRedoHistory
Fore
SplineSet
453 178 m 2,0,1
 453 90 453 90 445 17 c 128,-1,2
 437 -56 437 -56 415 -128.5 c 128,-1,3
 393 -201 393 -201 357.5 -250 c 128,-1,4
 322 -299 322 -299 262 -329.5 c 128,-1,5
 202 -360 202 -360 123 -360 c 0,6,7
 51 -360 51 -360 -7.5 -334.5 c 128,-1,8
 -66 -309 -66 -309 -80 -254 c 1,9,10
 -37 -252 -37 -252 -4 -236.5 c 128,-1,11
 29 -221 29 -221 49.5 -193 c 128,-1,12
 70 -165 70 -165 83 -133.5 c 128,-1,13
 96 -102 96 -102 102.5 -57.5 c 128,-1,14
 109 -13 109 -13 111 24.5 c 128,-1,15
 113 62 113 62 113 113 c 2,16,-1
 113 1352 l 1,17,-1
 453 1352 l 1,18,-1
 453 178 l 2,0,1
EndSplineSet
Validated: 1
Position2: "'cpsp' Capital Spacing lookup 3 subtable" dx=10 dy=0 dh=20 dv=0
EndChar

StartChar: Jcircumflex
Encoding: 308 308 65
Width: 563
Flags: MW
HStem: -360 106 1311 41G<113 453 453 453> 1430 41G<-49 -49 612 612>
VStem: 113 340<113 178 178 1352>
LayerCount: 2
UndoRedoHistory
Layer: 1
Undoes
EndUndoes
Redoes
EndRedoes
EndUndoRedoHistory
Fore
SplineSet
-49 1470 m 1,0,-1
 254 1724 l 1,1,-1
 303 1724 l 1,2,-1
 612 1470 l 1,3,-1
 543 1386 l 1,4,-1
 281 1513 l 1,5,-1
 20 1386 l 1,6,-1
 -49 1470 l 1,0,-1
453 178 m 2,7,8
 453 90 453 90 445 17 c 128,-1,9
 437 -56 437 -56 415 -128.5 c 128,-1,10
 393 -201 393 -201 357.5 -250 c 128,-1,11
 322 -299 322 -299 262 -329.5 c 128,-1,12
 202 -360 202 -360 123 -360 c 0,13,14
 51 -360 51 -360 -7.5 -334.5 c 128,-1,15
 -66 -309 -66 -309 -80 -254 c 1,16,17
 -37 -252 -37 -252 -4 -236.5 c 128,-1,18
 29 -221 29 -221 49.5 -193 c 128,-1,19
 70 -165 70 -165 83 -133.5 c 128,-1,20
 96 -102 96 -102 102.5 -57.5 c 128,-1,21
 109 -13 109 -13 111 24.5 c 128,-1,22
 113 62 113 62 113 113 c 2,23,-1
 113 1352 l 1,24,-1
 453 1352 l 1,25,-1
 453 178 l 2,7,8
EndSplineSet
Validated: 1
Position2: "'cpsp' Capital Spacing lookup 3 subtable" dx=10 dy=0 dh=20 dv=0
EndChar

StartChar: K
Encoding: 75 75 66
Width: 1167
Flags: MW
HStem: 1311 41G<113 453 453 453 831 1174 1174 1174>
VStem: 113 340<0 1352 0 1352>
LayerCount: 2
UndoRedoHistory
Layer: 1
Undoes
EndUndoes
Redoes
EndRedoes
EndUndoRedoHistory
Fore
SplineSet
113 0 m 1,0,-1
 113 1352 l 1,1,-1
 453 1352 l 1,2,-1
 453 0 l 1,3,-1
 113 0 l 1,0,-1
1174 1352 m 1,4,-1
 817 723 l 1,5,-1
 1202 0 l 1,6,-1
 846 0 l 1,7,-1
 494 684 l 1,8,-1
 831 1352 l 1,9,-1
 1174 1352 l 1,4,-1
EndSplineSet
Validated: 1
Position2: "'cpsp' Capital Spacing lookup 3 subtable" dx=10 dy=0 dh=20 dv=0
EndChar

StartChar: Kcommaaccent
Encoding: 310 310 67
Width: 1167
Flags: MW
HStem: 1311 41G<113 453 453 453 831 1174 1174 1174>
VStem: 113 340<0 1352 0 1352> 551 246<-322 -254>
LayerCount: 2
UndoRedoHistory
Layer: 1
Undoes
EndUndoes
Redoes
EndRedoes
EndUndoRedoHistory
Fore
SplineSet
113 1352 m 1,0,-1
 453 1352 l 1,1,-1
 453 0 l 1,2,-1
 113 0 l 1,3,-1
 113 1352 l 1,0,-1
817 723 m 1,4,-1
 1202 0 l 1,5,-1
 846 0 l 1,6,-1
 494 684 l 1,7,-1
 831 1352 l 1,8,-1
 1174 1352 l 1,9,-1
 817 723 l 1,4,-1
629 -104 m 0,10,11
 797 -104 797 -104 797 -262 c 0,12,13
 797 -357 797 -357 724 -432.5 c 128,-1,14
 651 -508 651 -508 551 -508 c 0,15,16
 517 -508 517 -508 475 -498 c 1,17,18
 551 -393 551 -393 551 -283 c 0,19,20
 551 -199 551 -199 508 -131 c 1,21,22
 557 -104 557 -104 629 -104 c 0,10,11
EndSplineSet
Validated: 1
Position2: "'cpsp' Capital Spacing lookup 3 subtable" dx=10 dy=0 dh=20 dv=0
EndChar

StartChar: L
Encoding: 76 76 68
Width: 868
Flags: MW
HStem: 0 168<453 842> 1311 41G<113 453 453 453>
VStem: 113 340<168 1352 168 1352 168 1352>
LayerCount: 2
UndoRedoHistory
Layer: 1
Undoes
EndUndoes
Redoes
EndRedoes
EndUndoRedoHistory
Fore
SplineSet
453 1352 m 1,0,-1
 453 168 l 1,1,-1
 858 168 l 1,2,-1
 842 0 l 1,3,-1
 113 0 l 1,4,-1
 113 1352 l 1,5,-1
 453 1352 l 1,0,-1
EndSplineSet
Validated: 1
Position2: "'cpsp' Capital Spacing lookup 3 subtable" dx=10 dy=0 dh=20 dv=0
EndChar

StartChar: LJ
Encoding: 455 455 69
Width: 1433
Flags: MW
HStem: -360 106 0 168<453 842> 1311 41G<113 453 453 453 981 1321 1321 1321>
VStem: 113 340<168 168 168 1352> 981 340<113 178 178 1352>
LayerCount: 2
UndoRedoHistory
Layer: 1
Undoes
EndUndoes
Redoes
EndRedoes
EndUndoRedoHistory
Fore
SplineSet
453 168 m 1,0,-1
 858 168 l 1,1,-1
 842 0 l 1,2,-1
 113 0 l 1,3,-1
 113 1352 l 1,4,-1
 453 1352 l 1,5,-1
 453 168 l 1,0,-1
1321 178 m 2,6,7
 1321 90 1321 90 1313 17 c 128,-1,8
 1305 -56 1305 -56 1283 -128.5 c 128,-1,9
 1261 -201 1261 -201 1225.5 -250 c 128,-1,10
 1190 -299 1190 -299 1130 -329.5 c 128,-1,11
 1070 -360 1070 -360 991 -360 c 0,12,13
 919 -360 919 -360 860.5 -334.5 c 128,-1,14
 802 -309 802 -309 788 -254 c 1,15,16
 831 -252 831 -252 864 -236.5 c 128,-1,17
 897 -221 897 -221 917.5 -193 c 128,-1,18
 938 -165 938 -165 951 -133.5 c 128,-1,19
 964 -102 964 -102 970.5 -57.5 c 128,-1,20
 977 -13 977 -13 979 24.5 c 128,-1,21
 981 62 981 62 981 113 c 2,22,-1
 981 1352 l 1,23,-1
 1321 1352 l 1,24,-1
 1321 178 l 2,6,7
EndSplineSet
Validated: 1
Position2: "'cpsp' Capital Spacing lookup 3 subtable" dx=10 dy=0 dh=20 dv=0
EndChar

StartChar: Lacute
Encoding: 313 313 70
Width: 868
Flags: MW
HStem: 0 168<453 842> 1311 41G<113 453 453 453>
VStem: 113 340<168 168 168 1352>
LayerCount: 2
UndoRedoHistory
Layer: 1
Undoes
EndUndoes
Redoes
EndRedoes
EndUndoRedoHistory
Fore
SplineSet
567 1739 m 1,0,1
 597 1715 597 1715 616 1680.5 c 128,-1,2
 635 1646 635 1646 635 1612 c 0,3,4
 635 1583 635 1583 625.5 1561 c 128,-1,5
 616 1539 616 1539 595.5 1524.5 c 128,-1,6
 575 1510 575 1510 555 1501 c 128,-1,7
 535 1492 535 1492 502.5 1486 c 128,-1,8
 470 1480 470 1480 448.5 1478 c 128,-1,9
 427 1476 427 1476 391 1473 c 2,10,-1
 121 1452 l 1,11,-1
 96 1548 l 1,12,-1
 567 1739 l 1,0,1
453 168 m 1,13,-1
 858 168 l 1,14,-1
 842 0 l 1,15,-1
 113 0 l 1,16,-1
 113 1352 l 1,17,-1
 453 1352 l 1,18,-1
 453 168 l 1,13,-1
EndSplineSet
Validated: 1
Position2: "'cpsp' Capital Spacing lookup 3 subtable" dx=10 dy=0 dh=20 dv=0
EndChar

StartChar: Lcaron
Encoding: 317 317 71
Width: 868
Flags: MW
HStem: 0 168<453 842> 1085 266<113 689> 1434 41G<669 734>
VStem: 113 340<168 168 168 1352> 616 219<1256 1320>
LayerCount: 2
UndoRedoHistory
Layer: 1
Undoes
EndUndoes
Redoes
EndRedoes
EndUndoRedoHistory
Fore
SplineSet
573 1446 m 1,0,1
 613 1475 613 1475 688 1475 c 0,2,3
 758 1475 758 1475 797 1432 c 128,-1,4
 836 1389 836 1389 836 1307 c 128,-1,5
 836 1225 836 1225 776.5 1155 c 128,-1,6
 717 1085 717 1085 623 1085 c 0,7,8
 588 1085 588 1085 555 1098 c 1,9,10
 616 1183 616 1183 616 1292 c 0,11,12
 616 1373 616 1373 573 1446 c 1,0,1
453 168 m 1,13,-1
 858 168 l 1,14,-1
 842 0 l 1,15,-1
 113 0 l 1,16,-1
 113 1352 l 1,17,-1
 453 1352 l 1,18,-1
 453 168 l 1,13,-1
EndSplineSet
Validated: 1
Position2: "'cpsp' Capital Spacing lookup 3 subtable" dx=10 dy=0 dh=20 dv=0
EndChar

StartChar: Lcommaaccent
Encoding: 315 315 72
Width: 868
Flags: MW
HStem: 0 168<453 842> 1311 41G<113 453 453 453>
VStem: 113 340<168 168 168 1352> 387 246<-322 -254>
LayerCount: 2
UndoRedoHistory
Layer: 1
Undoes
EndUndoes
Redoes
EndRedoes
EndUndoRedoHistory
Fore
SplineSet
453 168 m 1,0,-1
 858 168 l 1,1,-1
 842 0 l 1,2,-1
 113 0 l 1,3,-1
 113 1352 l 1,4,-1
 453 1352 l 1,5,-1
 453 168 l 1,0,-1
465 -104 m 0,6,7
 633 -104 633 -104 633 -262 c 0,8,9
 633 -357 633 -357 560 -432.5 c 128,-1,10
 487 -508 487 -508 387 -508 c 0,11,12
 353 -508 353 -508 311 -498 c 1,13,14
 387 -393 387 -393 387 -283 c 0,15,16
 387 -199 387 -199 344 -131 c 1,17,18
 393 -104 393 -104 465 -104 c 0,6,7
EndSplineSet
Validated: 1
Position2: "'cpsp' Capital Spacing lookup 3 subtable" dx=10 dy=0 dh=20 dv=0
EndChar

StartChar: Ldot
Encoding: 319 319 73
Width: 909
Flags: MW
HStem: 0 168<453 842> 557 262<674 742> 1311 41G<113 453 453 453>
VStem: 113 340<168 168 168 1352> 578 260<649 728>
LayerCount: 2
UndoRedoHistory
Layer: 1
Undoes
EndUndoes
Redoes
EndRedoes
EndUndoRedoHistory
Fore
SplineSet
453 168 m 1,0,-1
 858 168 l 1,1,-1
 842 0 l 1,2,-1
 113 0 l 1,3,-1
 113 1352 l 1,4,-1
 453 1352 l 1,5,-1
 453 168 l 1,0,-1
711 819 m 0,6,7
 767 819 767 819 802.5 784 c 128,-1,8
 838 749 838 749 838 690 c 0,9,10
 838 630 838 630 800.5 593.5 c 128,-1,11
 763 557 763 557 705 557 c 0,12,13
 648 557 648 557 613 592.5 c 128,-1,14
 578 628 578 628 578 686 c 0,15,16
 578 747 578 747 616 783 c 128,-1,17
 654 819 654 819 711 819 c 0,6,7
EndSplineSet
Validated: 1
Ligature2: "Ligature Substitution lookup 20 subtable" L periodcentered
Position2: "'cpsp' Capital Spacing lookup 3 subtable" dx=10 dy=0 dh=20 dv=0
EndChar

StartChar: Lj
Encoding: 456 456 74
Width: 1431
Flags: MW
HStem: -410 96 0 168<453 842> 1004 41G<995 1309 1309 1309> 1212 295<1104 1204> 1311 41G<113 453 453 453>
VStem: 113 340<168 168 168 1352> 965 377<1311 1405> 995 313<29 84 84 1044>
LayerCount: 2
UndoRedoHistory
Layer: 1
Undoes
EndUndoes
Redoes
EndRedoes
EndUndoRedoHistory
Fore
SplineSet
1157 1507 m 128,-1,1
 1240 1507 1240 1507 1290.5 1468 c 128,-1,2
 1341 1429 1341 1429 1341 1360 c 0,3,4
 1341 1289 1341 1289 1287.5 1250.5 c 128,-1,5
 1234 1212 1234 1212 1151 1212 c 0,6,7
 1069 1212 1069 1212 1017 1250 c 128,-1,8
 965 1288 965 1288 965 1356 c 0,9,10
 965 1427 965 1427 1019.5 1467 c 128,-1,0
 1074 1507 1074 1507 1157 1507 c 128,-1,1
453 168 m 1,11,-1
 858 168 l 1,12,-1
 842 0 l 1,13,-1
 113 0 l 1,14,-1
 113 1352 l 1,15,-1
 453 1352 l 1,16,-1
 453 168 l 1,11,-1
1309 84 m 2,17,18
 1309 -410 1309 -410 999 -410 c 0,19,20
 956 -410 956 -410 919 -401.5 c 128,-1,21
 882 -393 882 -393 850.5 -370.5 c 128,-1,22
 819 -348 819 -348 811 -313 c 1,23,24
 870 -309 870 -309 908.5 -280 c 128,-1,25
 947 -251 947 -251 965 -198.5 c 128,-1,26
 983 -146 983 -146 989 -94.5 c 128,-1,27
 995 -43 995 -43 995 29 c 2,28,-1
 995 1044 l 1,29,-1
 1309 1044 l 1,30,-1
 1309 84 l 2,17,18
EndSplineSet
Validated: 1
Position2: "'cpsp' Capital Spacing lookup 3 subtable" dx=10 dy=0 dh=20 dv=0
EndChar

StartChar: Lslash
Encoding: 321 321 75
Width: 972
Flags: MW
HStem: 0 168<555 944> 1311 41G<215 555 555 555>
VStem: 215 340<168 512 512 512 831 1352>
LayerCount: 2
UndoRedoHistory
Layer: 1
Undoes
EndUndoes
Redoes
EndRedoes
EndUndoRedoHistory
Fore
SplineSet
37 444 m 1,0,1
 -10 498 -10 498 -10 549 c 0,2,3
 -10 617 -10 617 70 647 c 1,4,-1
 215 705 l 1,5,-1
 215 1352 l 1,6,-1
 555 1352 l 1,7,-1
 555 831 l 1,8,-1
 788 922 l 1,9,10
 834 870 834 870 834 817 c 0,11,12
 834 746 834 746 756 717 c 1,13,-1
 555 639 l 1,14,-1
 555 168 l 1,15,-1
 963 168 l 1,16,-1
 944 0 l 1,17,-1
 215 0 l 1,18,-1
 215 512 l 1,19,-1
 37 444 l 1,0,1
EndSplineSet
Validated: 1
Position2: "'cpsp' Capital Spacing lookup 3 subtable" dx=10 dy=0 dh=20 dv=0
EndChar

StartChar: M
Encoding: 77 77 76
Width: 1634
Flags: MW
HStem: 1090 262<326 326> 1311 41G<113 575 575 575 1069 1522 1522 1522>
VStem: 113 213<0 1090 0 1352> 1182 340<0 1087 1087 1087>
LayerCount: 2
UndoRedoHistory
Layer: 1
Undoes
EndUndoes
Redoes
EndRedoes
EndUndoRedoHistory
Fore
SplineSet
1522 0 m 1,0,-1
 1182 0 l 1,1,-1
 1182 1087 l 1,2,-1
 852 0 l 1,3,-1
 655 0 l 1,4,-1
 326 1090 l 1,5,-1
 326 0 l 1,6,-1
 113 0 l 1,7,-1
 113 1352 l 1,8,-1
 575 1352 l 1,9,-1
 823 489 l 1,10,-1
 1069 1352 l 1,11,-1
 1522 1352 l 1,12,-1
 1522 0 l 1,0,-1
EndSplineSet
Validated: 1
Position2: "'cpsp' Capital Spacing lookup 3 subtable" dx=10 dy=0 dh=20 dv=0
EndChar

StartChar: N
Encoding: 78 78 77
Width: 1265
Flags: MW
HStem: 1311 41G<113 461 461 461 942 1153 1153 1153>
VStem: 113 213<0 965 0 1352> 942 211<387 1352 0 1352>
LayerCount: 2
UndoRedoHistory
Layer: 1
Undoes
EndUndoes
Redoes
EndRedoes
EndUndoRedoHistory
Fore
SplineSet
326 965 m 1,0,-1
 326 0 l 1,1,-1
 113 0 l 1,2,-1
 113 1352 l 1,3,-1
 461 1352 l 1,4,-1
 942 387 l 1,5,-1
 942 1352 l 1,6,-1
 1153 1352 l 1,7,-1
 1153 0 l 1,8,-1
 807 0 l 1,9,-1
 326 965 l 1,0,-1
EndSplineSet
Validated: 1
Position2: "'cpsp' Capital Spacing lookup 3 subtable" dx=10 dy=0 dh=20 dv=0
EndChar

StartChar: NJ
Encoding: 458 458 78
Width: 1830
Flags: MW
HStem: -360 106 1311 41G<113 461 461 461 942 1153 1153 1153 1378 1718 1718 1718>
VStem: 113 213<0 965> 942 211<387 1352 0 1352> 1378 340<113 178 178 1352>
LayerCount: 2
UndoRedoHistory
Layer: 1
Undoes
EndUndoes
Redoes
EndRedoes
EndUndoRedoHistory
Fore
SplineSet
326 0 m 1,0,-1
 113 0 l 1,1,-1
 113 1352 l 1,2,-1
 461 1352 l 1,3,-1
 942 387 l 1,4,-1
 942 1352 l 1,5,-1
 1153 1352 l 1,6,-1
 1153 0 l 1,7,-1
 807 0 l 1,8,-1
 326 965 l 1,9,-1
 326 0 l 1,0,-1
1718 178 m 2,10,11
 1718 89 1718 89 1710.5 16.5 c 128,-1,12
 1703 -56 1703 -56 1681 -128.5 c 128,-1,13
 1659 -201 1659 -201 1623.5 -250 c 128,-1,14
 1588 -299 1588 -299 1528 -329.5 c 128,-1,15
 1468 -360 1468 -360 1389 -360 c 0,16,17
 1317 -360 1317 -360 1258.5 -334.5 c 128,-1,18
 1200 -309 1200 -309 1186 -254 c 1,19,20
 1229 -252 1229 -252 1262 -236.5 c 128,-1,21
 1295 -221 1295 -221 1315 -193 c 128,-1,22
 1335 -165 1335 -165 1348.5 -133.5 c 128,-1,23
 1362 -102 1362 -102 1368 -57 c 128,-1,24
 1374 -12 1374 -12 1376 25 c 128,-1,25
 1378 62 1378 62 1378 113 c 2,26,-1
 1378 1352 l 1,27,-1
 1718 1352 l 1,28,-1
 1718 178 l 2,10,11
EndSplineSet
Validated: 1
Position2: "'cpsp' Capital Spacing lookup 3 subtable" dx=10 dy=0 dh=20 dv=0
EndChar

StartChar: Nacute
Encoding: 323 323 79
Width: 1265
Flags: MW
HStem: 1311 41G<113 461 461 461 942 1153 1153 1153>
VStem: 113 213<0 965> 942 211<387 1352 0 1352>
LayerCount: 2
UndoRedoHistory
Layer: 1
Undoes
EndUndoes
Redoes
EndRedoes
EndUndoRedoHistory
Fore
SplineSet
915 1739 m 1,0,1
 945 1715 945 1715 964 1680.5 c 128,-1,2
 983 1646 983 1646 983 1612 c 0,3,4
 983 1583 983 1583 973.5 1561 c 128,-1,5
 964 1539 964 1539 943.5 1524.5 c 128,-1,6
 923 1510 923 1510 903 1501 c 128,-1,7
 883 1492 883 1492 850.5 1486 c 128,-1,8
 818 1480 818 1480 796.5 1478 c 128,-1,9
 775 1476 775 1476 739 1473 c 2,10,-1
 469 1452 l 1,11,-1
 444 1548 l 1,12,-1
 915 1739 l 1,0,1
326 0 m 1,13,-1
 113 0 l 1,14,-1
 113 1352 l 1,15,-1
 461 1352 l 1,16,-1
 942 387 l 1,17,-1
 942 1352 l 1,18,-1
 1153 1352 l 1,19,-1
 1153 0 l 1,20,-1
 807 0 l 1,21,-1
 326 965 l 1,22,-1
 326 0 l 1,13,-1
EndSplineSet
Validated: 1
Substitution2: "'locl' Localized Forms in Latin lookup 13 subtable" Nacute.loclPLK
Substitution2: "'aalt' Access All Alternates lookup 0 subtable" Nacute.loclPLK
Position2: "'cpsp' Capital Spacing lookup 3 subtable" dx=10 dy=0 dh=20 dv=0
EndChar

StartChar: Ncaron
Encoding: 327 327 80
Width: 1265
Flags: MW
HStem: 1311 41G<113 461 461 461 942 1153 1153 1153>
VStem: 113 213<0 965> 942 211<387 1352 0 1352>
LayerCount: 2
UndoRedoHistory
Layer: 1
Undoes
EndUndoes
Redoes
EndRedoes
EndUndoRedoHistory
Fore
SplineSet
958 1649 m 1,0,-1
 666 1415 l 1,1,-1
 596 1415 l 1,2,-1
 297 1649 l 1,3,-1
 367 1733 l 1,4,-1
 629 1616 l 1,5,-1
 889 1733 l 1,6,-1
 958 1649 l 1,0,-1
326 0 m 1,7,-1
 113 0 l 1,8,-1
 113 1352 l 1,9,-1
 461 1352 l 1,10,-1
 942 387 l 1,11,-1
 942 1352 l 1,12,-1
 1153 1352 l 1,13,-1
 1153 0 l 1,14,-1
 807 0 l 1,15,-1
 326 965 l 1,16,-1
 326 0 l 1,7,-1
EndSplineSet
Validated: 1
Position2: "'cpsp' Capital Spacing lookup 3 subtable" dx=10 dy=0 dh=20 dv=0
EndChar

StartChar: Ncommaaccent
Encoding: 325 325 81
Width: 1265
Flags: MW
HStem: 1311 41G<113 461 461 461 942 1153 1153 1153>
VStem: 113 213<0 965> 535 246<-322 -254> 942 211<387 1352 0 1352>
LayerCount: 2
UndoRedoHistory
Layer: 1
Undoes
EndUndoes
Redoes
EndRedoes
EndUndoRedoHistory
Fore
SplineSet
326 0 m 1,0,-1
 113 0 l 1,1,-1
 113 1352 l 1,2,-1
 461 1352 l 1,3,-1
 942 387 l 1,4,-1
 942 1352 l 1,5,-1
 1153 1352 l 1,6,-1
 1153 0 l 1,7,-1
 807 0 l 1,8,-1
 326 965 l 1,9,-1
 326 0 l 1,0,-1
612 -104 m 0,10,11
 780 -104 780 -104 780 -262 c 0,12,13
 780 -357 780 -357 707.5 -432.5 c 128,-1,14
 635 -508 635 -508 535 -508 c 0,15,16
 501 -508 501 -508 459 -498 c 1,17,18
 535 -393 535 -393 535 -283 c 0,19,20
 535 -199 535 -199 492 -131 c 1,21,22
 541 -104 541 -104 612 -104 c 0,10,11
EndSplineSet
Validated: 1
Position2: "'cpsp' Capital Spacing lookup 3 subtable" dx=10 dy=0 dh=20 dv=0
EndChar

StartChar: Ndotaccent
Encoding: 7748 7748 82
Width: 1265
Flags: MW
HStem: 1311 41G<113 461 461 461 942 1153 1153 1153> 1499 295<588 688>
VStem: 113 213<0 965> 449 377<1597 1692> 942 211<387 1352 0 1352>
LayerCount: 2
UndoRedoHistory
Layer: 1
Undoes
EndUndoes
Redoes
EndRedoes
EndUndoRedoHistory
Fore
SplineSet
641 1794 m 128,-1,1
 724 1794 724 1794 774.5 1755 c 128,-1,2
 825 1716 825 1716 825 1647 c 0,3,4
 825 1576 825 1576 771.5 1537.5 c 128,-1,5
 718 1499 718 1499 635 1499 c 128,-1,6
 552 1499 552 1499 500.5 1536.5 c 128,-1,7
 449 1574 449 1574 449 1642 c 0,8,9
 449 1713 449 1713 503.5 1753.5 c 128,-1,0
 558 1794 558 1794 641 1794 c 128,-1,1
326 0 m 1,10,-1
 113 0 l 1,11,-1
 113 1352 l 1,12,-1
 461 1352 l 1,13,-1
 942 387 l 1,14,-1
 942 1352 l 1,15,-1
 1153 1352 l 1,16,-1
 1153 0 l 1,17,-1
 807 0 l 1,18,-1
 326 965 l 1,19,-1
 326 0 l 1,10,-1
EndSplineSet
Validated: 1
Position2: "'cpsp' Capital Spacing lookup 3 subtable" dx=10 dy=0 dh=20 dv=0
EndChar

StartChar: Eng
Encoding: 330 330 83
Width: 1265
Flags: MW
HStem: -371 74 1311 41G<113 461 461 461 942 1153 1153 1153>
VStem: 113 213<0 954 0 1352> 942 211<397 1352>
LayerCount: 2
UndoRedoHistory
Layer: 1
Undoes
EndUndoes
Redoes
EndRedoes
EndUndoRedoHistory
Fore
SplineSet
1153 1352 m 1,0,-1
 1153 96 l 2,1,2
 1153 41 1153 41 1151.5 0.5 c 128,-1,3
 1150 -40 1150 -40 1145 -92 c 128,-1,4
 1140 -144 1140 -144 1130.5 -180.5 c 128,-1,5
 1121 -217 1121 -217 1103.5 -255.5 c 128,-1,6
 1086 -294 1086 -294 1061.5 -317.5 c 128,-1,7
 1037 -341 1037 -341 1000.5 -356 c 128,-1,8
 964 -371 964 -371 918 -371 c 0,9,10
 867 -371 867 -371 827.5 -352 c 128,-1,11
 788 -333 788 -333 778 -297 c 1,12,13
 819 -294 819 -294 850 -275.5 c 128,-1,14
 881 -257 881 -257 898.5 -230 c 128,-1,15
 916 -203 916 -203 927.5 -163 c 128,-1,16
 939 -123 939 -123 943 -85.5 c 128,-1,17
 947 -48 947 -48 948 0 c 1,18,-1
 807 0 l 1,19,-1
 326 954 l 1,20,-1
 326 0 l 1,21,-1
 113 0 l 1,22,-1
 113 1352 l 1,23,-1
 461 1352 l 1,24,-1
 942 397 l 1,25,-1
 942 1352 l 1,26,-1
 1153 1352 l 1,0,-1
EndSplineSet
Validated: 1
Position2: "'cpsp' Capital Spacing lookup 3 subtable" dx=10 dy=0 dh=20 dv=0
EndChar

StartChar: Nj
Encoding: 459 459 84
Width: 1828
Flags: MW
HStem: -410 96 1004 41G<1393 1706 1706 1706> 1212 295<1501 1602> 1311 41G<113 461 461 461 942 1153 1153 1153>
VStem: 113 213<0 965> 942 211<387 1352 0 1352> 1362 377<1311 1405> 1393 313<29 84 84 1044>
LayerCount: 2
UndoRedoHistory
Layer: 1
Undoes
EndUndoes
Redoes
EndRedoes
EndUndoRedoHistory
Fore
SplineSet
1554 1507 m 128,-1,1
 1637 1507 1637 1507 1688 1468 c 128,-1,2
 1739 1429 1739 1429 1739 1360 c 0,3,4
 1739 1289 1739 1289 1685 1250.5 c 128,-1,5
 1631 1212 1631 1212 1548 1212 c 0,6,7
 1466 1212 1466 1212 1414 1250 c 128,-1,8
 1362 1288 1362 1288 1362 1356 c 0,9,10
 1362 1427 1362 1427 1416.5 1467 c 128,-1,0
 1471 1507 1471 1507 1554 1507 c 128,-1,1
326 0 m 1,11,-1
 113 0 l 1,12,-1
 113 1352 l 1,13,-1
 461 1352 l 1,14,-1
 942 387 l 1,15,-1
 942 1352 l 1,16,-1
 1153 1352 l 1,17,-1
 1153 0 l 1,18,-1
 807 0 l 1,19,-1
 326 965 l 1,20,-1
 326 0 l 1,11,-1
1706 84 m 2,21,22
 1706 2 1706 2 1698.5 -65.5 c 128,-1,23
 1691 -133 1691 -133 1670 -199 c 128,-1,24
 1649 -265 1649 -265 1615 -310 c 128,-1,25
 1581 -355 1581 -355 1525.5 -382.5 c 128,-1,26
 1470 -410 1470 -410 1397 -410 c 0,27,28
 1354 -410 1354 -410 1317 -401.5 c 128,-1,29
 1280 -393 1280 -393 1248 -370.5 c 128,-1,30
 1216 -348 1216 -348 1208 -313 c 1,31,32
 1248 -311 1248 -311 1278.5 -296.5 c 128,-1,33
 1309 -282 1309 -282 1329 -256.5 c 128,-1,34
 1349 -231 1349 -231 1362 -201 c 128,-1,35
 1375 -171 1375 -171 1381.5 -130.5 c 128,-1,36
 1388 -90 1388 -90 1390.5 -53.5 c 128,-1,37
 1393 -17 1393 -17 1393 29 c 2,38,-1
 1393 1044 l 1,39,-1
 1706 1044 l 1,40,-1
 1706 84 l 2,21,22
EndSplineSet
Validated: 1
Position2: "'cpsp' Capital Spacing lookup 3 subtable" dx=10 dy=0 dh=20 dv=0
EndChar

StartChar: Ntilde
Encoding: 209 209 85
Width: 1265
Flags: MW
HStem: 1311 41G<113 461 461 461 942 1153 1153 1153> 1464 195<776 842 772 872> 1509 195<426 490 395 496>
VStem: 113 213<0 965> 942 211<387 1352 0 1352>
LayerCount: 2
UndoRedoHistory
Layer: 1
Undoes
EndUndoes
Redoes
EndRedoes
EndUndoRedoHistory
Fore
SplineSet
942 1696 m 1,0,1
 993 1648 993 1648 993 1581 c 0,2,3
 993 1464 993 1464 827 1464 c 0,4,5
 776 1464 776 1464 635.5 1486.5 c 128,-1,6
 495 1509 495 1509 446 1509 c 0,7,8
 362 1509 362 1509 326 1475 c 1,9,10
 303 1495 303 1495 288.5 1525.5 c 128,-1,11
 274 1556 274 1556 274 1587 c 0,12,13
 274 1704 274 1704 440 1704 c 0,14,15
 490 1704 490 1704 631 1681.5 c 128,-1,16
 772 1659 772 1659 821 1659 c 0,17,18
 905 1659 905 1659 942 1696 c 1,0,1
326 0 m 1,19,-1
 113 0 l 1,20,-1
 113 1352 l 1,21,-1
 461 1352 l 1,22,-1
 942 387 l 1,23,-1
 942 1352 l 1,24,-1
 1153 1352 l 1,25,-1
 1153 0 l 1,26,-1
 807 0 l 1,27,-1
 326 965 l 1,28,-1
 326 0 l 1,19,-1
EndSplineSet
Validated: 1
Position2: "'cpsp' Capital Spacing lookup 3 subtable" dx=10 dy=0 dh=20 dv=0
EndChar

StartChar: O
Encoding: 79 79 86
Width: 1282
Flags: MW
HStem: -45 147<538 744 538 852> 1245 147<540 742>
VStem: 55 365<561 800 561 878> 860 367<561 800>
LayerCount: 2
UndoRedoHistory
Layer: 1
Undoes
EndUndoes
Redoes
EndRedoes
EndUndoRedoHistory
Fore
SplineSet
641 1393 m 0,0,1
 795 1393 795 1393 909 1343.5 c 128,-1,2
 1023 1294 1023 1294 1092 1200.5 c 128,-1,3
 1161 1107 1161 1107 1194 981 c 128,-1,4
 1227 855 1227 855 1227 694 c 0,5,6
 1227 565 1227 565 1207 455 c 128,-1,7
 1187 345 1187 345 1142 251.5 c 128,-1,8
 1097 158 1097 158 1029.5 93 c 128,-1,9
 962 28 962 28 863.5 -8.5 c 128,-1,10
 765 -45 765 -45 641 -45 c 0,11,12
 520 -45 520 -45 422 -10.5 c 128,-1,13
 324 24 324 24 256 86.5 c 128,-1,14
 188 149 188 149 142.5 238.5 c 128,-1,15
 97 328 97 328 76 435 c 128,-1,16
 55 542 55 542 55 668 c 0,17,18
 55 797 55 797 75.5 905 c 128,-1,19
 96 1013 96 1013 140.5 1104.5 c 128,-1,20
 185 1196 185 1196 253 1259 c 128,-1,21
 321 1322 321 1322 419 1357.5 c 128,-1,22
 517 1393 517 1393 641 1393 c 0,0,1
641 102 m 128,-1,24
 684 102 684 102 718 122 c 128,-1,25
 752 142 752 142 775 173.5 c 128,-1,26
 798 205 798 205 814 255 c 128,-1,27
 830 305 830 305 839 351.5 c 128,-1,28
 848 398 848 398 853 462 c 128,-1,29
 858 526 858 526 859 573 c 128,-1,30
 860 620 860 620 860 682 c 0,31,32
 860 741 860 741 858.5 788 c 128,-1,33
 857 835 857 835 852 896 c 128,-1,34
 847 957 847 957 838 1003.5 c 128,-1,35
 829 1050 829 1050 812.5 1097.5 c 128,-1,36
 796 1145 796 1145 773.5 1175.5 c 128,-1,37
 751 1206 751 1206 717 1225.5 c 128,-1,38
 683 1245 683 1245 641 1245 c 0,39,40
 592 1245 592 1245 554.5 1220.5 c 128,-1,41
 517 1196 517 1196 493.5 1150.5 c 128,-1,42
 470 1105 470 1105 454.5 1053.5 c 128,-1,43
 439 1002 439 1002 432 932 c 128,-1,44
 425 862 425 862 422.5 806.5 c 128,-1,45
 420 751 420 751 420 682 c 0,46,47
 420 621 420 621 421.5 573 c 128,-1,48
 423 525 423 525 428 462 c 128,-1,49
 433 399 433 399 442 351.5 c 128,-1,50
 451 304 451 304 467.5 254.5 c 128,-1,51
 484 205 484 205 506.5 173.5 c 128,-1,52
 529 142 529 142 563.5 122 c 128,-1,23
 598 102 598 102 641 102 c 128,-1,24
EndSplineSet
Validated: 1
Substitution2: "Single Substitution lookup 21 subtable" ordmasculine
Substitution2: "'aalt' Access All Alternates lookup 0 subtable" ordmasculine
Position2: "'cpsp' Capital Spacing lookup 3 subtable" dx=10 dy=0 dh=20 dv=0
EndChar

StartChar: Oacute
Encoding: 211 211 87
Width: 1282
Flags: MW
HStem: -45 147<538 744 538 852> 1245 147<540 742>
VStem: 55 365<561 800 561 878> 860 367<561 800>
LayerCount: 2
UndoRedoHistory
Layer: 1
Undoes
EndUndoes
Redoes
EndRedoes
EndUndoRedoHistory
Fore
SplineSet
926 1739 m 1,0,1
 956 1715 956 1715 974.5 1681 c 128,-1,2
 993 1647 993 1647 993 1612 c 0,3,4
 993 1583 993 1583 983.5 1561 c 128,-1,5
 974 1539 974 1539 954 1524.5 c 128,-1,6
 934 1510 934 1510 914 1501 c 128,-1,7
 894 1492 894 1492 861.5 1486 c 128,-1,8
 829 1480 829 1480 807.5 1478 c 128,-1,9
 786 1476 786 1476 750 1473 c 2,10,-1
 479 1452 l 1,11,-1
 455 1548 l 1,12,-1
 926 1739 l 1,0,1
641 1393 m 0,13,14
 795 1393 795 1393 909 1343.5 c 128,-1,15
 1023 1294 1023 1294 1092 1200.5 c 128,-1,16
 1161 1107 1161 1107 1194 981 c 128,-1,17
 1227 855 1227 855 1227 694 c 0,18,19
 1227 565 1227 565 1207 455 c 128,-1,20
 1187 345 1187 345 1142 251.5 c 128,-1,21
 1097 158 1097 158 1029.5 93 c 128,-1,22
 962 28 962 28 863.5 -8.5 c 128,-1,23
 765 -45 765 -45 641 -45 c 0,24,25
 520 -45 520 -45 422 -10.5 c 128,-1,26
 324 24 324 24 256 86.5 c 128,-1,27
 188 149 188 149 142.5 238.5 c 128,-1,28
 97 328 97 328 76 435 c 128,-1,29
 55 542 55 542 55 668 c 0,30,31
 55 797 55 797 75.5 905 c 128,-1,32
 96 1013 96 1013 140.5 1104.5 c 128,-1,33
 185 1196 185 1196 253 1259 c 128,-1,34
 321 1322 321 1322 419 1357.5 c 128,-1,35
 517 1393 517 1393 641 1393 c 0,13,14
641 102 m 128,-1,37
 684 102 684 102 718 122 c 128,-1,38
 752 142 752 142 775 173.5 c 128,-1,39
 798 205 798 205 814 255 c 128,-1,40
 830 305 830 305 839 351.5 c 128,-1,41
 848 398 848 398 853 462 c 128,-1,42
 858 526 858 526 859 573 c 128,-1,43
 860 620 860 620 860 682 c 0,44,45
 860 741 860 741 858.5 788 c 128,-1,46
 857 835 857 835 852 896 c 128,-1,47
 847 957 847 957 838 1003.5 c 128,-1,48
 829 1050 829 1050 812.5 1097.5 c 128,-1,49
 796 1145 796 1145 773.5 1175.5 c 128,-1,50
 751 1206 751 1206 717 1225.5 c 128,-1,51
 683 1245 683 1245 641 1245 c 0,52,53
 592 1245 592 1245 554.5 1220.5 c 128,-1,54
 517 1196 517 1196 493.5 1150.5 c 128,-1,55
 470 1105 470 1105 454.5 1053.5 c 128,-1,56
 439 1002 439 1002 432 932 c 128,-1,57
 425 862 425 862 422.5 806.5 c 128,-1,58
 420 751 420 751 420 682 c 0,59,60
 420 621 420 621 421.5 573 c 128,-1,61
 423 525 423 525 428 462 c 128,-1,62
 433 399 433 399 442 351.5 c 128,-1,63
 451 304 451 304 467.5 254.5 c 128,-1,64
 484 205 484 205 506.5 173.5 c 128,-1,65
 529 142 529 142 563.5 122 c 128,-1,36
 598 102 598 102 641 102 c 128,-1,37
EndSplineSet
Validated: 1
Substitution2: "'locl' Localized Forms in Latin lookup 13 subtable" Oacute.loclPLK
Substitution2: "'aalt' Access All Alternates lookup 0 subtable" Oacute.loclPLK
Position2: "'cpsp' Capital Spacing lookup 3 subtable" dx=10 dy=0 dh=20 dv=0
EndChar

StartChar: Obreve
Encoding: 334 334 88
Width: 1282
Flags: MW
HStem: -45 147<538 744 538 852> 1245 147<540 742> 1419 106<587 694 587 764>
VStem: 55 365<561 800 561 878> 287 246<1656 1700 1656 1700> 748 246<1656 1700> 860 367<561 800>
LayerCount: 2
UndoRedoHistory
Layer: 1
Undoes
EndUndoes
Redoes
EndRedoes
EndUndoRedoHistory
Fore
SplineSet
993 1700 m 1,0,1
 993 1567 993 1567 906.5 1493 c 128,-1,2
 820 1419 820 1419 641 1419 c 0,3,4
 461 1419 461 1419 374 1493 c 128,-1,5
 287 1567 287 1567 287 1700 c 1,6,-1
 532 1700 l 1,7,8
 532 1665 532 1665 533 1647 c 128,-1,9
 534 1629 534 1629 539.5 1601.5 c 128,-1,10
 545 1574 545 1574 555.5 1560.5 c 128,-1,11
 566 1547 566 1547 587.5 1536.5 c 128,-1,12
 609 1526 609 1526 641 1526 c 0,13,14
 672 1526 672 1526 693 1536.5 c 128,-1,15
 714 1547 714 1547 724.5 1561 c 128,-1,16
 735 1575 735 1575 740.5 1602 c 128,-1,17
 746 1629 746 1629 747 1647.5 c 128,-1,18
 748 1666 748 1666 748 1700 c 1,19,-1
 993 1700 l 1,0,1
641 1393 m 0,20,21
 795 1393 795 1393 909 1343.5 c 128,-1,22
 1023 1294 1023 1294 1092 1200.5 c 128,-1,23
 1161 1107 1161 1107 1194 981 c 128,-1,24
 1227 855 1227 855 1227 694 c 0,25,26
 1227 565 1227 565 1207 455 c 128,-1,27
 1187 345 1187 345 1142 251.5 c 128,-1,28
 1097 158 1097 158 1029.5 93 c 128,-1,29
 962 28 962 28 863.5 -8.5 c 128,-1,30
 765 -45 765 -45 641 -45 c 0,31,32
 520 -45 520 -45 422 -10.5 c 128,-1,33
 324 24 324 24 256 86.5 c 128,-1,34
 188 149 188 149 142.5 238.5 c 128,-1,35
 97 328 97 328 76 435 c 128,-1,36
 55 542 55 542 55 668 c 0,37,38
 55 797 55 797 75.5 905 c 128,-1,39
 96 1013 96 1013 140.5 1104.5 c 128,-1,40
 185 1196 185 1196 253 1259 c 128,-1,41
 321 1322 321 1322 419 1357.5 c 128,-1,42
 517 1393 517 1393 641 1393 c 0,20,21
641 102 m 128,-1,44
 684 102 684 102 718 122 c 128,-1,45
 752 142 752 142 775 173.5 c 128,-1,46
 798 205 798 205 814 255 c 128,-1,47
 830 305 830 305 839 351.5 c 128,-1,48
 848 398 848 398 853 462 c 128,-1,49
 858 526 858 526 859 573 c 128,-1,50
 860 620 860 620 860 682 c 0,51,52
 860 741 860 741 858.5 788 c 128,-1,53
 857 835 857 835 852 896 c 128,-1,54
 847 957 847 957 838 1003.5 c 128,-1,55
 829 1050 829 1050 812.5 1097.5 c 128,-1,56
 796 1145 796 1145 773.5 1175.5 c 128,-1,57
 751 1206 751 1206 717 1225.5 c 128,-1,58
 683 1245 683 1245 641 1245 c 0,59,60
 592 1245 592 1245 554.5 1220.5 c 128,-1,61
 517 1196 517 1196 493.5 1150.5 c 128,-1,62
 470 1105 470 1105 454.5 1053.5 c 128,-1,63
 439 1002 439 1002 432 932 c 128,-1,64
 425 862 425 862 422.5 806.5 c 128,-1,65
 420 751 420 751 420 682 c 0,66,67
 420 621 420 621 421.5 573 c 128,-1,68
 423 525 423 525 428 462 c 128,-1,69
 433 399 433 399 442 351.5 c 128,-1,70
 451 304 451 304 467.5 254.5 c 128,-1,71
 484 205 484 205 506.5 173.5 c 128,-1,72
 529 142 529 142 563.5 122 c 128,-1,43
 598 102 598 102 641 102 c 128,-1,44
EndSplineSet
Validated: 1
Position2: "'cpsp' Capital Spacing lookup 3 subtable" dx=10 dy=0 dh=20 dv=0
EndChar

StartChar: Ocircumflex
Encoding: 212 212 89
Width: 1282
Flags: MW
HStem: -45 147<538 744 538 852> 1245 147<540 742> 1430 41G<309 309 971 971>
VStem: 55 365<561 800 561 878> 860 367<561 800>
LayerCount: 2
UndoRedoHistory
Layer: 1
Undoes
EndUndoes
Redoes
EndRedoes
EndUndoRedoHistory
Fore
SplineSet
309 1470 m 1,0,-1
 612 1724 l 1,1,-1
 662 1724 l 1,2,-1
 971 1470 l 1,3,-1
 901 1386 l 1,4,-1
 639 1513 l 1,5,-1
 379 1386 l 1,6,-1
 309 1470 l 1,0,-1
641 1393 m 0,7,8
 795 1393 795 1393 909 1343.5 c 128,-1,9
 1023 1294 1023 1294 1092 1200.5 c 128,-1,10
 1161 1107 1161 1107 1194 981 c 128,-1,11
 1227 855 1227 855 1227 694 c 0,12,13
 1227 565 1227 565 1207 455 c 128,-1,14
 1187 345 1187 345 1142 251.5 c 128,-1,15
 1097 158 1097 158 1029.5 93 c 128,-1,16
 962 28 962 28 863.5 -8.5 c 128,-1,17
 765 -45 765 -45 641 -45 c 0,18,19
 520 -45 520 -45 422 -10.5 c 128,-1,20
 324 24 324 24 256 86.5 c 128,-1,21
 188 149 188 149 142.5 238.5 c 128,-1,22
 97 328 97 328 76 435 c 128,-1,23
 55 542 55 542 55 668 c 0,24,25
 55 797 55 797 75.5 905 c 128,-1,26
 96 1013 96 1013 140.5 1104.5 c 128,-1,27
 185 1196 185 1196 253 1259 c 128,-1,28
 321 1322 321 1322 419 1357.5 c 128,-1,29
 517 1393 517 1393 641 1393 c 0,7,8
641 102 m 128,-1,31
 684 102 684 102 718 122 c 128,-1,32
 752 142 752 142 775 173.5 c 128,-1,33
 798 205 798 205 814 255 c 128,-1,34
 830 305 830 305 839 351.5 c 128,-1,35
 848 398 848 398 853 462 c 128,-1,36
 858 526 858 526 859 573 c 128,-1,37
 860 620 860 620 860 682 c 0,38,39
 860 741 860 741 858.5 788 c 128,-1,40
 857 835 857 835 852 896 c 128,-1,41
 847 957 847 957 838 1003.5 c 128,-1,42
 829 1050 829 1050 812.5 1097.5 c 128,-1,43
 796 1145 796 1145 773.5 1175.5 c 128,-1,44
 751 1206 751 1206 717 1225.5 c 128,-1,45
 683 1245 683 1245 641 1245 c 0,46,47
 592 1245 592 1245 554.5 1220.5 c 128,-1,48
 517 1196 517 1196 493.5 1150.5 c 128,-1,49
 470 1105 470 1105 454.5 1053.5 c 128,-1,50
 439 1002 439 1002 432 932 c 128,-1,51
 425 862 425 862 422.5 806.5 c 128,-1,52
 420 751 420 751 420 682 c 0,53,54
 420 621 420 621 421.5 573 c 128,-1,55
 423 525 423 525 428 462 c 128,-1,56
 433 399 433 399 442 351.5 c 128,-1,57
 451 304 451 304 467.5 254.5 c 128,-1,58
 484 205 484 205 506.5 173.5 c 128,-1,59
 529 142 529 142 563.5 122 c 128,-1,30
 598 102 598 102 641 102 c 128,-1,31
EndSplineSet
Validated: 1
Position2: "'cpsp' Capital Spacing lookup 3 subtable" dx=10 dy=0 dh=20 dv=0
EndChar

StartChar: Odieresis
Encoding: 214 214 90
Width: 1282
Flags: MW
HStem: -45 147<538 744 538 852> 1245 147<540 742> 1456 295<371 471 811 911>
VStem: 55 365<561 800 561 878> 231 377<1554 1649> 672 377<1554 1649> 860 367<561 800>
LayerCount: 2
UndoRedoHistory
Layer: 1
Undoes
EndUndoes
Redoes
EndRedoes
EndUndoRedoHistory
Fore
SplineSet
424 1751 m 128,-1,1
 507 1751 507 1751 557.5 1712 c 128,-1,2
 608 1673 608 1673 608 1604 c 0,3,4
 608 1533 608 1533 554.5 1494.5 c 128,-1,5
 501 1456 501 1456 418 1456 c 128,-1,6
 335 1456 335 1456 283 1493.5 c 128,-1,7
 231 1531 231 1531 231 1599 c 0,8,9
 231 1670 231 1670 286 1710.5 c 128,-1,0
 341 1751 341 1751 424 1751 c 128,-1,1
864 1751 m 128,-1,11
 947 1751 947 1751 998 1712 c 128,-1,12
 1049 1673 1049 1673 1049 1604 c 0,13,14
 1049 1533 1049 1533 995 1494.5 c 128,-1,15
 941 1456 941 1456 858 1456 c 128,-1,16
 775 1456 775 1456 723.5 1493.5 c 128,-1,17
 672 1531 672 1531 672 1599 c 0,18,19
 672 1670 672 1670 726.5 1710.5 c 128,-1,10
 781 1751 781 1751 864 1751 c 128,-1,11
641 1393 m 0,20,21
 795 1393 795 1393 909 1343.5 c 128,-1,22
 1023 1294 1023 1294 1092 1200.5 c 128,-1,23
 1161 1107 1161 1107 1194 981 c 128,-1,24
 1227 855 1227 855 1227 694 c 0,25,26
 1227 565 1227 565 1207 455 c 128,-1,27
 1187 345 1187 345 1142 251.5 c 128,-1,28
 1097 158 1097 158 1029.5 93 c 128,-1,29
 962 28 962 28 863.5 -8.5 c 128,-1,30
 765 -45 765 -45 641 -45 c 0,31,32
 520 -45 520 -45 422 -10.5 c 128,-1,33
 324 24 324 24 256 86.5 c 128,-1,34
 188 149 188 149 142.5 238.5 c 128,-1,35
 97 328 97 328 76 435 c 128,-1,36
 55 542 55 542 55 668 c 0,37,38
 55 797 55 797 75.5 905 c 128,-1,39
 96 1013 96 1013 140.5 1104.5 c 128,-1,40
 185 1196 185 1196 253 1259 c 128,-1,41
 321 1322 321 1322 419 1357.5 c 128,-1,42
 517 1393 517 1393 641 1393 c 0,20,21
641 102 m 128,-1,44
 684 102 684 102 718 122 c 128,-1,45
 752 142 752 142 775 173.5 c 128,-1,46
 798 205 798 205 814 255 c 128,-1,47
 830 305 830 305 839 351.5 c 128,-1,48
 848 398 848 398 853 462 c 128,-1,49
 858 526 858 526 859 573 c 128,-1,50
 860 620 860 620 860 682 c 0,51,52
 860 741 860 741 858.5 788 c 128,-1,53
 857 835 857 835 852 896 c 128,-1,54
 847 957 847 957 838 1003.5 c 128,-1,55
 829 1050 829 1050 812.5 1097.5 c 128,-1,56
 796 1145 796 1145 773.5 1175.5 c 128,-1,57
 751 1206 751 1206 717 1225.5 c 128,-1,58
 683 1245 683 1245 641 1245 c 0,59,60
 592 1245 592 1245 554.5 1220.5 c 128,-1,61
 517 1196 517 1196 493.5 1150.5 c 128,-1,62
 470 1105 470 1105 454.5 1053.5 c 128,-1,63
 439 1002 439 1002 432 932 c 128,-1,64
 425 862 425 862 422.5 806.5 c 128,-1,65
 420 751 420 751 420 682 c 0,66,67
 420 621 420 621 421.5 573 c 128,-1,68
 423 525 423 525 428 462 c 128,-1,69
 433 399 433 399 442 351.5 c 128,-1,70
 451 304 451 304 467.5 254.5 c 128,-1,71
 484 205 484 205 506.5 173.5 c 128,-1,72
 529 142 529 142 563.5 122 c 128,-1,43
 598 102 598 102 641 102 c 128,-1,44
EndSplineSet
Validated: 1
Position2: "'cpsp' Capital Spacing lookup 3 subtable" dx=10 dy=0 dh=20 dv=0
EndChar

StartChar: Odotbelow
Encoding: 7884 7884 91
Width: 1282
Flags: MW
HStem: -391 295<592 692> -45 147<538 744 538 852> 1245 147<540 742>
VStem: 55 365<561 800 561 878> 453 377<-293 -199> 860 367<561 800>
LayerCount: 2
UndoRedoHistory
Layer: 1
Undoes
EndUndoes
Redoes
EndRedoes
EndUndoRedoHistory
Fore
SplineSet
641 1393 m 0,0,1
 795 1393 795 1393 909 1343.5 c 128,-1,2
 1023 1294 1023 1294 1092 1200.5 c 128,-1,3
 1161 1107 1161 1107 1194 981 c 128,-1,4
 1227 855 1227 855 1227 694 c 0,5,6
 1227 565 1227 565 1207 455 c 128,-1,7
 1187 345 1187 345 1142 251.5 c 128,-1,8
 1097 158 1097 158 1029.5 93 c 128,-1,9
 962 28 962 28 863.5 -8.5 c 128,-1,10
 765 -45 765 -45 641 -45 c 0,11,12
 520 -45 520 -45 422 -10.5 c 128,-1,13
 324 24 324 24 256 86.5 c 128,-1,14
 188 149 188 149 142.5 238.5 c 128,-1,15
 97 328 97 328 76 435 c 128,-1,16
 55 542 55 542 55 668 c 0,17,18
 55 797 55 797 75.5 905 c 128,-1,19
 96 1013 96 1013 140.5 1104.5 c 128,-1,20
 185 1196 185 1196 253 1259 c 128,-1,21
 321 1322 321 1322 419 1357.5 c 128,-1,22
 517 1393 517 1393 641 1393 c 0,0,1
641 102 m 128,-1,24
 684 102 684 102 718 122 c 128,-1,25
 752 142 752 142 775 173.5 c 128,-1,26
 798 205 798 205 814 255 c 128,-1,27
 830 305 830 305 839 351.5 c 128,-1,28
 848 398 848 398 853 462 c 128,-1,29
 858 526 858 526 859 573 c 128,-1,30
 860 620 860 620 860 682 c 0,31,32
 860 741 860 741 858.5 788 c 128,-1,33
 857 835 857 835 852 896 c 128,-1,34
 847 957 847 957 838 1003.5 c 128,-1,35
 829 1050 829 1050 812.5 1097.5 c 128,-1,36
 796 1145 796 1145 773.5 1175.5 c 128,-1,37
 751 1206 751 1206 717 1225.5 c 128,-1,38
 683 1245 683 1245 641 1245 c 0,39,40
 592 1245 592 1245 554.5 1220.5 c 128,-1,41
 517 1196 517 1196 493.5 1150.5 c 128,-1,42
 470 1105 470 1105 454.5 1053.5 c 128,-1,43
 439 1002 439 1002 432 932 c 128,-1,44
 425 862 425 862 422.5 806.5 c 128,-1,45
 420 751 420 751 420 682 c 0,46,47
 420 621 420 621 421.5 573 c 128,-1,48
 423 525 423 525 428 462 c 128,-1,49
 433 399 433 399 442 351.5 c 128,-1,50
 451 304 451 304 467.5 254.5 c 128,-1,51
 484 205 484 205 506.5 173.5 c 128,-1,52
 529 142 529 142 563.5 122 c 128,-1,23
 598 102 598 102 641 102 c 128,-1,24
645 -96 m 128,-1,54
 728 -96 728 -96 778.5 -135.5 c 128,-1,55
 829 -175 829 -175 829 -244 c 0,56,57
 829 -315 829 -315 775.5 -353 c 128,-1,58
 722 -391 722 -391 639 -391 c 128,-1,59
 556 -391 556 -391 504.5 -353.5 c 128,-1,60
 453 -316 453 -316 453 -248 c 0,61,62
 453 -177 453 -177 507.5 -136.5 c 128,-1,53
 562 -96 562 -96 645 -96 c 128,-1,54
EndSplineSet
Validated: 1
Position2: "'cpsp' Capital Spacing lookup 3 subtable" dx=10 dy=0 dh=20 dv=0
EndChar

StartChar: Ograve
Encoding: 210 210 92
Width: 1282
Flags: MW
HStem: -45 147<538 744 538 852> 1245 147<540 742>
VStem: 55 365<561 800 561 878> 860 367<561 800>
LayerCount: 2
UndoRedoHistory
Layer: 1
Undoes
EndUndoes
Redoes
EndRedoes
EndUndoRedoHistory
Fore
SplineSet
532 1475 m 2,0,1
 496 1478 496 1478 474.5 1480 c 128,-1,2
 453 1482 453 1482 420.5 1488 c 128,-1,3
 388 1494 388 1494 368 1503 c 128,-1,4
 348 1512 348 1512 328 1526.5 c 128,-1,5
 308 1541 308 1541 298.5 1563 c 128,-1,6
 289 1585 289 1585 289 1614 c 0,7,8
 289 1649 289 1649 307.5 1683 c 128,-1,9
 326 1717 326 1717 356 1741 c 1,10,-1
 827 1550 l 1,11,-1
 803 1454 l 1,12,-1
 532 1475 l 2,0,1
641 1393 m 0,13,14
 795 1393 795 1393 909 1343.5 c 128,-1,15
 1023 1294 1023 1294 1092 1200.5 c 128,-1,16
 1161 1107 1161 1107 1194 981 c 128,-1,17
 1227 855 1227 855 1227 694 c 0,18,19
 1227 565 1227 565 1207 455 c 128,-1,20
 1187 345 1187 345 1142 251.5 c 128,-1,21
 1097 158 1097 158 1029.5 93 c 128,-1,22
 962 28 962 28 863.5 -8.5 c 128,-1,23
 765 -45 765 -45 641 -45 c 0,24,25
 520 -45 520 -45 422 -10.5 c 128,-1,26
 324 24 324 24 256 86.5 c 128,-1,27
 188 149 188 149 142.5 238.5 c 128,-1,28
 97 328 97 328 76 435 c 128,-1,29
 55 542 55 542 55 668 c 0,30,31
 55 797 55 797 75.5 905 c 128,-1,32
 96 1013 96 1013 140.5 1104.5 c 128,-1,33
 185 1196 185 1196 253 1259 c 128,-1,34
 321 1322 321 1322 419 1357.5 c 128,-1,35
 517 1393 517 1393 641 1393 c 0,13,14
641 102 m 128,-1,37
 684 102 684 102 718 122 c 128,-1,38
 752 142 752 142 775 173.5 c 128,-1,39
 798 205 798 205 814 255 c 128,-1,40
 830 305 830 305 839 351.5 c 128,-1,41
 848 398 848 398 853 462 c 128,-1,42
 858 526 858 526 859 573 c 128,-1,43
 860 620 860 620 860 682 c 0,44,45
 860 741 860 741 858.5 788 c 128,-1,46
 857 835 857 835 852 896 c 128,-1,47
 847 957 847 957 838 1003.5 c 128,-1,48
 829 1050 829 1050 812.5 1097.5 c 128,-1,49
 796 1145 796 1145 773.5 1175.5 c 128,-1,50
 751 1206 751 1206 717 1225.5 c 128,-1,51
 683 1245 683 1245 641 1245 c 0,52,53
 592 1245 592 1245 554.5 1220.5 c 128,-1,54
 517 1196 517 1196 493.5 1150.5 c 128,-1,55
 470 1105 470 1105 454.5 1053.5 c 128,-1,56
 439 1002 439 1002 432 932 c 128,-1,57
 425 862 425 862 422.5 806.5 c 128,-1,58
 420 751 420 751 420 682 c 0,59,60
 420 621 420 621 421.5 573 c 128,-1,61
 423 525 423 525 428 462 c 128,-1,62
 433 399 433 399 442 351.5 c 128,-1,63
 451 304 451 304 467.5 254.5 c 128,-1,64
 484 205 484 205 506.5 173.5 c 128,-1,65
 529 142 529 142 563.5 122 c 128,-1,36
 598 102 598 102 641 102 c 128,-1,37
EndSplineSet
Validated: 1
Position2: "'cpsp' Capital Spacing lookup 3 subtable" dx=10 dy=0 dh=20 dv=0
EndChar

StartChar: Ohungarumlaut
Encoding: 336 336 93
Width: 1282
Flags: MW
HStem: -45 147<538 744 538 852> 1245 147<540 742>
VStem: 55 365<561 800 561 878> 860 367<561 800>
LayerCount: 2
UndoRedoHistory
Layer: 1
Undoes
EndUndoes
Redoes
EndRedoes
EndUndoRedoHistory
Fore
SplineSet
684 1753 m 1,0,1
 762 1710 762 1710 762 1640 c 0,2,3
 762 1536 762 1536 571 1485 c 2,4,-1
 387 1436 l 1,5,-1
 346 1530 l 1,6,-1
 684 1753 l 1,0,1
1094 1753 m 1,7,8
 1171 1710 1171 1710 1171 1640 c 0,9,10
 1171 1537 1171 1537 981 1485 c 1,11,-1
 797 1436 l 1,12,-1
 756 1530 l 1,13,-1
 1094 1753 l 1,7,8
641 1393 m 0,14,15
 795 1393 795 1393 909 1343.5 c 128,-1,16
 1023 1294 1023 1294 1092 1200.5 c 128,-1,17
 1161 1107 1161 1107 1194 981 c 128,-1,18
 1227 855 1227 855 1227 694 c 0,19,20
 1227 565 1227 565 1207 455 c 128,-1,21
 1187 345 1187 345 1142 251.5 c 128,-1,22
 1097 158 1097 158 1029.5 93 c 128,-1,23
 962 28 962 28 863.5 -8.5 c 128,-1,24
 765 -45 765 -45 641 -45 c 0,25,26
 520 -45 520 -45 422 -10.5 c 128,-1,27
 324 24 324 24 256 86.5 c 128,-1,28
 188 149 188 149 142.5 238.5 c 128,-1,29
 97 328 97 328 76 435 c 128,-1,30
 55 542 55 542 55 668 c 0,31,32
 55 797 55 797 75.5 905 c 128,-1,33
 96 1013 96 1013 140.5 1104.5 c 128,-1,34
 185 1196 185 1196 253 1259 c 128,-1,35
 321 1322 321 1322 419 1357.5 c 128,-1,36
 517 1393 517 1393 641 1393 c 0,14,15
641 102 m 128,-1,38
 684 102 684 102 718 122 c 128,-1,39
 752 142 752 142 775 173.5 c 128,-1,40
 798 205 798 205 814 255 c 128,-1,41
 830 305 830 305 839 351.5 c 128,-1,42
 848 398 848 398 853 462 c 128,-1,43
 858 526 858 526 859 573 c 128,-1,44
 860 620 860 620 860 682 c 0,45,46
 860 741 860 741 858.5 788 c 128,-1,47
 857 835 857 835 852 896 c 128,-1,48
 847 957 847 957 838 1003.5 c 128,-1,49
 829 1050 829 1050 812.5 1097.5 c 128,-1,50
 796 1145 796 1145 773.5 1175.5 c 128,-1,51
 751 1206 751 1206 717 1225.5 c 128,-1,52
 683 1245 683 1245 641 1245 c 0,53,54
 592 1245 592 1245 554.5 1220.5 c 128,-1,55
 517 1196 517 1196 493.5 1150.5 c 128,-1,56
 470 1105 470 1105 454.5 1053.5 c 128,-1,57
 439 1002 439 1002 432 932 c 128,-1,58
 425 862 425 862 422.5 806.5 c 128,-1,59
 420 751 420 751 420 682 c 0,60,61
 420 621 420 621 421.5 573 c 128,-1,62
 423 525 423 525 428 462 c 128,-1,63
 433 399 433 399 442 351.5 c 128,-1,64
 451 304 451 304 467.5 254.5 c 128,-1,65
 484 205 484 205 506.5 173.5 c 128,-1,66
 529 142 529 142 563.5 122 c 128,-1,37
 598 102 598 102 641 102 c 128,-1,38
EndSplineSet
Validated: 1
Position2: "'cpsp' Capital Spacing lookup 3 subtable" dx=10 dy=0 dh=20 dv=0
EndChar

StartChar: Omacron
Encoding: 332 332 94
Width: 1282
Flags: MW
HStem: -45 147<538 744 538 852> 1245 147<540 742> 1550 178<453 821 358 922>
VStem: 55 365<561 800 561 878> 860 367<561 800>
LayerCount: 2
UndoRedoHistory
Layer: 1
Undoes
EndUndoes
Redoes
EndRedoes
EndUndoRedoHistory
Fore
SplineSet
922 1729 m 1,0,1
 940 1693 940 1693 940 1649 c 0,2,3
 940 1604 940 1604 908.5 1577 c 128,-1,4
 877 1550 877 1550 821 1550 c 2,5,-1
 358 1550 l 1,6,7
 342 1579 342 1579 342 1626 c 128,-1,8
 342 1673 342 1673 372 1701 c 128,-1,9
 402 1729 402 1729 453 1729 c 2,10,-1
 922 1729 l 1,0,1
641 1393 m 0,11,12
 795 1393 795 1393 909 1343.5 c 128,-1,13
 1023 1294 1023 1294 1092 1200.5 c 128,-1,14
 1161 1107 1161 1107 1194 981 c 128,-1,15
 1227 855 1227 855 1227 694 c 0,16,17
 1227 565 1227 565 1207 455 c 128,-1,18
 1187 345 1187 345 1142 251.5 c 128,-1,19
 1097 158 1097 158 1029.5 93 c 128,-1,20
 962 28 962 28 863.5 -8.5 c 128,-1,21
 765 -45 765 -45 641 -45 c 0,22,23
 520 -45 520 -45 422 -10.5 c 128,-1,24
 324 24 324 24 256 86.5 c 128,-1,25
 188 149 188 149 142.5 238.5 c 128,-1,26
 97 328 97 328 76 435 c 128,-1,27
 55 542 55 542 55 668 c 0,28,29
 55 797 55 797 75.5 905 c 128,-1,30
 96 1013 96 1013 140.5 1104.5 c 128,-1,31
 185 1196 185 1196 253 1259 c 128,-1,32
 321 1322 321 1322 419 1357.5 c 128,-1,33
 517 1393 517 1393 641 1393 c 0,11,12
641 102 m 128,-1,35
 684 102 684 102 718 122 c 128,-1,36
 752 142 752 142 775 173.5 c 128,-1,37
 798 205 798 205 814 255 c 128,-1,38
 830 305 830 305 839 351.5 c 128,-1,39
 848 398 848 398 853 462 c 128,-1,40
 858 526 858 526 859 573 c 128,-1,41
 860 620 860 620 860 682 c 0,42,43
 860 741 860 741 858.5 788 c 128,-1,44
 857 835 857 835 852 896 c 128,-1,45
 847 957 847 957 838 1003.5 c 128,-1,46
 829 1050 829 1050 812.5 1097.5 c 128,-1,47
 796 1145 796 1145 773.5 1175.5 c 128,-1,48
 751 1206 751 1206 717 1225.5 c 128,-1,49
 683 1245 683 1245 641 1245 c 0,50,51
 592 1245 592 1245 554.5 1220.5 c 128,-1,52
 517 1196 517 1196 493.5 1150.5 c 128,-1,53
 470 1105 470 1105 454.5 1053.5 c 128,-1,54
 439 1002 439 1002 432 932 c 128,-1,55
 425 862 425 862 422.5 806.5 c 128,-1,56
 420 751 420 751 420 682 c 0,57,58
 420 621 420 621 421.5 573 c 128,-1,59
 423 525 423 525 428 462 c 128,-1,60
 433 399 433 399 442 351.5 c 128,-1,61
 451 304 451 304 467.5 254.5 c 128,-1,62
 484 205 484 205 506.5 173.5 c 128,-1,63
 529 142 529 142 563.5 122 c 128,-1,34
 598 102 598 102 641 102 c 128,-1,35
EndSplineSet
Validated: 1
Position2: "'cpsp' Capital Spacing lookup 3 subtable" dx=10 dy=0 dh=20 dv=0
EndChar

StartChar: Oogonek
Encoding: 490 490 95
Width: 1282
Flags: MW
HStem: -545 147<786 815> -45 147<538 641> 1245 147<540 742>
VStem: 55 365<561 800 561 878> 514 199<-324 -273> 860 367<561 800>
LayerCount: 2
UndoRedoHistory
Layer: 1
Undoes
EndUndoes
Redoes
EndRedoes
EndUndoRedoHistory
Fore
SplineSet
887 0 m 1,0,1
 808 -58 808 -58 760.5 -131 c 128,-1,2
 713 -204 713 -204 713 -283 c 0,3,4
 713 -344 713 -344 739.5 -370.5 c 128,-1,5
 766 -397 766 -397 827 -397 c 0,6,7
 858 -397 858 -397 888 -385 c 128,-1,8
 918 -373 918 -373 932 -350 c 1,9,10
 971 -377 971 -377 971 -418 c 0,11,12
 971 -462 971 -462 937.5 -492 c 128,-1,13
 904 -522 904 -522 862 -533.5 c 128,-1,14
 820 -545 820 -545 774 -545 c 0,15,16
 659 -545 659 -545 586.5 -491.5 c 128,-1,17
 514 -438 514 -438 514 -334 c 0,18,19
 514 -171 514 -171 688 -43 c 1,20,-1
 641 -45 l 1,21,22
 520 -45 520 -45 422 -10.5 c 128,-1,23
 324 24 324 24 256 86.5 c 128,-1,24
 188 149 188 149 142.5 238.5 c 128,-1,25
 97 328 97 328 76 435 c 128,-1,26
 55 542 55 542 55 668 c 0,27,28
 55 797 55 797 75.5 905 c 128,-1,29
 96 1013 96 1013 140.5 1104.5 c 128,-1,30
 185 1196 185 1196 253 1259 c 128,-1,31
 321 1322 321 1322 419 1357.5 c 128,-1,32
 517 1393 517 1393 641 1393 c 0,33,34
 795 1393 795 1393 909 1343.5 c 128,-1,35
 1023 1294 1023 1294 1092 1200.5 c 128,-1,36
 1161 1107 1161 1107 1194 981 c 128,-1,37
 1227 855 1227 855 1227 694 c 0,38,39
 1227 436 1227 436 1144 255 c 128,-1,40
 1061 74 1061 74 887 0 c 1,0,1
420 682 m 0,41,42
 420 621 420 621 421.5 573 c 128,-1,43
 423 525 423 525 428 462 c 128,-1,44
 433 399 433 399 442 351.5 c 128,-1,45
 451 304 451 304 467.5 254.5 c 128,-1,46
 484 205 484 205 506.5 173.5 c 128,-1,47
 529 142 529 142 563.5 122 c 128,-1,48
 598 102 598 102 641 102 c 128,-1,49
 684 102 684 102 718 122 c 128,-1,50
 752 142 752 142 775 173.5 c 128,-1,51
 798 205 798 205 814 255 c 128,-1,52
 830 305 830 305 839 351.5 c 128,-1,53
 848 398 848 398 853 462 c 128,-1,54
 858 526 858 526 859 573 c 128,-1,55
 860 620 860 620 860 682 c 0,56,57
 860 741 860 741 858.5 788 c 128,-1,58
 857 835 857 835 852 896 c 128,-1,59
 847 957 847 957 838 1003.5 c 128,-1,60
 829 1050 829 1050 812.5 1097.5 c 128,-1,61
 796 1145 796 1145 773.5 1175.5 c 128,-1,62
 751 1206 751 1206 717 1225.5 c 128,-1,63
 683 1245 683 1245 641 1245 c 0,64,65
 592 1245 592 1245 554.5 1220.5 c 128,-1,66
 517 1196 517 1196 493.5 1150.5 c 128,-1,67
 470 1105 470 1105 454.5 1053.5 c 128,-1,68
 439 1002 439 1002 432 932 c 128,-1,69
 425 862 425 862 422.5 806.5 c 128,-1,70
 420 751 420 751 420 682 c 0,41,42
EndSplineSet
Validated: 1
Position2: "'cpsp' Capital Spacing lookup 3 subtable" dx=10 dy=0 dh=20 dv=0
EndChar

StartChar: Oslash
Encoding: 216 216 96
Width: 1282
Flags: MW
HStem: -45 147<592 744 592 852> 1245 147<540 684> 1427 41G<1061 1061>
VStem: 55 365<659 800 659 878> 860 367<561 711>
LayerCount: 2
UndoRedoHistory
Layer: 1
Undoes
EndUndoes
Redoes
EndRedoes
EndUndoRedoHistory
Fore
SplineSet
1087 1204 m 1,0,1
 1227 1028 1227 1028 1227 694 c 0,2,3
 1227 565 1227 565 1207 455 c 128,-1,4
 1187 345 1187 345 1142 251.5 c 128,-1,5
 1097 158 1097 158 1029.5 93 c 128,-1,6
 962 28 962 28 863.5 -8.5 c 128,-1,7
 765 -45 765 -45 641 -45 c 0,8,9
 436 -45 436 -45 299 53 c 1,10,-1
 184 -113 l 1,11,12
 141 -111 141 -111 99 -88 c 128,-1,13
 57 -65 57 -65 57 -25 c 0,14,15
 57 1 57 1 90 53 c 1,16,-1
 176 180 l 1,17,18
 55 364 55 364 55 668 c 0,19,20
 55 797 55 797 75.5 905 c 128,-1,21
 96 1013 96 1013 140.5 1104.5 c 128,-1,22
 185 1196 185 1196 253 1259 c 128,-1,23
 321 1322 321 1322 419 1357.5 c 128,-1,24
 517 1393 517 1393 641 1393 c 0,25,26
 826 1393 826 1393 958 1319 c 1,27,-1
 1061 1468 l 1,28,29
 1103 1466 1103 1466 1145.5 1442.5 c 128,-1,30
 1188 1419 1188 1419 1188 1380 c 0,31,32
 1188 1355 1188 1355 1155 1303 c 1,33,-1
 1087 1204 l 1,0,1
811 1104 m 1,34,35
 756 1245 756 1245 641 1245 c 0,36,37
 592 1245 592 1245 554.5 1220.5 c 128,-1,38
 517 1196 517 1196 493.5 1150.5 c 128,-1,39
 470 1105 470 1105 454.5 1053.5 c 128,-1,40
 439 1002 439 1002 432 932 c 128,-1,41
 425 862 425 862 422.5 806.5 c 128,-1,42
 420 751 420 751 420 682 c 0,43,44
 420 588 420 588 422 539 c 1,45,-1
 811 1104 l 1,34,35
457 285 m 1,46,47
 511 102 511 102 641 102 c 0,48,49
 684 102 684 102 718 122 c 128,-1,50
 752 142 752 142 775 173.5 c 128,-1,51
 798 205 798 205 814 255 c 128,-1,52
 830 305 830 305 839 351.5 c 128,-1,53
 848 398 848 398 853 462 c 128,-1,54
 858 526 858 526 859 573 c 128,-1,55
 860 620 860 620 860 682 c 0,56,57
 860 803 860 803 854 864 c 1,58,-1
 457 285 l 1,46,47
EndSplineSet
Validated: 1
Position2: "'cpsp' Capital Spacing lookup 3 subtable" dx=10 dy=0 dh=20 dv=0
EndChar

StartChar: Oslashacute
Encoding: 510 510 97
Width: 1282
Flags: MW
HStem: -45 147<592 744 592 852> 1245 147<540 684> 1427 41G<1061 1061>
VStem: 55 365<659 800 659 878> 860 367<561 711>
LayerCount: 2
UndoRedoHistory
Layer: 1
Undoes
EndUndoes
Redoes
EndRedoes
EndUndoRedoHistory
Fore
SplineSet
936 1741 m 1,0,1
 966 1717 966 1717 985 1682.5 c 128,-1,2
 1004 1648 1004 1648 1004 1614 c 0,3,4
 1004 1585 1004 1585 994.5 1563 c 128,-1,5
 985 1541 985 1541 964.5 1526.5 c 128,-1,6
 944 1512 944 1512 924 1503 c 128,-1,7
 904 1494 904 1494 871.5 1488 c 128,-1,8
 839 1482 839 1482 817.5 1480 c 128,-1,9
 796 1478 796 1478 760 1475 c 2,10,-1
 489 1454 l 1,11,-1
 465 1550 l 1,12,-1
 936 1741 l 1,0,1
1087 1204 m 1,13,14
 1227 1028 1227 1028 1227 694 c 0,15,16
 1227 565 1227 565 1207 455 c 128,-1,17
 1187 345 1187 345 1142 251.5 c 128,-1,18
 1097 158 1097 158 1029.5 93 c 128,-1,19
 962 28 962 28 863.5 -8.5 c 128,-1,20
 765 -45 765 -45 641 -45 c 0,21,22
 436 -45 436 -45 299 53 c 1,23,-1
 184 -113 l 1,24,25
 141 -111 141 -111 99 -88 c 128,-1,26
 57 -65 57 -65 57 -25 c 0,27,28
 57 1 57 1 90 53 c 1,29,-1
 176 180 l 1,30,31
 55 364 55 364 55 668 c 0,32,33
 55 797 55 797 75.5 905 c 128,-1,34
 96 1013 96 1013 140.5 1104.5 c 128,-1,35
 185 1196 185 1196 253 1259 c 128,-1,36
 321 1322 321 1322 419 1357.5 c 128,-1,37
 517 1393 517 1393 641 1393 c 0,38,39
 826 1393 826 1393 958 1319 c 1,40,-1
 1061 1468 l 1,41,42
 1103 1466 1103 1466 1145.5 1442.5 c 128,-1,43
 1188 1419 1188 1419 1188 1380 c 0,44,45
 1188 1355 1188 1355 1155 1303 c 1,46,-1
 1087 1204 l 1,13,14
811 1104 m 1,47,48
 756 1245 756 1245 641 1245 c 0,49,50
 592 1245 592 1245 554.5 1220.5 c 128,-1,51
 517 1196 517 1196 493.5 1150.5 c 128,-1,52
 470 1105 470 1105 454.5 1053.5 c 128,-1,53
 439 1002 439 1002 432 932 c 128,-1,54
 425 862 425 862 422.5 806.5 c 128,-1,55
 420 751 420 751 420 682 c 0,56,57
 420 588 420 588 422 539 c 1,58,-1
 811 1104 l 1,47,48
457 285 m 1,59,60
 511 102 511 102 641 102 c 0,61,62
 684 102 684 102 718 122 c 128,-1,63
 752 142 752 142 775 173.5 c 128,-1,64
 798 205 798 205 814 255 c 128,-1,65
 830 305 830 305 839 351.5 c 128,-1,66
 848 398 848 398 853 462 c 128,-1,67
 858 526 858 526 859 573 c 128,-1,68
 860 620 860 620 860 682 c 0,69,70
 860 803 860 803 854 864 c 1,71,-1
 457 285 l 1,59,60
EndSplineSet
Validated: 1
Position2: "'cpsp' Capital Spacing lookup 3 subtable" dx=10 dy=0 dh=20 dv=0
EndChar

StartChar: Otilde
Encoding: 213 213 98
Width: 1282
Flags: MW
HStem: -45 147<538 744 538 852> 1245 147<540 742> 1464 195<784 850 780 881> 1509 195<434 499 403 504>
VStem: 55 365<561 800 561 878> 860 367<561 800>
LayerCount: 2
UndoRedoHistory
Layer: 1
Undoes
EndUndoes
Redoes
EndRedoes
EndUndoRedoHistory
Fore
SplineSet
950 1696 m 1,0,1
 1001 1648 1001 1648 1001 1581 c 0,2,3
 1001 1464 1001 1464 836 1464 c 0,4,5
 784 1464 784 1464 644 1486.5 c 128,-1,6
 504 1509 504 1509 455 1509 c 0,7,8
 370 1509 370 1509 334 1475 c 1,9,10
 283 1519 283 1519 283 1587 c 0,11,12
 283 1704 283 1704 449 1704 c 0,13,14
 499 1704 499 1704 639.5 1681.5 c 128,-1,15
 780 1659 780 1659 829 1659 c 0,16,17
 913 1659 913 1659 950 1696 c 1,0,1
641 1393 m 0,18,19
 795 1393 795 1393 909 1343.5 c 128,-1,20
 1023 1294 1023 1294 1092 1200.5 c 128,-1,21
 1161 1107 1161 1107 1194 981 c 128,-1,22
 1227 855 1227 855 1227 694 c 0,23,24
 1227 565 1227 565 1207 455 c 128,-1,25
 1187 345 1187 345 1142 251.5 c 128,-1,26
 1097 158 1097 158 1029.5 93 c 128,-1,27
 962 28 962 28 863.5 -8.5 c 128,-1,28
 765 -45 765 -45 641 -45 c 0,29,30
 520 -45 520 -45 422 -10.5 c 128,-1,31
 324 24 324 24 256 86.5 c 128,-1,32
 188 149 188 149 142.5 238.5 c 128,-1,33
 97 328 97 328 76 435 c 128,-1,34
 55 542 55 542 55 668 c 0,35,36
 55 797 55 797 75.5 905 c 128,-1,37
 96 1013 96 1013 140.5 1104.5 c 128,-1,38
 185 1196 185 1196 253 1259 c 128,-1,39
 321 1322 321 1322 419 1357.5 c 128,-1,40
 517 1393 517 1393 641 1393 c 0,18,19
641 102 m 128,-1,42
 684 102 684 102 718 122 c 128,-1,43
 752 142 752 142 775 173.5 c 128,-1,44
 798 205 798 205 814 255 c 128,-1,45
 830 305 830 305 839 351.5 c 128,-1,46
 848 398 848 398 853 462 c 128,-1,47
 858 526 858 526 859 573 c 128,-1,48
 860 620 860 620 860 682 c 0,49,50
 860 741 860 741 858.5 788 c 128,-1,51
 857 835 857 835 852 896 c 128,-1,52
 847 957 847 957 838 1003.5 c 128,-1,53
 829 1050 829 1050 812.5 1097.5 c 128,-1,54
 796 1145 796 1145 773.5 1175.5 c 128,-1,55
 751 1206 751 1206 717 1225.5 c 128,-1,56
 683 1245 683 1245 641 1245 c 0,57,58
 592 1245 592 1245 554.5 1220.5 c 128,-1,59
 517 1196 517 1196 493.5 1150.5 c 128,-1,60
 470 1105 470 1105 454.5 1053.5 c 128,-1,61
 439 1002 439 1002 432 932 c 128,-1,62
 425 862 425 862 422.5 806.5 c 128,-1,63
 420 751 420 751 420 682 c 0,64,65
 420 621 420 621 421.5 573 c 128,-1,66
 423 525 423 525 428 462 c 128,-1,67
 433 399 433 399 442 351.5 c 128,-1,68
 451 304 451 304 467.5 254.5 c 128,-1,69
 484 205 484 205 506.5 173.5 c 128,-1,70
 529 142 529 142 563.5 122 c 128,-1,41
 598 102 598 102 641 102 c 128,-1,42
EndSplineSet
Validated: 1
Position2: "'cpsp' Capital Spacing lookup 3 subtable" dx=10 dy=0 dh=20 dv=0
EndChar

StartChar: OE
Encoding: 338 338 99
Width: 1603
Flags: MW
HStem: -45 147<538 688> 0 162<1159 1556> 612 164<1159 1481 1159 1481> 1190 162<1159 1542 1159 1159> 1245 147<540 687 431 692>
VStem: 55 365<561 800 561 878> 862 297<299 612 776 1051 1051 1051>
LayerCount: 2
UndoRedoHistory
Layer: 1
Undoes
EndUndoes
Redoes
EndRedoes
EndUndoRedoHistory
Fore
SplineSet
1556 0 m 1,0,-1
 885 0 l 1,1,2
 776 -45 776 -45 641 -45 c 0,3,4
 520 -45 520 -45 422 -10.5 c 128,-1,5
 324 24 324 24 256 86.5 c 128,-1,6
 188 149 188 149 142.5 238.5 c 128,-1,7
 97 328 97 328 76 435 c 128,-1,8
 55 542 55 542 55 668 c 0,9,10
 55 797 55 797 75.5 905 c 128,-1,11
 96 1013 96 1013 140.5 1104.5 c 128,-1,12
 185 1196 185 1196 253 1259 c 128,-1,13
 321 1322 321 1322 419 1357.5 c 128,-1,14
 517 1393 517 1393 641 1393 c 0,15,16
 778 1393 778 1393 881 1352 c 1,17,-1
 1542 1352 l 1,18,-1
 1542 1190 l 1,19,-1
 1159 1190 l 1,20,-1
 1159 776 l 1,21,-1
 1481 776 l 1,22,-1
 1481 612 l 1,23,-1
 1159 612 l 1,24,-1
 1159 162 l 1,25,-1
 1573 162 l 1,26,-1
 1556 0 l 1,0,-1
862 1051 m 1,27,28
 781 1245 781 1245 641 1245 c 0,29,30
 592 1245 592 1245 554.5 1220.5 c 128,-1,31
 517 1196 517 1196 493.5 1150.5 c 128,-1,32
 470 1105 470 1105 454.5 1053.5 c 128,-1,33
 439 1002 439 1002 432 932 c 128,-1,34
 425 862 425 862 422.5 806.5 c 128,-1,35
 420 751 420 751 420 682 c 0,36,37
 420 621 420 621 421.5 573 c 128,-1,38
 423 525 423 525 428 462 c 128,-1,39
 433 399 433 399 442 351.5 c 128,-1,40
 451 304 451 304 467.5 254.5 c 128,-1,41
 484 205 484 205 506.5 173.5 c 128,-1,42
 529 142 529 142 563.5 122 c 128,-1,43
 598 102 598 102 641 102 c 0,44,45
 780 102 780 102 862 299 c 1,46,-1
 862 1051 l 1,27,28
EndSplineSet
Validated: 1
Position2: "'cpsp' Capital Spacing lookup 3 subtable" dx=10 dy=0 dh=20 dv=0
EndChar

StartChar: P
Encoding: 80 80 100
Width: 1140
Flags: MW
HStem: 555 125<520 836> 1212 150<543 638>
VStem: 113 340<0 1202 0 1337 0 1337> 776 340<862 1033>
LayerCount: 2
UndoRedoHistory
Layer: 1
Undoes
EndUndoes
Redoes
EndRedoes
EndUndoRedoHistory
Fore
SplineSet
113 1337 m 1,0,1
 388 1362 388 1362 567 1362 c 0,2,3
 689 1362 689 1362 784 1342.5 c 128,-1,4
 879 1323 879 1323 956 1278.5 c 128,-1,5
 1033 1234 1033 1234 1074.5 1154 c 128,-1,6
 1116 1074 1116 1074 1116 961 c 0,7,8
 1116 779 1116 779 1006 667 c 128,-1,9
 896 555 896 555 715 555 c 0,10,11
 632 555 632 555 576 584.5 c 128,-1,12
 520 614 520 614 520 680 c 1,13,14
 656 680 656 680 716 746.5 c 128,-1,15
 776 813 776 813 776 954 c 0,16,17
 776 1212 776 1212 559 1212 c 0,18,19
 508 1212 508 1212 453 1202 c 1,20,-1
 453 0 l 1,21,-1
 113 0 l 1,22,-1
 113 1337 l 1,0,1
EndSplineSet
Validated: 1
Position2: "'cpsp' Capital Spacing lookup 3 subtable" dx=10 dy=0 dh=20 dv=0
EndChar

StartChar: Thorn
Encoding: 222 222 101
Width: 1140
Flags: MW
HStem: 295 125<520 836> 952 147<543 567 567 638> 1311 41G<113 453 453 453>
VStem: 113 340<0 942 1100 1352> 776 340<602 773>
LayerCount: 2
UndoRedoHistory
Layer: 1
Undoes
EndUndoes
Redoes
EndRedoes
EndUndoRedoHistory
Fore
SplineSet
453 1100 m 1,0,-1
 567 1100 l 2,1,2
 664 1100 664 1100 743 1088.5 c 128,-1,3
 822 1077 822 1077 893 1048.5 c 128,-1,4
 964 1020 964 1020 1012 975.5 c 128,-1,5
 1060 931 1060 931 1088 861 c 128,-1,6
 1116 791 1116 791 1116 700 c 0,7,8
 1116 518 1116 518 1006 406.5 c 128,-1,9
 896 295 896 295 715 295 c 0,10,11
 632 295 632 295 576 324.5 c 128,-1,12
 520 354 520 354 520 420 c 1,13,14
 656 420 656 420 716 486.5 c 128,-1,15
 776 553 776 553 776 694 c 0,16,17
 776 952 776 952 559 952 c 0,18,19
 508 952 508 952 453 942 c 1,20,-1
 453 0 l 1,21,-1
 113 0 l 1,22,-1
 113 1352 l 1,23,-1
 453 1352 l 1,24,-1
 453 1100 l 1,0,-1
EndSplineSet
Validated: 1
Position2: "'cpsp' Capital Spacing lookup 3 subtable" dx=10 dy=0 dh=20 dv=0
EndChar

StartChar: Q
Encoding: 81 81 102
Width: 1282
Flags: MW
HStem: -340 242<949 1036 949 1106> -193 180 -82 41G -45 147<641 641> 1245 147<540 742>
VStem: 55 365<561 800 561 878> 860 367<561 800>
LayerCount: 2
UndoRedoHistory
Layer: 1
Undoes
EndUndoes
Redoes
EndRedoes
EndUndoRedoHistory
Fore
SplineSet
641 1393 m 0,0,1
 795 1393 795 1393 909 1343.5 c 128,-1,2
 1023 1294 1023 1294 1092 1200.5 c 128,-1,3
 1161 1107 1161 1107 1194 981 c 128,-1,4
 1227 855 1227 855 1227 694 c 0,5,6
 1227 481 1227 481 1161.5 316.5 c 128,-1,7
 1096 152 1096 152 961.5 54 c 128,-1,8
 827 -44 827 -44 641 -45 c 1,9,10
 855 -98 855 -98 1004 -98 c 0,11,12
 1122 -98 1122 -98 1184 -41 c 1,13,14
 1235 -124 1235 -124 1235 -186 c 0,15,16
 1235 -266 1235 -266 1186 -303 c 128,-1,17
 1137 -340 1137 -340 1055 -340 c 0,18,19
 984 -340 984 -340 896.5 -317 c 128,-1,20
 809 -294 809 -294 740 -266.5 c 128,-1,21
 671 -239 671 -239 586.5 -216 c 128,-1,22
 502 -193 502 -193 436 -193 c 0,23,24
 343 -193 343 -193 297 -213 c 1,25,26
 262 -178 262 -178 262 -125 c 0,27,28
 262 -61 262 -61 306.5 -37.5 c 128,-1,29
 351 -14 351 -14 432 -12 c 1,30,31
 302 28 302 28 216.5 126.5 c 128,-1,32
 131 225 131 225 93 360 c 128,-1,33
 55 495 55 495 55 668 c 0,34,35
 55 797 55 797 75.5 905 c 128,-1,36
 96 1013 96 1013 140.5 1104.5 c 128,-1,37
 185 1196 185 1196 253 1259 c 128,-1,38
 321 1322 321 1322 419 1357.5 c 128,-1,39
 517 1393 517 1393 641 1393 c 0,0,1
641 1245 m 0,40,41
 592 1245 592 1245 554.5 1220.5 c 128,-1,42
 517 1196 517 1196 493.5 1150.5 c 128,-1,43
 470 1105 470 1105 454.5 1053.5 c 128,-1,44
 439 1002 439 1002 432 932 c 128,-1,45
 425 862 425 862 422.5 806.5 c 128,-1,46
 420 751 420 751 420 682 c 0,47,48
 420 621 420 621 421.5 573 c 128,-1,49
 423 525 423 525 428 462 c 128,-1,50
 433 399 433 399 442 351.5 c 128,-1,51
 451 304 451 304 467.5 254.5 c 128,-1,52
 484 205 484 205 506.5 173.5 c 128,-1,53
 529 142 529 142 563.5 122 c 128,-1,54
 598 102 598 102 641 102 c 128,-1,55
 684 102 684 102 718 122 c 128,-1,56
 752 142 752 142 775 173.5 c 128,-1,57
 798 205 798 205 814 255 c 128,-1,58
 830 305 830 305 839 351.5 c 128,-1,59
 848 398 848 398 853 462 c 128,-1,60
 858 526 858 526 859 573 c 128,-1,61
 860 620 860 620 860 682 c 0,62,63
 860 741 860 741 858.5 788 c 128,-1,64
 857 835 857 835 852 896 c 128,-1,65
 847 957 847 957 838 1003.5 c 128,-1,66
 829 1050 829 1050 812.5 1097.5 c 128,-1,67
 796 1145 796 1145 773.5 1175.5 c 128,-1,68
 751 1206 751 1206 717 1225.5 c 128,-1,69
 683 1245 683 1245 641 1245 c 0,40,41
EndSplineSet
Validated: 1
Position2: "'cpsp' Capital Spacing lookup 3 subtable" dx=10 dy=0 dh=20 dv=0
EndChar

StartChar: R
Encoding: 82 82 103
Width: 1181
Flags: MW
HStem: 1212 150<543 636>
VStem: 113 340<0 1202 0 1337 0 1337> 766 338<873 1034>
LayerCount: 2
UndoRedoHistory
Layer: 1
Undoes
EndUndoes
Redoes
EndRedoes
EndUndoRedoHistory
Fore
SplineSet
113 1337 m 1,0,1
 388 1362 388 1362 567 1362 c 0,2,3
 664 1362 664 1362 742 1350.5 c 128,-1,4
 820 1339 820 1339 889 1311 c 128,-1,5
 958 1283 958 1283 1004.5 1239 c 128,-1,6
 1051 1195 1051 1195 1077.5 1126 c 128,-1,7
 1104 1057 1104 1057 1104 967 c 0,8,9
 1104 828 1104 828 1038 729 c 128,-1,10
 972 630 972 630 854 590 c 1,11,-1
 1194 0 l 1,12,-1
 840 0 l 1,13,-1
 537 629 l 1,14,15
 522 666 522 666 522 690 c 1,16,17
 652 690 652 690 709 756 c 128,-1,18
 766 822 766 822 766 958 c 0,19,20
 766 1212 766 1212 559 1212 c 0,21,22
 508 1212 508 1212 453 1202 c 1,23,-1
 453 0 l 1,24,-1
 113 0 l 1,25,-1
 113 1337 l 1,0,1
EndSplineSet
Validated: 1
Position2: "'cpsp' Capital Spacing lookup 3 subtable" dx=10 dy=0 dh=20 dv=0
EndChar

StartChar: Racute
Encoding: 340 340 104
Width: 1181
Flags: MW
HStem: 1212 150<543 636>
VStem: 113 340<0 1202 0 1337 0 1337> 766 338<873 1034>
LayerCount: 2
UndoRedoHistory
Layer: 1
Undoes
EndUndoes
Redoes
EndRedoes
EndUndoRedoHistory
Fore
SplineSet
850 1739 m 1,0,1
 880 1715 880 1715 899 1680.5 c 128,-1,2
 918 1646 918 1646 918 1612 c 0,3,4
 918 1583 918 1583 908.5 1561 c 128,-1,5
 899 1539 899 1539 878.5 1524.5 c 128,-1,6
 858 1510 858 1510 838 1501 c 128,-1,7
 818 1492 818 1492 785.5 1486 c 128,-1,8
 753 1480 753 1480 731.5 1478 c 128,-1,9
 710 1476 710 1476 674 1473 c 2,10,-1
 403 1452 l 1,11,-1
 379 1548 l 1,12,-1
 850 1739 l 1,0,1
113 1337 m 1,13,14
 388 1362 388 1362 567 1362 c 0,15,16
 664 1362 664 1362 742 1350.5 c 128,-1,17
 820 1339 820 1339 889 1311 c 128,-1,18
 958 1283 958 1283 1004.5 1239 c 128,-1,19
 1051 1195 1051 1195 1077.5 1126 c 128,-1,20
 1104 1057 1104 1057 1104 967 c 0,21,22
 1104 828 1104 828 1038 729 c 128,-1,23
 972 630 972 630 854 590 c 1,24,-1
 1194 0 l 1,25,-1
 840 0 l 1,26,-1
 537 629 l 1,27,28
 522 666 522 666 522 690 c 1,29,30
 652 690 652 690 709 756 c 128,-1,31
 766 822 766 822 766 958 c 0,32,33
 766 1212 766 1212 559 1212 c 0,34,35
 508 1212 508 1212 453 1202 c 1,36,-1
 453 0 l 1,37,-1
 113 0 l 1,38,-1
 113 1337 l 1,13,14
EndSplineSet
Validated: 1
Position2: "'cpsp' Capital Spacing lookup 3 subtable" dx=10 dy=0 dh=20 dv=0
EndChar

StartChar: Rcaron
Encoding: 344 344 105
Width: 1181
Flags: MW
HStem: 1212 150<543 636>
VStem: 113 340<0 1202 0 1337 0 1337> 766 338<873 1034>
LayerCount: 2
UndoRedoHistory
Layer: 1
Undoes
EndUndoes
Redoes
EndRedoes
EndUndoRedoHistory
Fore
SplineSet
893 1649 m 1,0,-1
 600 1415 l 1,1,-1
 530 1415 l 1,2,-1
 231 1649 l 1,3,-1
 301 1733 l 1,4,-1
 563 1616 l 1,5,-1
 823 1733 l 1,6,-1
 893 1649 l 1,0,-1
113 1337 m 1,7,8
 388 1362 388 1362 567 1362 c 0,9,10
 664 1362 664 1362 742 1350.5 c 128,-1,11
 820 1339 820 1339 889 1311 c 128,-1,12
 958 1283 958 1283 1004.5 1239 c 128,-1,13
 1051 1195 1051 1195 1077.5 1126 c 128,-1,14
 1104 1057 1104 1057 1104 967 c 0,15,16
 1104 828 1104 828 1038 729 c 128,-1,17
 972 630 972 630 854 590 c 1,18,-1
 1194 0 l 1,19,-1
 840 0 l 1,20,-1
 537 629 l 1,21,22
 522 666 522 666 522 690 c 1,23,24
 652 690 652 690 709 756 c 128,-1,25
 766 822 766 822 766 958 c 0,26,27
 766 1212 766 1212 559 1212 c 0,28,29
 508 1212 508 1212 453 1202 c 1,30,-1
 453 0 l 1,31,-1
 113 0 l 1,32,-1
 113 1337 l 1,7,8
EndSplineSet
Validated: 1
Position2: "'cpsp' Capital Spacing lookup 3 subtable" dx=10 dy=0 dh=20 dv=0
EndChar

StartChar: Rcommaaccent
Encoding: 342 342 106
Width: 1181
Flags: MW
HStem: 1212 150<543 636>
VStem: 113 340<0 1202 0 1337 0 1337> 547 246<-322 -254> 766 338<873 1034>
LayerCount: 2
UndoRedoHistory
Layer: 1
Undoes
EndUndoes
Redoes
EndRedoes
EndUndoRedoHistory
Fore
SplineSet
113 1337 m 1,0,1
 388 1362 388 1362 567 1362 c 0,2,3
 664 1362 664 1362 742 1350.5 c 128,-1,4
 820 1339 820 1339 889 1311 c 128,-1,5
 958 1283 958 1283 1004.5 1239 c 128,-1,6
 1051 1195 1051 1195 1077.5 1126 c 128,-1,7
 1104 1057 1104 1057 1104 967 c 0,8,9
 1104 828 1104 828 1038 729 c 128,-1,10
 972 630 972 630 854 590 c 1,11,-1
 1194 0 l 1,12,-1
 840 0 l 1,13,-1
 537 629 l 1,14,15
 522 666 522 666 522 690 c 1,16,17
 652 690 652 690 709 756 c 128,-1,18
 766 822 766 822 766 958 c 0,19,20
 766 1212 766 1212 559 1212 c 0,21,22
 508 1212 508 1212 453 1202 c 1,23,-1
 453 0 l 1,24,-1
 113 0 l 1,25,-1
 113 1337 l 1,0,1
625 -104 m 0,26,27
 793 -104 793 -104 793 -262 c 0,28,29
 793 -357 793 -357 720 -432.5 c 128,-1,30
 647 -508 647 -508 547 -508 c 0,31,32
 513 -508 513 -508 471 -498 c 1,33,34
 547 -393 547 -393 547 -283 c 0,35,36
 547 -199 547 -199 504 -131 c 1,37,38
 553 -104 553 -104 625 -104 c 0,26,27
EndSplineSet
Validated: 1
Position2: "'cpsp' Capital Spacing lookup 3 subtable" dx=10 dy=0 dh=20 dv=0
EndChar

StartChar: Rdotbelow
Encoding: 7770 7770 107
Width: 1181
Flags: MW
HStem: -391 295<594 694> 1212 150<543 636>
VStem: 113 340<0 1202 0 1337 0 1337> 455 377<-293 -199> 766 338<873 1034>
LayerCount: 2
UndoRedoHistory
Layer: 1
Undoes
EndUndoes
Redoes
EndRedoes
EndUndoRedoHistory
Fore
SplineSet
113 1337 m 1,0,1
 388 1362 388 1362 567 1362 c 0,2,3
 664 1362 664 1362 742 1350.5 c 128,-1,4
 820 1339 820 1339 889 1311 c 128,-1,5
 958 1283 958 1283 1004.5 1239 c 128,-1,6
 1051 1195 1051 1195 1077.5 1126 c 128,-1,7
 1104 1057 1104 1057 1104 967 c 0,8,9
 1104 828 1104 828 1038 729 c 128,-1,10
 972 630 972 630 854 590 c 1,11,-1
 1194 0 l 1,12,-1
 840 0 l 1,13,-1
 537 629 l 1,14,15
 522 666 522 666 522 690 c 1,16,17
 652 690 652 690 709 756 c 128,-1,18
 766 822 766 822 766 958 c 0,19,20
 766 1212 766 1212 559 1212 c 0,21,22
 508 1212 508 1212 453 1202 c 1,23,-1
 453 0 l 1,24,-1
 113 0 l 1,25,-1
 113 1337 l 1,0,1
647 -96 m 128,-1,27
 730 -96 730 -96 780.5 -135.5 c 128,-1,28
 831 -175 831 -175 831 -244 c 0,29,30
 831 -315 831 -315 777.5 -353 c 128,-1,31
 724 -391 724 -391 641 -391 c 128,-1,32
 558 -391 558 -391 506.5 -353.5 c 128,-1,33
 455 -316 455 -316 455 -248 c 0,34,35
 455 -177 455 -177 509.5 -136.5 c 128,-1,26
 564 -96 564 -96 647 -96 c 128,-1,27
EndSplineSet
Validated: 1
Position2: "'cpsp' Capital Spacing lookup 3 subtable" dx=10 dy=0 dh=20 dv=0
EndChar

StartChar: S
Encoding: 83 83 108
Width: 1050
Flags: MW
HStem: -45 143<445 564 445 629> 1249 143<483 582>
VStem: 35 299<247 303> 74 307<946 1137> 678 299<1061 1127> 694 307<222 430>
LayerCount: 2
UndoRedoHistory
Layer: 1
Undoes
EndUndoes
Redoes
EndRedoes
EndUndoRedoHistory
Fore
SplineSet
553 1393 m 0,0,1
 635 1393 635 1393 706.5 1379 c 128,-1,2
 778 1365 778 1365 841 1335.5 c 128,-1,3
 904 1306 904 1306 940.5 1251 c 128,-1,4
 977 1196 977 1196 977 1122 c 0,5,6
 977 1032 977 1032 919.5 983 c 128,-1,7
 862 934 862 934 770 934 c 0,8,9
 707 934 707 934 664 956 c 1,10,11
 678 1008 678 1008 678 1075 c 0,12,13
 678 1157 678 1157 641.5 1203 c 128,-1,14
 605 1249 605 1249 528 1249 c 0,15,16
 460 1249 460 1249 420.5 1212 c 128,-1,17
 381 1175 381 1175 381 1108 c 0,18,19
 381 1043 381 1043 415 988.5 c 128,-1,20
 449 934 449 934 504 894 c 128,-1,21
 559 854 559 854 625 816 c 128,-1,22
 691 778 691 778 757 736 c 128,-1,23
 823 694 823 694 878 645 c 128,-1,24
 933 596 933 596 967 524.5 c 128,-1,25
 1001 453 1001 453 1001 365 c 0,26,27
 1001 261 1001 261 961 181 c 128,-1,28
 921 101 921 101 850 52.5 c 128,-1,29
 779 4 779 4 687 -20.5 c 128,-1,30
 595 -45 595 -45 485 -45 c 0,31,32
 416 -45 416 -45 354 -36.5 c 128,-1,33
 292 -28 292 -28 232.5 -7 c 128,-1,34
 173 14 173 14 130 46 c 128,-1,35
 87 78 87 78 61 128.5 c 128,-1,36
 35 179 35 179 35 242 c 0,37,38
 35 333 35 333 93 387.5 c 128,-1,39
 151 442 151 442 242 442 c 0,40,41
 308 442 308 442 348 420 c 1,42,43
 334 355 334 355 334 311 c 0,44,45
 334 98 334 98 510 98 c 0,46,47
 593 98 593 98 643.5 143.5 c 128,-1,48
 694 189 694 189 694 268 c 0,49,50
 694 320 694 320 673 364.5 c 128,-1,51
 652 409 652 409 616 443 c 128,-1,52
 580 477 580 477 533.5 509 c 128,-1,53
 487 541 487 541 435.5 570.5 c 128,-1,54
 384 600 384 600 332.5 631 c 128,-1,55
 281 662 281 662 234.5 700 c 128,-1,56
 188 738 188 738 152 781.5 c 128,-1,57
 116 825 116 825 95 884 c 128,-1,58
 74 943 74 943 74 1012 c 0,59,60
 74 1132 74 1132 142 1220.5 c 128,-1,61
 210 1309 210 1309 317 1351 c 128,-1,62
 424 1393 424 1393 553 1393 c 0,0,1
EndSplineSet
Validated: 1
Position2: "'cpsp' Capital Spacing lookup 3 subtable" dx=10 dy=0 dh=20 dv=0
EndChar

StartChar: Sacute
Encoding: 346 346 109
Width: 1050
Flags: MW
HStem: -45 143<445 564 445 629> 1249 143<483 582>
VStem: 35 299<247 303> 74 307<946 1137> 678 299<1061 1127> 694 307<222 430>
LayerCount: 2
UndoRedoHistory
Layer: 1
Undoes
EndUndoes
Redoes
EndRedoes
EndUndoRedoHistory
Fore
SplineSet
813 1739 m 1,0,1
 843 1715 843 1715 862 1680.5 c 128,-1,2
 881 1646 881 1646 881 1612 c 0,3,4
 881 1583 881 1583 871.5 1561 c 128,-1,5
 862 1539 862 1539 841.5 1524.5 c 128,-1,6
 821 1510 821 1510 801 1501 c 128,-1,7
 781 1492 781 1492 748.5 1486 c 128,-1,8
 716 1480 716 1480 694.5 1478 c 128,-1,9
 673 1476 673 1476 637 1473 c 2,10,-1
 367 1452 l 1,11,-1
 342 1548 l 1,12,-1
 813 1739 l 1,0,1
553 1393 m 0,13,14
 635 1393 635 1393 706.5 1379 c 128,-1,15
 778 1365 778 1365 841 1335.5 c 128,-1,16
 904 1306 904 1306 940.5 1251 c 128,-1,17
 977 1196 977 1196 977 1122 c 0,18,19
 977 1032 977 1032 919.5 983 c 128,-1,20
 862 934 862 934 770 934 c 0,21,22
 707 934 707 934 664 956 c 1,23,24
 678 1008 678 1008 678 1075 c 0,25,26
 678 1157 678 1157 641.5 1203 c 128,-1,27
 605 1249 605 1249 528 1249 c 0,28,29
 460 1249 460 1249 420.5 1212 c 128,-1,30
 381 1175 381 1175 381 1108 c 0,31,32
 381 1043 381 1043 415 988.5 c 128,-1,33
 449 934 449 934 504 894 c 128,-1,34
 559 854 559 854 625 816 c 128,-1,35
 691 778 691 778 757 736 c 128,-1,36
 823 694 823 694 878 645 c 128,-1,37
 933 596 933 596 967 524.5 c 128,-1,38
 1001 453 1001 453 1001 365 c 0,39,40
 1001 261 1001 261 961 181 c 128,-1,41
 921 101 921 101 850 52.5 c 128,-1,42
 779 4 779 4 687 -20.5 c 128,-1,43
 595 -45 595 -45 485 -45 c 0,44,45
 416 -45 416 -45 354 -36.5 c 128,-1,46
 292 -28 292 -28 232.5 -7 c 128,-1,47
 173 14 173 14 130 46 c 128,-1,48
 87 78 87 78 61 128.5 c 128,-1,49
 35 179 35 179 35 242 c 0,50,51
 35 333 35 333 93 387.5 c 128,-1,52
 151 442 151 442 242 442 c 0,53,54
 308 442 308 442 348 420 c 1,55,56
 334 355 334 355 334 311 c 0,57,58
 334 98 334 98 510 98 c 0,59,60
 593 98 593 98 643.5 143.5 c 128,-1,61
 694 189 694 189 694 268 c 0,62,63
 694 320 694 320 673 364.5 c 128,-1,64
 652 409 652 409 616 443 c 128,-1,65
 580 477 580 477 533.5 509 c 128,-1,66
 487 541 487 541 435.5 570.5 c 128,-1,67
 384 600 384 600 332.5 631 c 128,-1,68
 281 662 281 662 234.5 700 c 128,-1,69
 188 738 188 738 152 781.5 c 128,-1,70
 116 825 116 825 95 884 c 128,-1,71
 74 943 74 943 74 1012 c 0,72,73
 74 1132 74 1132 142 1220.5 c 128,-1,74
 210 1309 210 1309 317 1351 c 128,-1,75
 424 1393 424 1393 553 1393 c 0,13,14
EndSplineSet
Validated: 1
Substitution2: "'locl' Localized Forms in Latin lookup 13 subtable" Sacute.loclPLK
Substitution2: "'aalt' Access All Alternates lookup 0 subtable" Sacute.loclPLK
Position2: "'cpsp' Capital Spacing lookup 3 subtable" dx=10 dy=0 dh=20 dv=0
EndChar

StartChar: Scaron
Encoding: 352 352 110
Width: 1050
Flags: MW
HStem: -45 143<445 564 445 629> 1249 143<483 582>
VStem: 35 299<247 303> 74 307<946 1137> 678 299<1061 1127> 694 307<222 430>
LayerCount: 2
UndoRedoHistory
Layer: 1
Undoes
EndUndoes
Redoes
EndRedoes
EndUndoRedoHistory
Fore
SplineSet
856 1649 m 1,0,-1
 563 1415 l 1,1,-1
 494 1415 l 1,2,-1
 195 1649 l 1,3,-1
 264 1733 l 1,4,-1
 526 1616 l 1,5,-1
 786 1733 l 1,6,-1
 856 1649 l 1,0,-1
553 1393 m 0,7,8
 635 1393 635 1393 706.5 1379 c 128,-1,9
 778 1365 778 1365 841 1335.5 c 128,-1,10
 904 1306 904 1306 940.5 1251 c 128,-1,11
 977 1196 977 1196 977 1122 c 0,12,13
 977 1032 977 1032 919.5 983 c 128,-1,14
 862 934 862 934 770 934 c 0,15,16
 707 934 707 934 664 956 c 1,17,18
 678 1008 678 1008 678 1075 c 0,19,20
 678 1157 678 1157 641.5 1203 c 128,-1,21
 605 1249 605 1249 528 1249 c 0,22,23
 460 1249 460 1249 420.5 1212 c 128,-1,24
 381 1175 381 1175 381 1108 c 0,25,26
 381 1043 381 1043 415 988.5 c 128,-1,27
 449 934 449 934 504 894 c 128,-1,28
 559 854 559 854 625 816 c 128,-1,29
 691 778 691 778 757 736 c 128,-1,30
 823 694 823 694 878 645 c 128,-1,31
 933 596 933 596 967 524.5 c 128,-1,32
 1001 453 1001 453 1001 365 c 0,33,34
 1001 261 1001 261 961 181 c 128,-1,35
 921 101 921 101 850 52.5 c 128,-1,36
 779 4 779 4 687 -20.5 c 128,-1,37
 595 -45 595 -45 485 -45 c 0,38,39
 416 -45 416 -45 354 -36.5 c 128,-1,40
 292 -28 292 -28 232.5 -7 c 128,-1,41
 173 14 173 14 130 46 c 128,-1,42
 87 78 87 78 61 128.5 c 128,-1,43
 35 179 35 179 35 242 c 0,44,45
 35 333 35 333 93 387.5 c 128,-1,46
 151 442 151 442 242 442 c 0,47,48
 308 442 308 442 348 420 c 1,49,50
 334 355 334 355 334 311 c 0,51,52
 334 98 334 98 510 98 c 0,53,54
 593 98 593 98 643.5 143.5 c 128,-1,55
 694 189 694 189 694 268 c 0,56,57
 694 320 694 320 673 364.5 c 128,-1,58
 652 409 652 409 616 443 c 128,-1,59
 580 477 580 477 533.5 509 c 128,-1,60
 487 541 487 541 435.5 570.5 c 128,-1,61
 384 600 384 600 332.5 631 c 128,-1,62
 281 662 281 662 234.5 700 c 128,-1,63
 188 738 188 738 152 781.5 c 128,-1,64
 116 825 116 825 95 884 c 128,-1,65
 74 943 74 943 74 1012 c 0,66,67
 74 1132 74 1132 142 1220.5 c 128,-1,68
 210 1309 210 1309 317 1351 c 128,-1,69
 424 1393 424 1393 553 1393 c 0,7,8
EndSplineSet
Validated: 1
Position2: "'cpsp' Capital Spacing lookup 3 subtable" dx=10 dy=0 dh=20 dv=0
EndChar

StartChar: Scedilla
Encoding: 350 350 111
Width: 1050
Flags: MW
HStem: -524 125<425 464 401 539> -225 102<378 580> -45 143<485 564 445 629> 1249 143<483 582>
VStem: 35 299<247 303> 74 307<946 1137> 543 207<-343 -279> 678 299<1061 1127> 694 307<222 430>
LayerCount: 2
UndoRedoHistory
Layer: 1
Undoes
EndUndoes
Redoes
EndRedoes
EndUndoRedoHistory
Fore
SplineSet
379 -39 m 1,0,1
 307 -31 307 -31 248 -12 c 128,-1,2
 189 7 189 7 139.5 39.5 c 128,-1,3
 90 72 90 72 62.5 123.5 c 128,-1,4
 35 175 35 175 35 242 c 0,5,6
 35 333 35 333 93 387.5 c 128,-1,7
 151 442 151 442 242 442 c 0,8,9
 308 442 308 442 348 420 c 1,10,11
 334 355 334 355 334 311 c 0,12,13
 334 98 334 98 510 98 c 0,14,15
 593 98 593 98 643.5 143.5 c 128,-1,16
 694 189 694 189 694 268 c 0,17,18
 694 320 694 320 673 364.5 c 128,-1,19
 652 409 652 409 616 443 c 128,-1,20
 580 477 580 477 533.5 509 c 128,-1,21
 487 541 487 541 435.5 570.5 c 128,-1,22
 384 600 384 600 332.5 631 c 128,-1,23
 281 662 281 662 234.5 700 c 128,-1,24
 188 738 188 738 152 781.5 c 128,-1,25
 116 825 116 825 95 884 c 128,-1,26
 74 943 74 943 74 1012 c 0,27,28
 74 1132 74 1132 142 1220.5 c 128,-1,29
 210 1309 210 1309 317 1351 c 128,-1,30
 424 1393 424 1393 553 1393 c 0,31,32
 635 1393 635 1393 706.5 1379 c 128,-1,33
 778 1365 778 1365 841 1335.5 c 128,-1,34
 904 1306 904 1306 940.5 1251 c 128,-1,35
 977 1196 977 1196 977 1122 c 0,36,37
 977 1032 977 1032 919.5 983 c 128,-1,38
 862 934 862 934 770 934 c 0,39,40
 707 934 707 934 664 956 c 1,41,42
 678 1008 678 1008 678 1075 c 0,43,44
 678 1157 678 1157 641.5 1203 c 128,-1,45
 605 1249 605 1249 528 1249 c 0,46,47
 460 1249 460 1249 420.5 1212 c 128,-1,48
 381 1175 381 1175 381 1108 c 0,49,50
 381 1043 381 1043 415 988.5 c 128,-1,51
 449 934 449 934 504 894 c 128,-1,52
 559 854 559 854 625 816 c 128,-1,53
 691 778 691 778 757 736 c 128,-1,54
 823 694 823 694 878 645 c 128,-1,55
 933 596 933 596 967 524.5 c 128,-1,56
 1001 453 1001 453 1001 365 c 0,57,58
 1001 261 1001 261 961 181 c 128,-1,59
 921 101 921 101 850 52.5 c 128,-1,60
 779 4 779 4 687 -20.5 c 128,-1,61
 595 -45 595 -45 485 -45 c 1,62,-1
 453 -125 l 1,63,64
 473 -123 473 -123 510 -123 c 0,65,66
 621 -123 621 -123 685.5 -170 c 128,-1,67
 750 -217 750 -217 750 -315 c 0,68,69
 750 -411 750 -411 666 -467.5 c 128,-1,70
 582 -524 582 -524 467 -524 c 0,71,72
 432 -524 432 -524 398.5 -518.5 c 128,-1,73
 365 -513 365 -513 332.5 -500 c 128,-1,74
 300 -487 300 -487 280 -462 c 128,-1,75
 260 -437 260 -437 260 -403 c 0,76,77
 260 -361 260 -361 283 -338 c 1,78,79
 335 -399 335 -399 436 -399 c 0,80,81
 480 -399 480 -399 511.5 -376.5 c 128,-1,82
 543 -354 543 -354 543 -315 c 0,83,84
 543 -225 543 -225 391 -225 c 0,85,86
 348 -225 348 -225 307 -231 c 1,87,-1
 379 -39 l 1,0,1
EndSplineSet
Validated: 1
Substitution2: "'locl' Localized Forms in Latin lookup 12 subtable" Scommaaccent
Substitution2: "'locl' Localized Forms in Latin lookup 11 subtable" Scommaaccent
Substitution2: "'aalt' Access All Alternates lookup 0 subtable" Scommaaccent
Position2: "'cpsp' Capital Spacing lookup 3 subtable" dx=10 dy=0 dh=20 dv=0
EndChar

StartChar: Scircumflex
Encoding: 348 348 112
Width: 1050
Flags: MW
HStem: -45 143<445 564 445 629> 1249 143<483 582> 1427 41G<199 199 860 860>
VStem: 35 299<247 303> 74 307<946 1137> 678 299<1061 1127> 694 307<222 430>
LayerCount: 2
UndoRedoHistory
Layer: 1
Undoes
EndUndoes
Redoes
EndRedoes
EndUndoRedoHistory
Fore
SplineSet
199 1468 m 1,0,-1
 502 1722 l 1,1,-1
 551 1722 l 1,2,-1
 860 1468 l 1,3,-1
 791 1384 l 1,4,-1
 528 1511 l 1,5,-1
 268 1384 l 1,6,-1
 199 1468 l 1,0,-1
553 1393 m 0,7,8
 635 1393 635 1393 706.5 1379 c 128,-1,9
 778 1365 778 1365 841 1335.5 c 128,-1,10
 904 1306 904 1306 940.5 1251 c 128,-1,11
 977 1196 977 1196 977 1122 c 0,12,13
 977 1032 977 1032 919.5 983 c 128,-1,14
 862 934 862 934 770 934 c 0,15,16
 707 934 707 934 664 956 c 1,17,18
 678 1008 678 1008 678 1075 c 0,19,20
 678 1157 678 1157 641.5 1203 c 128,-1,21
 605 1249 605 1249 528 1249 c 0,22,23
 460 1249 460 1249 420.5 1212 c 128,-1,24
 381 1175 381 1175 381 1108 c 0,25,26
 381 1043 381 1043 415 988.5 c 128,-1,27
 449 934 449 934 504 894 c 128,-1,28
 559 854 559 854 625 816 c 128,-1,29
 691 778 691 778 757 736 c 128,-1,30
 823 694 823 694 878 645 c 128,-1,31
 933 596 933 596 967 524.5 c 128,-1,32
 1001 453 1001 453 1001 365 c 0,33,34
 1001 261 1001 261 961 181 c 128,-1,35
 921 101 921 101 850 52.5 c 128,-1,36
 779 4 779 4 687 -20.5 c 128,-1,37
 595 -45 595 -45 485 -45 c 0,38,39
 416 -45 416 -45 354 -36.5 c 128,-1,40
 292 -28 292 -28 232.5 -7 c 128,-1,41
 173 14 173 14 130 46 c 128,-1,42
 87 78 87 78 61 128.5 c 128,-1,43
 35 179 35 179 35 242 c 0,44,45
 35 333 35 333 93 387.5 c 128,-1,46
 151 442 151 442 242 442 c 0,47,48
 308 442 308 442 348 420 c 1,49,50
 334 355 334 355 334 311 c 0,51,52
 334 98 334 98 510 98 c 0,53,54
 593 98 593 98 643.5 143.5 c 128,-1,55
 694 189 694 189 694 268 c 0,56,57
 694 320 694 320 673 364.5 c 128,-1,58
 652 409 652 409 616 443 c 128,-1,59
 580 477 580 477 533.5 509 c 128,-1,60
 487 541 487 541 435.5 570.5 c 128,-1,61
 384 600 384 600 332.5 631 c 128,-1,62
 281 662 281 662 234.5 700 c 128,-1,63
 188 738 188 738 152 781.5 c 128,-1,64
 116 825 116 825 95 884 c 128,-1,65
 74 943 74 943 74 1012 c 0,66,67
 74 1132 74 1132 142 1220.5 c 128,-1,68
 210 1309 210 1309 317 1351 c 128,-1,69
 424 1393 424 1393 553 1393 c 0,7,8
EndSplineSet
Validated: 1
Position2: "'cpsp' Capital Spacing lookup 3 subtable" dx=10 dy=0 dh=20 dv=0
EndChar

StartChar: Scommaaccent
Encoding: 536 536 113
Width: 1050
Flags: MW
HStem: -45 143<445 564 445 629> 1249 143<483 582>
VStem: 35 299<247 303> 74 307<946 1137> 399 246<-322 -254> 678 299<1061 1127> 694 307<222 430>
LayerCount: 2
UndoRedoHistory
Layer: 1
Undoes
EndUndoes
Redoes
EndRedoes
EndUndoRedoHistory
Fore
SplineSet
553 1393 m 0,0,1
 635 1393 635 1393 706.5 1379 c 128,-1,2
 778 1365 778 1365 841 1335.5 c 128,-1,3
 904 1306 904 1306 940.5 1251 c 128,-1,4
 977 1196 977 1196 977 1122 c 0,5,6
 977 1032 977 1032 919.5 983 c 128,-1,7
 862 934 862 934 770 934 c 0,8,9
 707 934 707 934 664 956 c 1,10,11
 678 1008 678 1008 678 1075 c 0,12,13
 678 1157 678 1157 641.5 1203 c 128,-1,14
 605 1249 605 1249 528 1249 c 0,15,16
 460 1249 460 1249 420.5 1212 c 128,-1,17
 381 1175 381 1175 381 1108 c 0,18,19
 381 1043 381 1043 415 988.5 c 128,-1,20
 449 934 449 934 504 894 c 128,-1,21
 559 854 559 854 625 816 c 128,-1,22
 691 778 691 778 757 736 c 128,-1,23
 823 694 823 694 878 645 c 128,-1,24
 933 596 933 596 967 524.5 c 128,-1,25
 1001 453 1001 453 1001 365 c 0,26,27
 1001 261 1001 261 961 181 c 128,-1,28
 921 101 921 101 850 52.5 c 128,-1,29
 779 4 779 4 687 -20.5 c 128,-1,30
 595 -45 595 -45 485 -45 c 0,31,32
 416 -45 416 -45 354 -36.5 c 128,-1,33
 292 -28 292 -28 232.5 -7 c 128,-1,34
 173 14 173 14 130 46 c 128,-1,35
 87 78 87 78 61 128.5 c 128,-1,36
 35 179 35 179 35 242 c 0,37,38
 35 333 35 333 93 387.5 c 128,-1,39
 151 442 151 442 242 442 c 0,40,41
 308 442 308 442 348 420 c 1,42,43
 334 355 334 355 334 311 c 0,44,45
 334 98 334 98 510 98 c 0,46,47
 593 98 593 98 643.5 143.5 c 128,-1,48
 694 189 694 189 694 268 c 0,49,50
 694 320 694 320 673 364.5 c 128,-1,51
 652 409 652 409 616 443 c 128,-1,52
 580 477 580 477 533.5 509 c 128,-1,53
 487 541 487 541 435.5 570.5 c 128,-1,54
 384 600 384 600 332.5 631 c 128,-1,55
 281 662 281 662 234.5 700 c 128,-1,56
 188 738 188 738 152 781.5 c 128,-1,57
 116 825 116 825 95 884 c 128,-1,58
 74 943 74 943 74 1012 c 0,59,60
 74 1132 74 1132 142 1220.5 c 128,-1,61
 210 1309 210 1309 317 1351 c 128,-1,62
 424 1393 424 1393 553 1393 c 0,0,1
477 -104 m 0,63,64
 645 -104 645 -104 645 -262 c 0,65,66
 645 -357 645 -357 572 -432.5 c 128,-1,67
 499 -508 499 -508 399 -508 c 0,68,69
 366 -508 366 -508 324 -498 c 1,70,71
 399 -394 399 -394 399 -283 c 0,72,73
 399 -199 399 -199 356 -131 c 1,74,75
 405 -104 405 -104 477 -104 c 0,63,64
EndSplineSet
Validated: 1
Position2: "'cpsp' Capital Spacing lookup 3 subtable" dx=10 dy=0 dh=20 dv=0
EndChar

StartChar: Sdotbelow
Encoding: 7778 7778 114
Width: 1050
Flags: MW
HStem: -391 295<446 547> -45 143<445 564 445 629> 1249 143<483 582>
VStem: 35 299<247 303> 74 307<946 1137> 307 377<-293 -199> 678 299<1061 1127> 694 307<222 430>
LayerCount: 2
UndoRedoHistory
Layer: 1
Undoes
EndUndoes
Redoes
EndRedoes
EndUndoRedoHistory
Fore
SplineSet
553 1393 m 0,0,1
 635 1393 635 1393 706.5 1379 c 128,-1,2
 778 1365 778 1365 841 1335.5 c 128,-1,3
 904 1306 904 1306 940.5 1251 c 128,-1,4
 977 1196 977 1196 977 1122 c 0,5,6
 977 1032 977 1032 919.5 983 c 128,-1,7
 862 934 862 934 770 934 c 0,8,9
 707 934 707 934 664 956 c 1,10,11
 678 1008 678 1008 678 1075 c 0,12,13
 678 1157 678 1157 641.5 1203 c 128,-1,14
 605 1249 605 1249 528 1249 c 0,15,16
 460 1249 460 1249 420.5 1212 c 128,-1,17
 381 1175 381 1175 381 1108 c 0,18,19
 381 1043 381 1043 415 988.5 c 128,-1,20
 449 934 449 934 504 894 c 128,-1,21
 559 854 559 854 625 816 c 128,-1,22
 691 778 691 778 757 736 c 128,-1,23
 823 694 823 694 878 645 c 128,-1,24
 933 596 933 596 967 524.5 c 128,-1,25
 1001 453 1001 453 1001 365 c 0,26,27
 1001 261 1001 261 961 181 c 128,-1,28
 921 101 921 101 850 52.5 c 128,-1,29
 779 4 779 4 687 -20.5 c 128,-1,30
 595 -45 595 -45 485 -45 c 0,31,32
 416 -45 416 -45 354 -36.5 c 128,-1,33
 292 -28 292 -28 232.5 -7 c 128,-1,34
 173 14 173 14 130 46 c 128,-1,35
 87 78 87 78 61 128.5 c 128,-1,36
 35 179 35 179 35 242 c 0,37,38
 35 333 35 333 93 387.5 c 128,-1,39
 151 442 151 442 242 442 c 0,40,41
 308 442 308 442 348 420 c 1,42,43
 334 355 334 355 334 311 c 0,44,45
 334 98 334 98 510 98 c 0,46,47
 593 98 593 98 643.5 143.5 c 128,-1,48
 694 189 694 189 694 268 c 0,49,50
 694 320 694 320 673 364.5 c 128,-1,51
 652 409 652 409 616 443 c 128,-1,52
 580 477 580 477 533.5 509 c 128,-1,53
 487 541 487 541 435.5 570.5 c 128,-1,54
 384 600 384 600 332.5 631 c 128,-1,55
 281 662 281 662 234.5 700 c 128,-1,56
 188 738 188 738 152 781.5 c 128,-1,57
 116 825 116 825 95 884 c 128,-1,58
 74 943 74 943 74 1012 c 0,59,60
 74 1132 74 1132 142 1220.5 c 128,-1,61
 210 1309 210 1309 317 1351 c 128,-1,62
 424 1393 424 1393 553 1393 c 0,0,1
500 -96 m 128,-1,64
 583 -96 583 -96 633.5 -135.5 c 128,-1,65
 684 -175 684 -175 684 -244 c 0,66,67
 684 -315 684 -315 630.5 -353 c 128,-1,68
 577 -391 577 -391 494 -391 c 128,-1,69
 411 -391 411 -391 359 -353.5 c 128,-1,70
 307 -316 307 -316 307 -248 c 0,71,72
 307 -177 307 -177 362 -136.5 c 128,-1,63
 417 -96 417 -96 500 -96 c 128,-1,64
EndSplineSet
Validated: 1
Position2: "'cpsp' Capital Spacing lookup 3 subtable" dx=10 dy=0 dh=20 dv=0
EndChar

StartChar: uni1E9E
Encoding: 7838 7838 115
Width: 1437
Flags: MW
HStem: -45 125<932 1030 932 1094> 0 383<92 767> 1243 150<589 762>
VStem: 92 342<0 668 668 668> 555 291<205 269> 674 272<827 935> 1130 285<189 371>
LayerCount: 2
UndoRedoHistory
Layer: 1
Undoes
EndUndoes
Redoes
EndRedoes
EndUndoRedoHistory
Fore
SplineSet
92 668 m 1,0,1
 91.8873239437 678.084507042 91.8873239437 678.084507042 91.8873239437 688.018250347 c 0,2,3
 91.8873239437 854.408450704 91.8873239437 854.408450704 123.5 978.5 c 0,4,5
 157 1110 157 1110 230.5 1204.5 c 128,-1,6
 304 1299 304 1299 426.5 1346 c 128,-1,7
 549 1393 549 1393 721 1393 c 0,8,9
 885 1393 885 1393 1014.5 1330 c 128,-1,10
 1144 1267 1144 1267 1221 1135 c 1,11,12
 1177 1125 1177 1125 1142.5 1114.5 c 128,-1,13
 1108 1104 1108 1104 1069 1086.5 c 128,-1,14
 1030 1069 1030 1069 1005 1048 c 128,-1,15
 980 1027 980 1027 963 995.5 c 128,-1,16
 946 964 946 964 946 926 c 0,17,18
 946 886 946 886 972 847 c 128,-1,19
 998 808 998 808 1039 773.5 c 128,-1,20
 1080 739 1080 739 1130 703 c 128,-1,21
 1180 667 1180 667 1230.5 626 c 128,-1,22
 1281 585 1281 585 1322 540.5 c 128,-1,23
 1363 496 1363 496 1389 437.5 c 128,-1,24
 1415 379 1415 379 1415 315 c 0,25,26
 1415 192 1415 192 1355 109.5 c 128,-1,27
 1295 27 1295 27 1197 -9 c 128,-1,28
 1099 -45 1099 -45 967 -45 c 0,29,30
 889 -45 889 -45 819 -31.5 c 128,-1,31
 749 -18 749 -18 688 11 c 128,-1,32
 627 40 627 40 591 92.5 c 128,-1,33
 555 145 555 145 555 215 c 0,34,35
 555 294 555 294 611 338.5 c 128,-1,36
 667 383 667 383 752 383 c 0,37,38
 823 383 823 383 858 358 c 1,39,40
 846 292 846 292 846 256 c 0,41,42
 846 80 846 80 983 80 c 0,43,44
 1053 80 1053 80 1091.5 122.5 c 128,-1,45
 1130 165 1130 165 1130 238 c 0,46,47
 1130 292 1130 292 1105 339.5 c 128,-1,48
 1080 387 1080 387 1039.5 424 c 128,-1,49
 999 461 999 461 950.5 496.5 c 128,-1,50
 902 532 902 532 853.5 569.5 c 128,-1,51
 805 607 805 607 764.5 647 c 128,-1,52
 724 687 724 687 699 741.5 c 128,-1,53
 674 796 674 796 674 858 c 0,54,55
 674 965 674 965 746.5 1032.5 c 128,-1,56
 819 1100 819 1100 934 1135 c 1,57,58
 851 1243 851 1243 713 1243 c 0,59,60
 640 1243 640 1243 588.5 1214.5 c 128,-1,61
 537 1186 537 1186 507 1139.5 c 128,-1,62
 477 1093 477 1093 460 1017 c 128,-1,63
 443 941 443 941 438 864.5 c 0,64,65
 433.833333333 800.75 433.833333333 800.75 433.833333333 715.125 c 0,66,67
 433.833333333 698 433.833333333 698 434 680 c 1,68,-1
 434 0 l 1,69,-1
 92 0 l 1,70,-1
 92 668 l 1,0,1
EndSplineSet
Validated: 524289
Position2: "'cpsp' Capital Spacing lookup 3 subtable" dx=10 dy=0 dh=20 dv=0
EndChar

StartChar: Schwa
Encoding: 399 399 116
Width: 1230
Flags: MW
HStem: -45 152<521 673 521 762> 618 129<481 803 481 752> 1165 233<455 622>
VStem: 55 350<285 449 285 504> 803 373<618 618>
LayerCount: 2
UndoRedoHistory
Layer: 1
Undoes
EndUndoes
Redoes
EndRedoes
EndUndoRedoHistory
Fore
SplineSet
565 1399 m 0,0,1
 722 1399 722 1399 840.5 1348.5 c 128,-1,2
 959 1298 959 1298 1031.5 1203 c 128,-1,3
 1104 1108 1104 1108 1140 980 c 128,-1,4
 1176 852 1176 852 1176 690 c 0,5,6
 1176 341 1176 341 1019.5 148 c 128,-1,7
 863 -45 863 -45 539 -45 c 0,8,9
 461 -45 461 -45 390.5 -31 c 128,-1,10
 320 -17 320 -17 258.5 13.5 c 128,-1,11
 197 44 197 44 152 88.5 c 128,-1,12
 107 133 107 133 81 196 c 128,-1,13
 55 259 55 259 55 336 c 0,14,15
 55 434 55 434 85.5 507.5 c 128,-1,16
 116 581 116 581 167.5 626.5 c 128,-1,17
 219 672 219 672 296.5 699.5 c 128,-1,18
 374 727 374 727 457 737.5 c 128,-1,19
 540 748 540 748 645 748 c 0,20,21
 680 748 680 748 803 741 c 1,22,23
 783 1165 783 1165 512 1165 c 0,24,25
 406 1165 406 1165 313.5 1100.5 c 128,-1,26
 221 1036 221 1036 170 932 c 1,27,28
 137 948 137 948 119.5 985 c 128,-1,29
 102 1022 102 1022 102 1063 c 0,30,31
 102 1143 102 1143 143 1208.5 c 128,-1,32
 184 1274 184 1274 251 1314.5 c 128,-1,33
 318 1355 318 1355 399 1377 c 128,-1,34
 480 1399 480 1399 565 1399 c 0,0,1
578 106 m 0,35,36
 617 106 617 106 650 124.5 c 128,-1,37
 683 143 683 143 705.5 173 c 128,-1,38
 728 203 728 203 745 246 c 128,-1,39
 762 289 762 289 772.5 333.5 c 128,-1,40
 783 378 783 378 790 431 c 128,-1,41
 797 484 797 484 799.5 527.5 c 128,-1,42
 802 571 802 571 803 618 c 1,43,-1
 752 618 l 1,44,45
 746.830769231 618.061538462 746.830769231 618.061538462 741.736331361 618.061538462 c 0,46,47
 581.261538462 618.061538462 581.261538462 618.061538462 495 557 c 0,48,49
 406 494 406 494 406 344 c 0,50,51
 406 248 406 248 452 177 c 128,-1,52
 498 106 498 106 578 106 c 0,35,36
EndSplineSet
Validated: 524289
Position2: "'cpsp' Capital Spacing lookup 3 subtable" dx=10 dy=0 dh=20 dv=0
EndChar

StartChar: T
Encoding: 84 84 117
Width: 929
Flags: MW
HStem: 1190 162<-8 295 -8 942 635 928 635 635>
VStem: 295 340<0 1190 0 1190>
LayerCount: 2
UndoRedoHistory
Layer: 1
Undoes
EndUndoes
Redoes
EndRedoes
EndUndoRedoHistory
Fore
SplineSet
928 1190 m 1,0,-1
 635 1190 l 1,1,-1
 635 0 l 1,2,-1
 295 0 l 1,3,-1
 295 1190 l 1,4,-1
 -8 1190 l 1,5,-1
 -8 1352 l 1,6,-1
 942 1352 l 1,7,-1
 928 1190 l 1,0,-1
EndSplineSet
Validated: 1
Position2: "'cpsp' Capital Spacing lookup 3 subtable" dx=10 dy=0 dh=20 dv=0
EndChar

StartChar: Tbar
Encoding: 358 358 118
Width: 929
Flags: MW
HStem: 608 168<131 295 131 295 27 295 635 803> 1190 162<-8 295 -8 942 635 928 635 635>
VStem: 295 340<0 608 0 608 776 1190>
LayerCount: 2
UndoRedoHistory
Layer: 1
Undoes
EndUndoes
Redoes
EndRedoes
EndUndoRedoHistory
Fore
SplineSet
635 1190 m 1,0,-1
 635 776 l 1,1,-1
 915 776 l 1,2,3
 928 737 928 737 928 711 c 0,4,5
 928 608 928 608 803 608 c 2,6,-1
 635 608 l 1,7,-1
 635 0 l 1,8,-1
 295 0 l 1,9,-1
 295 608 l 1,10,-1
 27 608 l 1,11,12
 14 637 14 637 14 674 c 0,13,14
 14 724 14 724 44.5 750 c 128,-1,15
 75 776 75 776 131 776 c 2,16,-1
 295 776 l 1,17,-1
 295 1190 l 1,18,-1
 -8 1190 l 1,19,-1
 -8 1352 l 1,20,-1
 942 1352 l 1,21,-1
 928 1190 l 1,22,-1
 635 1190 l 1,0,-1
EndSplineSet
Validated: 1
Position2: "'cpsp' Capital Spacing lookup 3 subtable" dx=10 dy=0 dh=20 dv=0
EndChar

StartChar: Tcaron
Encoding: 356 356 119
Width: 929
Flags: MW
HStem: 1190 162<-8 295 -8 942 635 928 635 635>
VStem: 295 340<0 1190 0 1190>
LayerCount: 2
UndoRedoHistory
Layer: 1
Undoes
EndUndoes
Redoes
EndRedoes
EndUndoRedoHistory
Fore
SplineSet
793 1649 m 1,0,-1
 500 1415 l 1,1,-1
 430 1415 l 1,2,-1
 131 1649 l 1,3,-1
 201 1733 l 1,4,-1
 463 1616 l 1,5,-1
 723 1733 l 1,6,-1
 793 1649 l 1,0,-1
635 1190 m 1,7,-1
 635 0 l 1,8,-1
 295 0 l 1,9,-1
 295 1190 l 1,10,-1
 -8 1190 l 1,11,-1
 -8 1352 l 1,12,-1
 942 1352 l 1,13,-1
 928 1190 l 1,14,-1
 635 1190 l 1,7,-1
EndSplineSet
Validated: 1
Position2: "'cpsp' Capital Spacing lookup 3 subtable" dx=10 dy=0 dh=20 dv=0
EndChar

StartChar: Tcedilla
Encoding: 354 354 120
Width: 929
Flags: MW
HStem: -524 125<392 431 369 506> -225 102<345 547> 1190 162<-8 295 -8 942 635 635 635 928>
VStem: 295 340<0 1190 0 1190> 510 207<-343 -279>
LayerCount: 2
UndoRedoHistory
Layer: 1
Undoes
EndUndoes
Redoes
EndRedoes
EndUndoRedoHistory
Fore
SplineSet
471 0 m 1,0,-1
 420 -125 l 1,1,2
 440 -123 440 -123 477 -123 c 0,3,4
 588 -123 588 -123 652.5 -170 c 128,-1,5
 717 -217 717 -217 717 -315 c 0,6,7
 717 -411 717 -411 633 -467.5 c 128,-1,8
 549 -524 549 -524 434 -524 c 0,9,10
 399 -524 399 -524 365.5 -518.5 c 128,-1,11
 332 -513 332 -513 299.5 -500 c 128,-1,12
 267 -487 267 -487 247 -462 c 128,-1,13
 227 -437 227 -437 227 -403 c 0,14,15
 227 -361 227 -361 250 -338 c 1,16,17
 302 -399 302 -399 403 -399 c 0,18,19
 447 -399 447 -399 478.5 -376.5 c 128,-1,20
 510 -354 510 -354 510 -315 c 0,21,22
 510 -225 510 -225 358 -225 c 0,23,24
 314 -225 314 -225 274 -231 c 1,25,-1
 360 0 l 1,26,-1
 295 0 l 1,27,-1
 295 1190 l 1,28,-1
 -8 1190 l 1,29,-1
 -8 1352 l 1,30,-1
 942 1352 l 1,31,-1
 928 1190 l 1,32,-1
 635 1190 l 1,33,-1
 635 0 l 1,34,-1
 471 0 l 1,0,-1
EndSplineSet
Validated: 1
Substitution2: "'locl' Localized Forms in Latin lookup 12 subtable" uni021A
Substitution2: "'locl' Localized Forms in Latin lookup 11 subtable" uni021A
Substitution2: "'aalt' Access All Alternates lookup 0 subtable" uni021A
Position2: "'cpsp' Capital Spacing lookup 3 subtable" dx=10 dy=0 dh=20 dv=0
EndChar

StartChar: uni021A
Encoding: 538 538 121
Width: 929
Flags: MW
HStem: 1190 162<-8 295 -8 942 635 928 635 635>
VStem: 295 340<0 1190 0 1190> 369 246<-322 -254>
LayerCount: 2
UndoRedoHistory
Layer: 1
Undoes
EndUndoes
Redoes
EndRedoes
EndUndoRedoHistory
Fore
SplineSet
635 1190 m 1,0,-1
 635 0 l 1,1,-1
 295 0 l 1,2,-1
 295 1190 l 1,3,-1
 -8 1190 l 1,4,-1
 -8 1352 l 1,5,-1
 942 1352 l 1,6,-1
 928 1190 l 1,7,-1
 635 1190 l 1,0,-1
446 -104 m 0,8,9
 614 -104 614 -104 614 -262 c 0,10,11
 614 -357 614 -357 541.5 -432.5 c 128,-1,12
 469 -508 469 -508 369 -508 c 0,13,14
 335 -508 335 -508 293 -498 c 1,15,16
 369 -393 369 -393 369 -283 c 0,17,18
 369 -199 369 -199 326 -131 c 1,19,20
 375 -104 375 -104 446 -104 c 0,8,9
EndSplineSet
Validated: 1
Position2: "'cpsp' Capital Spacing lookup 3 subtable" dx=10 dy=0 dh=20 dv=0
EndChar

StartChar: Tdotbelow
Encoding: 7788 7788 122
Width: 929
Flags: MW
HStem: -391 295<416 516> 1190 162<-8 295 -8 942 635 928 635 635>
VStem: 295 340<0 1190 0 1190>
LayerCount: 2
UndoRedoHistory
Layer: 1
Undoes
EndUndoes
Redoes
EndRedoes
EndUndoRedoHistory
Fore
SplineSet
635 1190 m 1,0,-1
 635 0 l 1,1,-1
 295 0 l 1,2,-1
 295 1190 l 1,3,-1
 -8 1190 l 1,4,-1
 -8 1352 l 1,5,-1
 942 1352 l 1,6,-1
 928 1190 l 1,7,-1
 635 1190 l 1,0,-1
469 -96 m 128,-1,9
 552 -96 552 -96 602.5 -135.5 c 128,-1,10
 653 -175 653 -175 653 -244 c 0,11,12
 653 -315 653 -315 599.5 -353 c 128,-1,13
 546 -391 546 -391 463 -391 c 128,-1,14
 380 -391 380 -391 328 -353.5 c 128,-1,15
 276 -316 276 -316 276 -248 c 0,16,17
 276 -177 276 -177 331 -136.5 c 128,-1,8
 386 -96 386 -96 469 -96 c 128,-1,9
EndSplineSet
Validated: 1
Position2: "'cpsp' Capital Spacing lookup 3 subtable" dx=10 dy=0 dh=20 dv=0
EndChar

StartChar: U
Encoding: 85 85 123
Width: 1185
Flags: MW
HStem: -45 158<544 723 544 796> 1311 41G<98 438 438 438 827 1085 1085 1085>
VStem: 98 340<494 516 516 1352> 827 258<539 561 561 1352>
LayerCount: 2
UndoRedoHistory
Layer: 1
Undoes
EndUndoes
Redoes
EndRedoes
EndUndoRedoHistory
Fore
SplineSet
1085 561 m 2,0,1
 1085 408 1085 408 1063.5 301.5 c 128,-1,2
 1042 195 1042 195 988.5 114 c 128,-1,3
 935 33 935 33 840 -6 c 128,-1,4
 745 -45 745 -45 604 -45 c 0,5,6
 332 -45 332 -45 215 84 c 128,-1,7
 98 213 98 213 98 494 c 2,8,-1
 98 1352 l 1,9,-1
 438 1352 l 1,10,-1
 438 516 l 2,11,12
 438 450 438 450 440 403.5 c 128,-1,13
 442 357 442 357 448.5 307 c 128,-1,14
 455 257 455 257 468.5 225 c 128,-1,15
 482 193 482 193 503 165.5 c 128,-1,16
 524 138 524 138 556.5 125.5 c 128,-1,17
 589 113 589 113 633 113 c 0,18,19
 671 113 671 113 700.5 124.5 c 128,-1,20
 730 136 730 136 750.5 154 c 128,-1,21
 771 172 771 172 785 203.5 c 128,-1,22
 799 235 799 235 807.5 267 c 128,-1,23
 816 299 816 299 820 347.5 c 128,-1,24
 824 396 824 396 825.5 437.5 c 128,-1,25
 827 479 827 479 827 539 c 2,26,-1
 827 1352 l 1,27,-1
 1085 1352 l 1,28,-1
 1085 561 l 2,0,1
EndSplineSet
Validated: 1
Position2: "'cpsp' Capital Spacing lookup 3 subtable" dx=10 dy=0 dh=20 dv=0
EndChar

StartChar: Uacute
Encoding: 218 218 124
Width: 1185
Flags: MW
HStem: -45 158<544 723 544 796> 1311 41G<98 438 438 438 827 1085 1085 1085>
VStem: 98 340<494 516 516 1352> 827 258<539 561 561 1352>
LayerCount: 2
UndoRedoHistory
Layer: 1
Undoes
EndUndoes
Redoes
EndRedoes
EndUndoRedoHistory
Fore
SplineSet
918 1739 m 1,0,1
 948 1715 948 1715 966.5 1681 c 128,-1,2
 985 1647 985 1647 985 1612 c 0,3,4
 985 1583 985 1583 975.5 1561 c 128,-1,5
 966 1539 966 1539 945.5 1524.5 c 128,-1,6
 925 1510 925 1510 905 1501 c 128,-1,7
 885 1492 885 1492 852.5 1486 c 128,-1,8
 820 1480 820 1480 798.5 1478 c 128,-1,9
 777 1476 777 1476 741 1473 c 2,10,-1
 471 1452 l 1,11,-1
 446 1548 l 1,12,-1
 918 1739 l 1,0,1
1085 561 m 2,13,14
 1085 408 1085 408 1063.5 301.5 c 128,-1,15
 1042 195 1042 195 988.5 114 c 128,-1,16
 935 33 935 33 840 -6 c 128,-1,17
 745 -45 745 -45 604 -45 c 0,18,19
 332 -45 332 -45 215 84 c 128,-1,20
 98 213 98 213 98 494 c 2,21,-1
 98 1352 l 1,22,-1
 438 1352 l 1,23,-1
 438 516 l 2,24,25
 438 450 438 450 440 403.5 c 128,-1,26
 442 357 442 357 448.5 307 c 128,-1,27
 455 257 455 257 468.5 225 c 128,-1,28
 482 193 482 193 503 165.5 c 128,-1,29
 524 138 524 138 556.5 125.5 c 128,-1,30
 589 113 589 113 633 113 c 0,31,32
 671 113 671 113 700.5 124.5 c 128,-1,33
 730 136 730 136 750.5 154 c 128,-1,34
 771 172 771 172 785 203.5 c 128,-1,35
 799 235 799 235 807.5 267 c 128,-1,36
 816 299 816 299 820 347.5 c 128,-1,37
 824 396 824 396 825.5 437.5 c 128,-1,38
 827 479 827 479 827 539 c 2,39,-1
 827 1352 l 1,40,-1
 1085 1352 l 1,41,-1
 1085 561 l 2,13,14
EndSplineSet
Validated: 1
Position2: "'cpsp' Capital Spacing lookup 3 subtable" dx=10 dy=0 dh=20 dv=0
EndChar

StartChar: Ubreve
Encoding: 364 364 125
Width: 1185
Flags: MW
HStem: -45 158<544 723 544 796> 1311 41G<98 438 438 438 827 1085 1085 1085> 1419 106<579 686 579 756>
VStem: 98 340<494 516 516 1352> 279 246<1656 1700 1656 1700> 739 246<1656 1700> 827 258<539 561 561 1352>
LayerCount: 2
UndoRedoHistory
Layer: 1
Undoes
EndUndoes
Redoes
EndRedoes
EndUndoRedoHistory
Fore
SplineSet
985 1700 m 1,0,1
 985 1567 985 1567 898.5 1493 c 128,-1,2
 812 1419 812 1419 633 1419 c 0,3,4
 453 1419 453 1419 366 1493 c 128,-1,5
 279 1567 279 1567 279 1700 c 1,6,-1
 524 1700 l 1,7,8
 524 1665 524 1665 525 1647 c 128,-1,9
 526 1629 526 1629 531.5 1601.5 c 128,-1,10
 537 1574 537 1574 547.5 1560.5 c 128,-1,11
 558 1547 558 1547 579.5 1536.5 c 128,-1,12
 601 1526 601 1526 633 1526 c 0,13,14
 659 1526 659 1526 677.5 1532 c 128,-1,15
 696 1538 696 1538 707.5 1552 c 128,-1,16
 719 1566 719 1566 725.5 1579 c 128,-1,17
 732 1592 732 1592 735 1616.5 c 128,-1,18
 738 1641 738 1641 738.5 1656 c 128,-1,19
 739 1671 739 1671 739 1700 c 1,20,-1
 985 1700 l 1,0,1
1085 561 m 2,21,22
 1085 408 1085 408 1063.5 301.5 c 128,-1,23
 1042 195 1042 195 988.5 114 c 128,-1,24
 935 33 935 33 840 -6 c 128,-1,25
 745 -45 745 -45 604 -45 c 0,26,27
 332 -45 332 -45 215 84 c 128,-1,28
 98 213 98 213 98 494 c 2,29,-1
 98 1352 l 1,30,-1
 438 1352 l 1,31,-1
 438 516 l 2,32,33
 438 450 438 450 440 403.5 c 128,-1,34
 442 357 442 357 448.5 307 c 128,-1,35
 455 257 455 257 468.5 225 c 128,-1,36
 482 193 482 193 503 165.5 c 128,-1,37
 524 138 524 138 556.5 125.5 c 128,-1,38
 589 113 589 113 633 113 c 0,39,40
 671 113 671 113 700.5 124.5 c 128,-1,41
 730 136 730 136 750.5 154 c 128,-1,42
 771 172 771 172 785 203.5 c 128,-1,43
 799 235 799 235 807.5 267 c 128,-1,44
 816 299 816 299 820 347.5 c 128,-1,45
 824 396 824 396 825.5 437.5 c 128,-1,46
 827 479 827 479 827 539 c 2,47,-1
 827 1352 l 1,48,-1
 1085 1352 l 1,49,-1
 1085 561 l 2,21,22
EndSplineSet
Validated: 1
Position2: "'cpsp' Capital Spacing lookup 3 subtable" dx=10 dy=0 dh=20 dv=0
EndChar

StartChar: Ucircumflex
Encoding: 219 219 126
Width: 1185
Flags: MW
HStem: -45 158<544 723 544 796> 1311 41G<98 438 438 438 827 1085 1085 1085> 1430 41G<301 301 963 963>
VStem: 98 340<494 516 516 1352> 827 258<539 561 561 1352>
LayerCount: 2
UndoRedoHistory
Layer: 1
Undoes
EndUndoes
Redoes
EndRedoes
EndUndoRedoHistory
Fore
SplineSet
301 1470 m 1,0,-1
 604 1724 l 1,1,-1
 653 1724 l 1,2,-1
 963 1470 l 1,3,-1
 893 1386 l 1,4,-1
 631 1513 l 1,5,-1
 371 1386 l 1,6,-1
 301 1470 l 1,0,-1
1085 561 m 2,7,8
 1085 408 1085 408 1063.5 301.5 c 128,-1,9
 1042 195 1042 195 988.5 114 c 128,-1,10
 935 33 935 33 840 -6 c 128,-1,11
 745 -45 745 -45 604 -45 c 0,12,13
 332 -45 332 -45 215 84 c 128,-1,14
 98 213 98 213 98 494 c 2,15,-1
 98 1352 l 1,16,-1
 438 1352 l 1,17,-1
 438 516 l 2,18,19
 438 450 438 450 440 403.5 c 128,-1,20
 442 357 442 357 448.5 307 c 128,-1,21
 455 257 455 257 468.5 225 c 128,-1,22
 482 193 482 193 503 165.5 c 128,-1,23
 524 138 524 138 556.5 125.5 c 128,-1,24
 589 113 589 113 633 113 c 0,25,26
 671 113 671 113 700.5 124.5 c 128,-1,27
 730 136 730 136 750.5 154 c 128,-1,28
 771 172 771 172 785 203.5 c 128,-1,29
 799 235 799 235 807.5 267 c 128,-1,30
 816 299 816 299 820 347.5 c 128,-1,31
 824 396 824 396 825.5 437.5 c 128,-1,32
 827 479 827 479 827 539 c 2,33,-1
 827 1352 l 1,34,-1
 1085 1352 l 1,35,-1
 1085 561 l 2,7,8
EndSplineSet
Validated: 1
Position2: "'cpsp' Capital Spacing lookup 3 subtable" dx=10 dy=0 dh=20 dv=0
EndChar

StartChar: Udieresis
Encoding: 220 220 127
Width: 1185
Flags: MW
HStem: -45 158<544 723 544 796> 1311 41G<98 438 438 438 827 1085 1085 1085> 1456 295<362 463 803 903>
VStem: 98 340<494 516 516 1352> 223 377<1554 1649> 664 377<1554 1649> 827 258<539 561 561 1352>
LayerCount: 2
UndoRedoHistory
Layer: 1
Undoes
EndUndoes
Redoes
EndRedoes
EndUndoRedoHistory
Fore
SplineSet
416 1751 m 128,-1,1
 499 1751 499 1751 549.5 1712 c 128,-1,2
 600 1673 600 1673 600 1604 c 0,3,4
 600 1533 600 1533 546.5 1494.5 c 128,-1,5
 493 1456 493 1456 410 1456 c 128,-1,6
 327 1456 327 1456 275 1493.5 c 128,-1,7
 223 1531 223 1531 223 1599 c 0,8,9
 223 1670 223 1670 278 1710.5 c 128,-1,0
 333 1751 333 1751 416 1751 c 128,-1,1
856 1751 m 128,-1,11
 939 1751 939 1751 989.5 1712 c 128,-1,12
 1040 1673 1040 1673 1040 1604 c 0,13,14
 1040 1533 1040 1533 986.5 1494.5 c 128,-1,15
 933 1456 933 1456 850 1456 c 128,-1,16
 767 1456 767 1456 715.5 1493.5 c 128,-1,17
 664 1531 664 1531 664 1599 c 0,18,19
 664 1670 664 1670 718.5 1710.5 c 128,-1,10
 773 1751 773 1751 856 1751 c 128,-1,11
1085 561 m 2,20,21
 1085 408 1085 408 1063.5 301.5 c 128,-1,22
 1042 195 1042 195 988.5 114 c 128,-1,23
 935 33 935 33 840 -6 c 128,-1,24
 745 -45 745 -45 604 -45 c 0,25,26
 332 -45 332 -45 215 84 c 128,-1,27
 98 213 98 213 98 494 c 2,28,-1
 98 1352 l 1,29,-1
 438 1352 l 1,30,-1
 438 516 l 2,31,32
 438 450 438 450 440 403.5 c 128,-1,33
 442 357 442 357 448.5 307 c 128,-1,34
 455 257 455 257 468.5 225 c 128,-1,35
 482 193 482 193 503 165.5 c 128,-1,36
 524 138 524 138 556.5 125.5 c 128,-1,37
 589 113 589 113 633 113 c 0,38,39
 671 113 671 113 700.5 124.5 c 128,-1,40
 730 136 730 136 750.5 154 c 128,-1,41
 771 172 771 172 785 203.5 c 128,-1,42
 799 235 799 235 807.5 267 c 128,-1,43
 816 299 816 299 820 347.5 c 128,-1,44
 824 396 824 396 825.5 437.5 c 128,-1,45
 827 479 827 479 827 539 c 2,46,-1
 827 1352 l 1,47,-1
 1085 1352 l 1,48,-1
 1085 561 l 2,20,21
EndSplineSet
Validated: 1
Position2: "'cpsp' Capital Spacing lookup 3 subtable" dx=10 dy=0 dh=20 dv=0
EndChar

StartChar: Udotbelow
Encoding: 7908 7908 128
Width: 1185
Flags: MW
HStem: -391 295<586 686> -45 158<544 723 544 796> 1311 41G<98 438 438 438 827 1085 1085 1085>
VStem: 98 340<494 516 516 1352> 446 377<-293 -199> 827 258<539 561 561 1352>
LayerCount: 2
UndoRedoHistory
Layer: 1
Undoes
EndUndoes
Redoes
EndRedoes
EndUndoRedoHistory
Fore
SplineSet
1085 561 m 2,0,1
 1085 408 1085 408 1063.5 301.5 c 128,-1,2
 1042 195 1042 195 988.5 114 c 128,-1,3
 935 33 935 33 840 -6 c 128,-1,4
 745 -45 745 -45 604 -45 c 0,5,6
 332 -45 332 -45 215 84 c 128,-1,7
 98 213 98 213 98 494 c 2,8,-1
 98 1352 l 1,9,-1
 438 1352 l 1,10,-1
 438 516 l 2,11,12
 438 450 438 450 440 403.5 c 128,-1,13
 442 357 442 357 448.5 307 c 128,-1,14
 455 257 455 257 468.5 225 c 128,-1,15
 482 193 482 193 503 165.5 c 128,-1,16
 524 138 524 138 556.5 125.5 c 128,-1,17
 589 113 589 113 633 113 c 0,18,19
 671 113 671 113 700.5 124.5 c 128,-1,20
 730 136 730 136 750.5 154 c 128,-1,21
 771 172 771 172 785 203.5 c 128,-1,22
 799 235 799 235 807.5 267 c 128,-1,23
 816 299 816 299 820 347.5 c 128,-1,24
 824 396 824 396 825.5 437.5 c 128,-1,25
 827 479 827 479 827 539 c 2,26,-1
 827 1352 l 1,27,-1
 1085 1352 l 1,28,-1
 1085 561 l 2,0,1
639 -96 m 128,-1,30
 722 -96 722 -96 772.5 -135.5 c 128,-1,31
 823 -175 823 -175 823 -244 c 0,32,33
 823 -315 823 -315 769.5 -353 c 128,-1,34
 716 -391 716 -391 633 -391 c 128,-1,35
 550 -391 550 -391 498 -353.5 c 128,-1,36
 446 -316 446 -316 446 -248 c 0,37,38
 446 -177 446 -177 501 -136.5 c 128,-1,29
 556 -96 556 -96 639 -96 c 128,-1,30
EndSplineSet
Validated: 1
Position2: "'cpsp' Capital Spacing lookup 3 subtable" dx=10 dy=0 dh=20 dv=0
EndChar

StartChar: Ugrave
Encoding: 217 217 129
Width: 1185
Flags: MW
HStem: -45 158<544 723 544 796> 1311 41G<98 438 438 438 827 1085 1085 1085>
VStem: 98 340<494 516 516 1352> 827 258<539 561 561 1352>
LayerCount: 2
UndoRedoHistory
Layer: 1
Undoes
EndUndoes
Redoes
EndRedoes
EndUndoRedoHistory
Fore
SplineSet
524 1475 m 2,0,1
 488 1478 488 1478 466.5 1480 c 128,-1,2
 445 1482 445 1482 412.5 1488 c 128,-1,3
 380 1494 380 1494 360 1503 c 128,-1,4
 340 1512 340 1512 320 1526.5 c 128,-1,5
 300 1541 300 1541 290.5 1563 c 128,-1,6
 281 1585 281 1585 281 1614 c 0,7,8
 281 1649 281 1649 299.5 1683 c 128,-1,9
 318 1717 318 1717 348 1741 c 1,10,-1
 819 1550 l 1,11,-1
 795 1454 l 1,12,-1
 524 1475 l 2,0,1
1085 561 m 2,13,14
 1085 408 1085 408 1063.5 301.5 c 128,-1,15
 1042 195 1042 195 988.5 114 c 128,-1,16
 935 33 935 33 840 -6 c 128,-1,17
 745 -45 745 -45 604 -45 c 0,18,19
 332 -45 332 -45 215 84 c 128,-1,20
 98 213 98 213 98 494 c 2,21,-1
 98 1352 l 1,22,-1
 438 1352 l 1,23,-1
 438 516 l 2,24,25
 438 450 438 450 440 403.5 c 128,-1,26
 442 357 442 357 448.5 307 c 128,-1,27
 455 257 455 257 468.5 225 c 128,-1,28
 482 193 482 193 503 165.5 c 128,-1,29
 524 138 524 138 556.5 125.5 c 128,-1,30
 589 113 589 113 633 113 c 0,31,32
 671 113 671 113 700.5 124.5 c 128,-1,33
 730 136 730 136 750.5 154 c 128,-1,34
 771 172 771 172 785 203.5 c 128,-1,35
 799 235 799 235 807.5 267 c 128,-1,36
 816 299 816 299 820 347.5 c 128,-1,37
 824 396 824 396 825.5 437.5 c 128,-1,38
 827 479 827 479 827 539 c 2,39,-1
 827 1352 l 1,40,-1
 1085 1352 l 1,41,-1
 1085 561 l 2,13,14
EndSplineSet
Validated: 1
Position2: "'cpsp' Capital Spacing lookup 3 subtable" dx=10 dy=0 dh=20 dv=0
EndChar

StartChar: Uhungarumlaut
Encoding: 368 368 130
Width: 1185
Flags: MW
HStem: -45 158<544 723 544 796> 1311 41G<98 438 438 438 827 1085 1085 1085>
VStem: 98 340<494 516 516 1352> 827 258<539 561 561 1352>
LayerCount: 2
UndoRedoHistory
Layer: 1
Undoes
EndUndoes
Redoes
EndRedoes
EndUndoRedoHistory
Fore
SplineSet
676 1753 m 1,0,1
 754 1710 754 1710 754 1640 c 0,2,3
 754 1536 754 1536 563 1485 c 2,4,-1
 379 1436 l 1,5,-1
 338 1530 l 1,6,-1
 676 1753 l 1,0,1
1085 1753 m 1,7,8
 1163 1710 1163 1710 1163 1640 c 0,9,10
 1163 1537 1163 1537 973 1485 c 1,11,-1
 788 1436 l 1,12,-1
 748 1530 l 1,13,-1
 1085 1753 l 1,7,8
1085 561 m 2,14,15
 1085 408 1085 408 1063.5 301.5 c 128,-1,16
 1042 195 1042 195 988.5 114 c 128,-1,17
 935 33 935 33 840 -6 c 128,-1,18
 745 -45 745 -45 604 -45 c 0,19,20
 332 -45 332 -45 215 84 c 128,-1,21
 98 213 98 213 98 494 c 2,22,-1
 98 1352 l 1,23,-1
 438 1352 l 1,24,-1
 438 516 l 2,25,26
 438 450 438 450 440 403.5 c 128,-1,27
 442 357 442 357 448.5 307 c 128,-1,28
 455 257 455 257 468.5 225 c 128,-1,29
 482 193 482 193 503 165.5 c 128,-1,30
 524 138 524 138 556.5 125.5 c 128,-1,31
 589 113 589 113 633 113 c 0,32,33
 671 113 671 113 700.5 124.5 c 128,-1,34
 730 136 730 136 750.5 154 c 128,-1,35
 771 172 771 172 785 203.5 c 128,-1,36
 799 235 799 235 807.5 267 c 128,-1,37
 816 299 816 299 820 347.5 c 128,-1,38
 824 396 824 396 825.5 437.5 c 128,-1,39
 827 479 827 479 827 539 c 2,40,-1
 827 1352 l 1,41,-1
 1085 1352 l 1,42,-1
 1085 561 l 2,14,15
EndSplineSet
Validated: 1
Position2: "'cpsp' Capital Spacing lookup 3 subtable" dx=10 dy=0 dh=20 dv=0
EndChar

StartChar: Umacron
Encoding: 362 362 131
Width: 1185
Flags: MW
HStem: -45 158<544 723 544 796> 1311 41G<98 438 438 438 827 1085 1085 1085> 1550 178<444 813 350 913>
VStem: 98 340<494 516 516 1352> 827 258<539 561 561 1352>
LayerCount: 2
UndoRedoHistory
Layer: 1
Undoes
EndUndoes
Redoes
EndRedoes
EndUndoRedoHistory
Fore
SplineSet
913 1729 m 1,0,1
 932 1691 932 1691 932 1649 c 0,2,3
 932 1604 932 1604 900.5 1577 c 128,-1,4
 869 1550 869 1550 813 1550 c 2,5,-1
 350 1550 l 1,6,7
 334 1579 334 1579 334 1626 c 128,-1,8
 334 1673 334 1673 363.5 1701 c 128,-1,9
 393 1729 393 1729 444 1729 c 2,10,-1
 913 1729 l 1,0,1
1085 561 m 2,11,12
 1085 408 1085 408 1063.5 301.5 c 128,-1,13
 1042 195 1042 195 988.5 114 c 128,-1,14
 935 33 935 33 840 -6 c 128,-1,15
 745 -45 745 -45 604 -45 c 0,16,17
 332 -45 332 -45 215 84 c 128,-1,18
 98 213 98 213 98 494 c 2,19,-1
 98 1352 l 1,20,-1
 438 1352 l 1,21,-1
 438 516 l 2,22,23
 438 450 438 450 440 403.5 c 128,-1,24
 442 357 442 357 448.5 307 c 128,-1,25
 455 257 455 257 468.5 225 c 128,-1,26
 482 193 482 193 503 165.5 c 128,-1,27
 524 138 524 138 556.5 125.5 c 128,-1,28
 589 113 589 113 633 113 c 0,29,30
 671 113 671 113 700.5 124.5 c 128,-1,31
 730 136 730 136 750.5 154 c 128,-1,32
 771 172 771 172 785 203.5 c 128,-1,33
 799 235 799 235 807.5 267 c 128,-1,34
 816 299 816 299 820 347.5 c 128,-1,35
 824 396 824 396 825.5 437.5 c 128,-1,36
 827 479 827 479 827 539 c 2,37,-1
 827 1352 l 1,38,-1
 1085 1352 l 1,39,-1
 1085 561 l 2,11,12
EndSplineSet
Validated: 1
Position2: "'cpsp' Capital Spacing lookup 3 subtable" dx=10 dy=0 dh=20 dv=0
EndChar

StartChar: Uogonek
Encoding: 370 370 132
Width: 1185
Flags: MW
HStem: -524 147<788 817> -45 158<544 614> 1311 41G<98 438 438 438 827 1085 1085 1085>
VStem: 98 340<494 516 516 1352> 516 199<-303 -258> 827 258<539 561 561 1352>
LayerCount: 2
UndoRedoHistory
Layer: 1
Undoes
EndUndoes
Redoes
EndRedoes
EndUndoRedoHistory
Fore
SplineSet
1085 561 m 2,0,1
 1085 347 1085 347 1040 213.5 c 128,-1,2
 995 80 995 80 883 16 c 1,3,4
 715 -110 715 -110 715 -262 c 0,5,6
 715 -324 715 -324 741.5 -350.5 c 128,-1,7
 768 -377 768 -377 829 -377 c 0,8,9
 860 -377 860 -377 890 -365 c 128,-1,10
 920 -353 920 -353 934 -330 c 1,11,12
 973 -357 973 -357 973 -397 c 0,13,14
 973 -441 973 -441 939.5 -471 c 128,-1,15
 906 -501 906 -501 864 -512.5 c 128,-1,16
 822 -524 822 -524 776 -524 c 0,17,18
 661 -524 661 -524 588.5 -470.5 c 128,-1,19
 516 -417 516 -417 516 -313 c 0,20,21
 516 -163 516 -163 664 -43 c 1,22,23
 646 -45 646 -45 604 -45 c 0,24,25
 332 -45 332 -45 215 84 c 128,-1,26
 98 213 98 213 98 494 c 2,27,-1
 98 1352 l 1,28,-1
 438 1352 l 1,29,-1
 438 516 l 2,30,31
 438 450 438 450 440 403.5 c 128,-1,32
 442 357 442 357 448.5 307 c 128,-1,33
 455 257 455 257 468.5 225 c 128,-1,34
 482 193 482 193 503 165.5 c 128,-1,35
 524 138 524 138 556.5 125.5 c 128,-1,36
 589 113 589 113 633 113 c 0,37,38
 671 113 671 113 700.5 124.5 c 128,-1,39
 730 136 730 136 750.5 154 c 128,-1,40
 771 172 771 172 785 203.5 c 128,-1,41
 799 235 799 235 807.5 267 c 128,-1,42
 816 299 816 299 820 347.5 c 128,-1,43
 824 396 824 396 825.5 437.5 c 128,-1,44
 827 479 827 479 827 539 c 2,45,-1
 827 1352 l 1,46,-1
 1085 1352 l 1,47,-1
 1085 561 l 2,0,1
EndSplineSet
Validated: 1
Position2: "'cpsp' Capital Spacing lookup 3 subtable" dx=10 dy=0 dh=20 dv=0
EndChar

StartChar: Uring
Encoding: 366 366 133
Width: 1185
Flags: MW
HStem: -45 158<544 723 544 796> 1311 41G<98 438 438 438 827 1085 1085 1085> 1434 78<601 664 601 695> 1724 76<602 664>
VStem: 98 340<494 516 516 1352> 412 131<1589 1649 1589 1678> 723 131<1589 1649> 827 258<539 561 561 1352>
LayerCount: 2
UndoRedoHistory
Layer: 1
Undoes
EndUndoes
Redoes
EndRedoes
EndUndoRedoHistory
Fore
SplineSet
633 1434 m 128,-1,1
 537 1434 537 1434 474.5 1484.5 c 128,-1,2
 412 1535 412 1535 412 1620 c 128,-1,3
 412 1705 412 1705 473.5 1752.5 c 128,-1,4
 535 1800 535 1800 633 1800 c 128,-1,5
 731 1800 731 1800 792.5 1752.5 c 128,-1,6
 854 1705 854 1705 854 1620 c 128,-1,7
 854 1535 854 1535 791.5 1484.5 c 128,-1,0
 729 1434 729 1434 633 1434 c 128,-1,1
633 1511 m 0,8,9
 677 1511 677 1511 700 1541.5 c 128,-1,10
 723 1572 723 1572 723 1620 c 0,11,12
 723 1665 723 1665 700 1694.5 c 128,-1,13
 677 1724 677 1724 633 1724 c 128,-1,14
 589 1724 589 1724 566 1694.5 c 128,-1,15
 543 1665 543 1665 543 1620 c 0,16,17
 543 1571 543 1571 565.5 1541 c 128,-1,18
 588 1511 588 1511 633 1511 c 0,8,9
1085 561 m 2,19,20
 1085 408 1085 408 1063.5 301.5 c 128,-1,21
 1042 195 1042 195 988.5 114 c 128,-1,22
 935 33 935 33 840 -6 c 128,-1,23
 745 -45 745 -45 604 -45 c 0,24,25
 332 -45 332 -45 215 84 c 128,-1,26
 98 213 98 213 98 494 c 2,27,-1
 98 1352 l 1,28,-1
 438 1352 l 1,29,-1
 438 516 l 2,30,31
 438 450 438 450 440 403.5 c 128,-1,32
 442 357 442 357 448.5 307 c 128,-1,33
 455 257 455 257 468.5 225 c 128,-1,34
 482 193 482 193 503 165.5 c 128,-1,35
 524 138 524 138 556.5 125.5 c 128,-1,36
 589 113 589 113 633 113 c 0,37,38
 671 113 671 113 700.5 124.5 c 128,-1,39
 730 136 730 136 750.5 154 c 128,-1,40
 771 172 771 172 785 203.5 c 128,-1,41
 799 235 799 235 807.5 267 c 128,-1,42
 816 299 816 299 820 347.5 c 128,-1,43
 824 396 824 396 825.5 437.5 c 128,-1,44
 827 479 827 479 827 539 c 2,45,-1
 827 1352 l 1,46,-1
 1085 1352 l 1,47,-1
 1085 561 l 2,19,20
EndSplineSet
Validated: 1
Position2: "'cpsp' Capital Spacing lookup 3 subtable" dx=10 dy=0 dh=20 dv=0
EndChar

StartChar: Utilde
Encoding: 360 360 134
Width: 1185
Flags: MW
HStem: -45 158<544 723 544 796> 1311 41G<98 438 438 438 827 1085 1085 1085> 1464 195<776 842 772 872> 1509 195<426 490 395 496>
VStem: 98 340<494 516 516 1352> 827 258<539 561 561 1352>
LayerCount: 2
UndoRedoHistory
Layer: 1
Undoes
EndUndoes
Redoes
EndRedoes
EndUndoRedoHistory
Fore
SplineSet
942 1696 m 1,0,1
 993 1648 993 1648 993 1581 c 0,2,3
 993 1464 993 1464 827 1464 c 0,4,5
 776 1464 776 1464 635.5 1486.5 c 128,-1,6
 495 1509 495 1509 446 1509 c 0,7,8
 362 1509 362 1509 326 1475 c 1,9,10
 303 1495 303 1495 288.5 1525.5 c 128,-1,11
 274 1556 274 1556 274 1587 c 0,12,13
 274 1704 274 1704 440 1704 c 0,14,15
 490 1704 490 1704 631 1681.5 c 128,-1,16
 772 1659 772 1659 821 1659 c 0,17,18
 905 1659 905 1659 942 1696 c 1,0,1
1085 561 m 2,19,20
 1085 408 1085 408 1063.5 301.5 c 128,-1,21
 1042 195 1042 195 988.5 114 c 128,-1,22
 935 33 935 33 840 -6 c 128,-1,23
 745 -45 745 -45 604 -45 c 0,24,25
 332 -45 332 -45 215 84 c 128,-1,26
 98 213 98 213 98 494 c 2,27,-1
 98 1352 l 1,28,-1
 438 1352 l 1,29,-1
 438 516 l 2,30,31
 438 450 438 450 440 403.5 c 128,-1,32
 442 357 442 357 448.5 307 c 128,-1,33
 455 257 455 257 468.5 225 c 128,-1,34
 482 193 482 193 503 165.5 c 128,-1,35
 524 138 524 138 556.5 125.5 c 128,-1,36
 589 113 589 113 633 113 c 0,37,38
 671 113 671 113 700.5 124.5 c 128,-1,39
 730 136 730 136 750.5 154 c 128,-1,40
 771 172 771 172 785 203.5 c 128,-1,41
 799 235 799 235 807.5 267 c 128,-1,42
 816 299 816 299 820 347.5 c 128,-1,43
 824 396 824 396 825.5 437.5 c 128,-1,44
 827 479 827 479 827 539 c 2,45,-1
 827 1352 l 1,46,-1
 1085 1352 l 1,47,-1
 1085 561 l 2,19,20
EndSplineSet
Validated: 1
Position2: "'cpsp' Capital Spacing lookup 3 subtable" dx=10 dy=0 dh=20 dv=0
EndChar

StartChar: V
Encoding: 86 86 135
Width: 1089
Flags: MW
HStem: 0 201<592 592 592 741> 1311 41G<-2 344 344 344 834 1108 1108 1108>
VStem: -2 1110<1352 1352>
LayerCount: 2
UndoRedoHistory
Layer: 1
Undoes
EndUndoes
Redoes
EndRedoes
EndUndoRedoHistory
Fore
SplineSet
741 0 m 1,0,-1
 326 0 l 1,1,-1
 -2 1352 l 1,2,-1
 344 1352 l 1,3,-1
 592 201 l 1,4,-1
 834 1352 l 1,5,-1
 1108 1352 l 1,6,-1
 741 0 l 1,0,-1
EndSplineSet
Validated: 1
Position2: "'cpsp' Capital Spacing lookup 3 subtable" dx=10 dy=0 dh=20 dv=0
EndChar

StartChar: W
Encoding: 87 87 136
Width: 1802
Flags: MW
HStem: 0 201<578 578 578 727> 1311 41G<-2 344 344 344 807 1085 1085 1085 1546 1823 1823 1823>
VStem: -2 1825<1352 1352>
LayerCount: 2
UndoRedoHistory
Layer: 1
Undoes
EndUndoes
Redoes
EndRedoes
EndUndoRedoHistory
Fore
SplineSet
1468 0 m 1,0,-1
 1053 0 l 1,1,-1
 887 821 l 1,2,-1
 727 0 l 1,3,-1
 311 0 l 1,4,-1
 -2 1352 l 1,5,-1
 344 1352 l 1,6,-1
 578 201 l 1,7,-1
 807 1352 l 1,8,-1
 1085 1352 l 1,9,-1
 1317 201 l 1,10,-1
 1546 1352 l 1,11,-1
 1823 1352 l 1,12,-1
 1468 0 l 1,0,-1
EndSplineSet
Validated: 1
Position2: "'cpsp' Capital Spacing lookup 3 subtable" dx=10 dy=0 dh=20 dv=0
EndChar

StartChar: Wacute
Encoding: 7810 7810 137
Width: 1802
Flags: MW
HStem: 0 201<578 578 578 727> 1311 41G<-2 344 344 344 807 1085 1085 1085 1546 1823 1823 1823>
VStem: -2 1825<1352 1352>
LayerCount: 2
UndoRedoHistory
Layer: 1
Undoes
EndUndoes
Redoes
EndRedoes
EndUndoRedoHistory
Fore
SplineSet
1231 1739 m 1,0,1
 1261 1715 1261 1715 1279.5 1681 c 128,-1,2
 1298 1647 1298 1647 1298 1612 c 0,3,4
 1298 1583 1298 1583 1288.5 1561 c 128,-1,5
 1279 1539 1279 1539 1259 1524.5 c 128,-1,6
 1239 1510 1239 1510 1219 1501 c 128,-1,7
 1199 1492 1199 1492 1166.5 1486 c 128,-1,8
 1134 1480 1134 1480 1112.5 1478 c 128,-1,9
 1091 1476 1091 1476 1055 1473 c 2,10,-1
 784 1452 l 1,11,-1
 760 1548 l 1,12,-1
 1231 1739 l 1,0,1
1053 0 m 1,13,-1
 887 821 l 1,14,-1
 727 0 l 1,15,-1
 311 0 l 1,16,-1
 -2 1352 l 1,17,-1
 344 1352 l 1,18,-1
 578 201 l 1,19,-1
 807 1352 l 1,20,-1
 1085 1352 l 1,21,-1
 1317 201 l 1,22,-1
 1546 1352 l 1,23,-1
 1823 1352 l 1,24,-1
 1468 0 l 1,25,-1
 1053 0 l 1,13,-1
EndSplineSet
Validated: 1
Position2: "'cpsp' Capital Spacing lookup 3 subtable" dx=10 dy=0 dh=20 dv=0
EndChar

StartChar: Wcircumflex
Encoding: 372 372 138
Width: 1802
Flags: MW
HStem: 0 201<578 578 578 727> 1311 41G<-2 344 344 344 807 1085 1085 1085 1546 1823 1823 1823> 1430 41G<614 614 1276 1276>
VStem: -2 1825<1352 1352>
LayerCount: 2
UndoRedoHistory
Layer: 1
Undoes
EndUndoes
Redoes
EndRedoes
EndUndoRedoHistory
Fore
SplineSet
614 1470 m 1,0,-1
 918 1724 l 1,1,-1
 967 1724 l 1,2,-1
 1276 1470 l 1,3,-1
 1206 1386 l 1,4,-1
 944 1513 l 1,5,-1
 684 1386 l 1,6,-1
 614 1470 l 1,0,-1
1053 0 m 1,7,-1
 887 821 l 1,8,-1
 727 0 l 1,9,-1
 311 0 l 1,10,-1
 -2 1352 l 1,11,-1
 344 1352 l 1,12,-1
 578 201 l 1,13,-1
 807 1352 l 1,14,-1
 1085 1352 l 1,15,-1
 1317 201 l 1,16,-1
 1546 1352 l 1,17,-1
 1823 1352 l 1,18,-1
 1468 0 l 1,19,-1
 1053 0 l 1,7,-1
EndSplineSet
Validated: 1
Position2: "'cpsp' Capital Spacing lookup 3 subtable" dx=10 dy=0 dh=20 dv=0
EndChar

